%TF.GenerationSoftware,KiCad,Pcbnew,10.0.3*%
%TF.CreationDate,2026-10-01T01:11:43-06:00*%
%TF.ProjectId,GBG_Motors,4742475f-4d6f-4746-9f72-732e6b696361,rev?*%
%TF.SameCoordinates,Original*%
%TF.FileFunction,Soldermask,Top*%
%TF.FilePolarity,Negative*%
%FSLAX46Y46*%
G04 Gerber Fmt 4.6, Leading zero omitted, Abs format (unit mm)*
G04 Created by KiCad (PCBNEW 10.0.3) date 2026-10-01 01:11:43*
%MOMM*%
%LPD*%
G01*
G04 APERTURE LIST*
G04 Aperture macros list*
%AMRoundRect*
0 Rectangle with rounded corners*
0 $1 Rounding radius*
0 $2 $3 $4 $5 $6 $7 $8 $9 X,Y pos of 4 corners*
0 Add a 4 corners polygon primitive as box body*
4,1,4,$2,$3,$4,$5,$6,$7,$8,$9,$2,$3,0*
0 Add four circle primitives for the rounded corners*
1,1,$1+$1,$2,$3*
1,1,$1+$1,$4,$5*
1,1,$1+$1,$6,$7*
1,1,$1+$1,$8,$9*
0 Add four rect primitives between the rounded corners*
20,1,$1+$1,$2,$3,$4,$5,0*
20,1,$1+$1,$4,$5,$6,$7,0*
20,1,$1+$1,$6,$7,$8,$9,0*
20,1,$1+$1,$8,$9,$2,$3,0*%
%AMFreePoly0*
4,1,23,0.550000,-0.750000,0.000000,-0.750000,0.000000,-0.745722,-0.065263,-0.745722,-0.191342,-0.711940,-0.304381,-0.646677,-0.396677,-0.554381,-0.461940,-0.441342,-0.495722,-0.315263,-0.495722,-0.250000,-0.500000,-0.250000,-0.500000,0.250000,-0.495722,0.250000,-0.495722,0.315263,-0.461940,0.441342,-0.396677,0.554381,-0.304381,0.646677,-0.191342,0.711940,-0.065263,0.745722,0.000000,0.745722,
0.000000,0.750000,0.550000,0.750000,0.550000,-0.750000,0.550000,-0.750000,$1*%
%AMFreePoly1*
4,1,23,0.000000,0.745722,0.065263,0.745722,0.191342,0.711940,0.304381,0.646677,0.396677,0.554381,0.461940,0.441342,0.495722,0.315263,0.495722,0.250000,0.500000,0.250000,0.500000,-0.250000,0.495722,-0.250000,0.495722,-0.315263,0.461940,-0.441342,0.396677,-0.554381,0.304381,-0.646677,0.191342,-0.711940,0.065263,-0.745722,0.000000,-0.745722,0.000000,-0.750000,-0.550000,-0.750000,
-0.550000,0.750000,0.000000,0.750000,0.000000,0.745722,0.000000,0.745722,$1*%
%AMFreePoly2*
4,1,23,0.500000,-0.750000,0.000000,-0.750000,0.000000,-0.745722,-0.065263,-0.745722,-0.191342,-0.711940,-0.304381,-0.646677,-0.396677,-0.554381,-0.461940,-0.441342,-0.495722,-0.315263,-0.495722,-0.250000,-0.500000,-0.250000,-0.500000,0.250000,-0.495722,0.250000,-0.495722,0.315263,-0.461940,0.441342,-0.396677,0.554381,-0.304381,0.646677,-0.191342,0.711940,-0.065263,0.745722,0.000000,0.745722,
0.000000,0.750000,0.500000,0.750000,0.500000,-0.750000,0.500000,-0.750000,$1*%
%AMFreePoly3*
4,1,23,0.000000,0.745722,0.065263,0.745722,0.191342,0.711940,0.304381,0.646677,0.396677,0.554381,0.461940,0.441342,0.495722,0.315263,0.495722,0.250000,0.500000,0.250000,0.500000,-0.250000,0.495722,-0.250000,0.495722,-0.315263,0.461940,-0.441342,0.396677,-0.554381,0.304381,-0.646677,0.191342,-0.711940,0.065263,-0.745722,0.000000,-0.745722,0.000000,-0.750000,-0.500000,-0.750000,
-0.500000,0.750000,0.000000,0.750000,0.000000,0.745722,0.000000,0.745722,$1*%
G04 Aperture macros list end*
%ADD10R,1.700000X1.700000*%
%ADD11C,1.700000*%
%ADD12R,2.300000X1.500000*%
%ADD13O,2.300000X1.500000*%
%ADD14C,1.600000*%
%ADD15R,1.500000X1.500000*%
%ADD16C,1.500000*%
%ADD17FreePoly0,180.000000*%
%ADD18R,1.000000X1.500000*%
%ADD19FreePoly1,180.000000*%
%ADD20FreePoly0,0.000000*%
%ADD21FreePoly1,0.000000*%
%ADD22RoundRect,0.250000X0.550000X0.550000X-0.550000X0.550000X-0.550000X-0.550000X0.550000X-0.550000X0*%
%ADD23FreePoly2,0.000000*%
%ADD24FreePoly3,0.000000*%
%ADD25RoundRect,0.250000X-0.550000X-0.550000X0.550000X-0.550000X0.550000X0.550000X-0.550000X0.550000X0*%
G04 APERTURE END LIST*
%TO.C,JP702*%
G36*
X132884000Y-76720000D02*
G01*
X134384000Y-76720000D01*
X134384000Y-78220000D01*
X132884000Y-78220000D01*
X132884000Y-76720000D01*
G37*
%TO.C,JP801*%
G36*
X125234000Y-103644000D02*
G01*
X126734000Y-103644000D01*
X126734000Y-105144000D01*
X125234000Y-105144000D01*
X125234000Y-103644000D01*
G37*
%TO.C,JP602*%
G36*
X158792000Y-103136000D02*
G01*
X160292000Y-103136000D01*
X160292000Y-104636000D01*
X158792000Y-104636000D01*
X158792000Y-103136000D01*
G37*
%TO.C,JP701*%
G36*
X132804000Y-71894000D02*
G01*
X133104000Y-71894000D01*
X133104000Y-73394000D01*
X132804000Y-73394000D01*
X132804000Y-71894000D01*
G37*
%TO.C,JP703*%
G36*
X152950000Y-86372000D02*
G01*
X154450000Y-86372000D01*
X154450000Y-87872000D01*
X152950000Y-87872000D01*
X152950000Y-86372000D01*
G37*
%TO.C,JP901*%
G36*
X118122000Y-103644000D02*
G01*
X119622000Y-103644000D01*
X119622000Y-105144000D01*
X118122000Y-105144000D01*
X118122000Y-103644000D01*
G37*
%TO.C,JP101*%
G36*
X111040000Y-107708000D02*
G01*
X112540000Y-107708000D01*
X112540000Y-109208000D01*
X111040000Y-109208000D01*
X111040000Y-107708000D01*
G37*
%TO.C,JP802*%
G36*
X125234000Y-107708000D02*
G01*
X126734000Y-107708000D01*
X126734000Y-109208000D01*
X125234000Y-109208000D01*
X125234000Y-107708000D01*
G37*
%TO.C,JP603*%
G36*
X138726000Y-93484000D02*
G01*
X140226000Y-93484000D01*
X140226000Y-94984000D01*
X138726000Y-94984000D01*
X138726000Y-93484000D01*
G37*
%TO.C,JP902*%
G36*
X118122000Y-107708000D02*
G01*
X119622000Y-107708000D01*
X119622000Y-109208000D01*
X118122000Y-109208000D01*
X118122000Y-107708000D01*
G37*
%TO.C,JP601*%
G36*
X158742000Y-107962000D02*
G01*
X159042000Y-107962000D01*
X159042000Y-109462000D01*
X158742000Y-109462000D01*
X158742000Y-107962000D01*
G37*
%TD*%
D10*
%TO.C,J106*%
X117856000Y-80772000D03*
D11*
X117856000Y-78232000D03*
X117856000Y-75692000D03*
%TD*%
D12*
%TO.C,U103*%
X111868500Y-74260500D03*
D13*
X111868500Y-76800500D03*
X111868500Y-79340500D03*
%TD*%
D14*
%TO.C,R201*%
X108488000Y-88646000D03*
X116108000Y-88646000D03*
%TD*%
D15*
%TO.C,Q601*%
X147604000Y-104902000D03*
D16*
X150144000Y-107442000D03*
X147604000Y-109982000D03*
%TD*%
D14*
%TO.C,R603*%
X157759000Y-92202000D03*
X157759000Y-99822000D03*
%TD*%
%TO.C,R702*%
X138968000Y-78994000D03*
X138968000Y-71374000D03*
%TD*%
D17*
%TO.C,JP702*%
X134934000Y-77470000D03*
D18*
X133634000Y-77470000D03*
D19*
X132334000Y-77470000D03*
%TD*%
D14*
%TO.C,C602*%
X131851000Y-99762000D03*
X131851000Y-92262000D03*
%TD*%
D20*
%TO.C,JP801*%
X124684000Y-104394000D03*
D18*
X125984000Y-104394000D03*
D21*
X127284000Y-104394000D03*
%TD*%
D14*
%TO.C,R401*%
X108488000Y-93726000D03*
X116108000Y-93726000D03*
%TD*%
D20*
%TO.C,JP602*%
X158242000Y-103886000D03*
D18*
X159542000Y-103886000D03*
D21*
X160842000Y-103886000D03*
%TD*%
D22*
%TO.C,U601*%
X143281000Y-107442000D03*
D14*
X143281000Y-104902000D03*
X143281000Y-102362000D03*
X143281000Y-99822000D03*
X135661000Y-99822000D03*
X135661000Y-102362000D03*
X135661000Y-104902000D03*
X135661000Y-107442000D03*
%TD*%
%TO.C,R704*%
X142524000Y-89154000D03*
X142524000Y-81534000D03*
%TD*%
D10*
%TO.C,J701*%
X125506000Y-73152000D03*
D11*
X125506000Y-75692000D03*
X125506000Y-78232000D03*
X125506000Y-80772000D03*
%TD*%
D14*
%TO.C,R604*%
X150652000Y-92202000D03*
X150652000Y-99822000D03*
%TD*%
%TO.C,R202*%
X126268000Y-88646000D03*
X118648000Y-88646000D03*
%TD*%
%TO.C,R703*%
X135417000Y-89154000D03*
X135417000Y-81534000D03*
%TD*%
%TO.C,R602*%
X154208000Y-102362000D03*
X154208000Y-109982000D03*
%TD*%
D10*
%TO.C,J102*%
X125506000Y-84836000D03*
D11*
X122966000Y-84836000D03*
X120426000Y-84836000D03*
X117886000Y-84836000D03*
X115346000Y-84836000D03*
X112806000Y-84836000D03*
X110266000Y-84836000D03*
%TD*%
D14*
%TO.C,R607*%
X131856000Y-109982000D03*
X131856000Y-102362000D03*
%TD*%
%TO.C,R501*%
X108488000Y-96266000D03*
X116108000Y-96266000D03*
%TD*%
D10*
%TO.C,J101*%
X103916000Y-84328000D03*
D11*
X103916000Y-86868000D03*
X103916000Y-89408000D03*
X103916000Y-91948000D03*
X103916000Y-94488000D03*
X103916000Y-97028000D03*
%TD*%
D14*
%TO.C,R302*%
X126268000Y-91186000D03*
X118648000Y-91186000D03*
%TD*%
%TO.C,R706*%
X161320000Y-71374000D03*
X161320000Y-78994000D03*
%TD*%
D23*
%TO.C,JP701*%
X132304000Y-72644000D03*
D24*
X133604000Y-72644000D03*
%TD*%
D10*
%TO.C,J105*%
X105948000Y-104648000D03*
D11*
X105948000Y-107188000D03*
%TD*%
D17*
%TO.C,JP703*%
X155000000Y-87122000D03*
D18*
X153700000Y-87122000D03*
D19*
X152400000Y-87122000D03*
%TD*%
D10*
%TO.C,J103*%
X125506000Y-100076000D03*
D11*
X122966000Y-100076000D03*
X120426000Y-100076000D03*
X117886000Y-100076000D03*
X115346000Y-100076000D03*
X112806000Y-100076000D03*
X110266000Y-100076000D03*
%TD*%
D15*
%TO.C,Q701*%
X145572000Y-76454000D03*
D16*
X143032000Y-73914000D03*
X145572000Y-71374000D03*
%TD*%
D20*
%TO.C,JP901*%
X117572000Y-104394000D03*
D18*
X118872000Y-104394000D03*
D21*
X120172000Y-104394000D03*
%TD*%
D14*
%TO.C,R601*%
X161320000Y-92202000D03*
X161320000Y-99822000D03*
%TD*%
D17*
%TO.C,JP101*%
X113090000Y-108458000D03*
D18*
X111790000Y-108458000D03*
D19*
X110490000Y-108458000D03*
%TD*%
D25*
%TO.C,U701*%
X149895000Y-73914000D03*
D14*
X149895000Y-76454000D03*
X149895000Y-78994000D03*
X149895000Y-81534000D03*
X157515000Y-81534000D03*
X157515000Y-78994000D03*
X157515000Y-76454000D03*
X157515000Y-73914000D03*
%TD*%
D20*
%TO.C,JP802*%
X124684000Y-108458000D03*
D18*
X125984000Y-108458000D03*
D21*
X127284000Y-108458000D03*
%TD*%
D14*
%TO.C,C601*%
X154208000Y-99702000D03*
X154208000Y-92202000D03*
%TD*%
%TO.C,R301*%
X108488000Y-91186000D03*
X116108000Y-91186000D03*
%TD*%
D10*
%TO.C,J601*%
X121950000Y-73152000D03*
D11*
X121950000Y-75692000D03*
X121950000Y-78232000D03*
X121950000Y-80772000D03*
%TD*%
D14*
%TO.C,R502*%
X126268000Y-96266000D03*
X118648000Y-96266000D03*
%TD*%
D20*
%TO.C,JP603*%
X138176000Y-94234000D03*
D18*
X139476000Y-94234000D03*
D21*
X140776000Y-94234000D03*
%TD*%
D14*
%TO.C,C701*%
X138968000Y-81654000D03*
X138968000Y-89154000D03*
%TD*%
%TO.C,R402*%
X126268000Y-93726000D03*
X118648000Y-93726000D03*
%TD*%
D20*
%TO.C,JP902*%
X117572000Y-108458000D03*
D18*
X118872000Y-108458000D03*
D21*
X120172000Y-108458000D03*
%TD*%
D14*
%TO.C,R705*%
X146080000Y-81534000D03*
X146080000Y-89154000D03*
%TD*%
%TO.C,R701*%
X131856000Y-89154000D03*
X131856000Y-81534000D03*
%TD*%
%TO.C,R605*%
X147096000Y-99822000D03*
X147096000Y-92202000D03*
%TD*%
D10*
%TO.C,J104*%
X105948000Y-74168000D03*
D11*
X105948000Y-76708000D03*
%TD*%
D23*
%TO.C,JP601*%
X158242000Y-108712000D03*
D24*
X159542000Y-108712000D03*
%TD*%
D16*
%TO.C,U101*%
X169702000Y-101854000D03*
X167162000Y-101854000D03*
X169702000Y-104394000D03*
X167162000Y-104394000D03*
X169702000Y-106934000D03*
X167162000Y-106934000D03*
X169702000Y-109474000D03*
X167162000Y-109474000D03*
%TD*%
D14*
%TO.C,C702*%
X161325000Y-81594000D03*
X161325000Y-89094000D03*
%TD*%
D16*
%TO.C,U102*%
X169702000Y-79756000D03*
X167162000Y-79756000D03*
X169702000Y-77216000D03*
X167162000Y-77216000D03*
X169702000Y-74676000D03*
X167162000Y-74676000D03*
X169702000Y-72136000D03*
X167162000Y-72136000D03*
%TD*%
M02*
