%TF.GenerationSoftware,KiCad,Pcbnew,10.0.3*%
%TF.CreationDate,2026-10-01T01:11:43-06:00*%
%TF.ProjectId,GBG_Motors,4742475f-4d6f-4746-9f72-732e6b696361,rev?*%
%TF.SameCoordinates,Original*%
%TF.FileFunction,Legend,Bot*%
%TF.FilePolarity,Positive*%
%FSLAX46Y46*%
G04 Gerber Fmt 4.6, Leading zero omitted, Abs format (unit mm)*
G04 Created by KiCad (PCBNEW 10.0.3) date 2026-10-01 01:11:43*
%MOMM*%
%LPD*%
G01*
G04 APERTURE LIST*
%ADD10C,0.100000*%
%ADD11C,0.150000*%
%ADD12C,0.187500*%
%ADD13C,0.120000*%
G04 APERTURE END LIST*
D10*
X108458000Y-110871000D02*
X108458000Y-109220000D01*
X112776000Y-110871000D02*
X108458000Y-110871000D01*
X113284000Y-110871000D02*
X113284000Y-109093000D01*
X113284000Y-110871000D02*
X116840000Y-110871000D01*
X116840000Y-109093000D02*
X115672493Y-109093000D01*
X167411428Y-82106914D02*
X167449524Y-82145009D01*
X167449524Y-82145009D02*
X167525714Y-82183104D01*
X167525714Y-82183104D02*
X167716190Y-82183104D01*
X167716190Y-82183104D02*
X167792381Y-82145009D01*
X167792381Y-82145009D02*
X167830476Y-82106914D01*
X167830476Y-82106914D02*
X167868571Y-82030723D01*
X167868571Y-82030723D02*
X167868571Y-81954533D01*
X167868571Y-81954533D02*
X167830476Y-81840247D01*
X167830476Y-81840247D02*
X167373333Y-81383104D01*
X167373333Y-81383104D02*
X167868571Y-81383104D01*
X169392571Y-81383104D02*
X168935428Y-81383104D01*
X169164000Y-81383104D02*
X169164000Y-82183104D01*
X169164000Y-82183104D02*
X169087809Y-82068819D01*
X169087809Y-82068819D02*
X169011619Y-81992628D01*
X169011619Y-81992628D02*
X168935428Y-81954533D01*
X163294592Y-71567866D02*
X163904116Y-71567866D01*
X163599354Y-71263104D02*
X163599354Y-71872628D01*
X164666020Y-72063104D02*
X164285068Y-72063104D01*
X164285068Y-72063104D02*
X164246972Y-71682152D01*
X164246972Y-71682152D02*
X164285068Y-71720247D01*
X164285068Y-71720247D02*
X164361258Y-71758342D01*
X164361258Y-71758342D02*
X164551734Y-71758342D01*
X164551734Y-71758342D02*
X164627925Y-71720247D01*
X164627925Y-71720247D02*
X164666020Y-71682152D01*
X164666020Y-71682152D02*
X164704115Y-71605961D01*
X164704115Y-71605961D02*
X164704115Y-71415485D01*
X164704115Y-71415485D02*
X164666020Y-71339295D01*
X164666020Y-71339295D02*
X164627925Y-71301200D01*
X164627925Y-71301200D02*
X164551734Y-71263104D01*
X164551734Y-71263104D02*
X164361258Y-71263104D01*
X164361258Y-71263104D02*
X164285068Y-71301200D01*
X164285068Y-71301200D02*
X164246972Y-71339295D01*
X164932687Y-72063104D02*
X165199354Y-71263104D01*
X165199354Y-71263104D02*
X165466020Y-72063104D01*
D11*
X120011827Y-75570295D02*
X119745160Y-76370295D01*
X119745160Y-76370295D02*
X119478494Y-75570295D01*
X118868970Y-76370295D02*
X118868970Y-75570295D01*
X118868970Y-76332200D02*
X118945161Y-76370295D01*
X118945161Y-76370295D02*
X119097542Y-76370295D01*
X119097542Y-76370295D02*
X119173732Y-76332200D01*
X119173732Y-76332200D02*
X119211827Y-76294104D01*
X119211827Y-76294104D02*
X119249923Y-76217914D01*
X119249923Y-76217914D02*
X119249923Y-75989342D01*
X119249923Y-75989342D02*
X119211827Y-75913152D01*
X119211827Y-75913152D02*
X119173732Y-75875057D01*
X119173732Y-75875057D02*
X119097542Y-75836961D01*
X119097542Y-75836961D02*
X118945161Y-75836961D01*
X118945161Y-75836961D02*
X118868970Y-75875057D01*
X118145160Y-76370295D02*
X118145160Y-75570295D01*
X118145160Y-76332200D02*
X118221351Y-76370295D01*
X118221351Y-76370295D02*
X118373732Y-76370295D01*
X118373732Y-76370295D02*
X118449922Y-76332200D01*
X118449922Y-76332200D02*
X118488017Y-76294104D01*
X118488017Y-76294104D02*
X118526113Y-76217914D01*
X118526113Y-76217914D02*
X118526113Y-75989342D01*
X118526113Y-75989342D02*
X118488017Y-75913152D01*
X118488017Y-75913152D02*
X118449922Y-75875057D01*
X118449922Y-75875057D02*
X118373732Y-75836961D01*
X118373732Y-75836961D02*
X118221351Y-75836961D01*
X118221351Y-75836961D02*
X118145160Y-75875057D01*
X120202302Y-77465533D02*
X119592779Y-77465533D01*
X119897540Y-77770295D02*
X119897540Y-77160771D01*
X118830874Y-76970295D02*
X119211826Y-76970295D01*
X119211826Y-76970295D02*
X119249922Y-77351247D01*
X119249922Y-77351247D02*
X119211826Y-77313152D01*
X119211826Y-77313152D02*
X119135636Y-77275057D01*
X119135636Y-77275057D02*
X118945160Y-77275057D01*
X118945160Y-77275057D02*
X118868969Y-77313152D01*
X118868969Y-77313152D02*
X118830874Y-77351247D01*
X118830874Y-77351247D02*
X118792779Y-77427438D01*
X118792779Y-77427438D02*
X118792779Y-77617914D01*
X118792779Y-77617914D02*
X118830874Y-77694104D01*
X118830874Y-77694104D02*
X118868969Y-77732200D01*
X118868969Y-77732200D02*
X118945160Y-77770295D01*
X118945160Y-77770295D02*
X119135636Y-77770295D01*
X119135636Y-77770295D02*
X119211826Y-77732200D01*
X119211826Y-77732200D02*
X119249922Y-77694104D01*
X118564207Y-76970295D02*
X118297540Y-77770295D01*
X118297540Y-77770295D02*
X118030874Y-76970295D01*
D10*
X164956609Y-73255523D02*
X165004228Y-73398380D01*
X165004228Y-73398380D02*
X165051847Y-73445999D01*
X165051847Y-73445999D02*
X165147085Y-73493618D01*
X165147085Y-73493618D02*
X165289942Y-73493618D01*
X165289942Y-73493618D02*
X165385180Y-73445999D01*
X165385180Y-73445999D02*
X165432800Y-73398380D01*
X165432800Y-73398380D02*
X165480419Y-73303142D01*
X165480419Y-73303142D02*
X165480419Y-72922190D01*
X165480419Y-72922190D02*
X164480419Y-72922190D01*
X164480419Y-72922190D02*
X164480419Y-73255523D01*
X164480419Y-73255523D02*
X164528038Y-73350761D01*
X164528038Y-73350761D02*
X164575657Y-73398380D01*
X164575657Y-73398380D02*
X164670895Y-73445999D01*
X164670895Y-73445999D02*
X164766133Y-73445999D01*
X164766133Y-73445999D02*
X164861371Y-73398380D01*
X164861371Y-73398380D02*
X164908990Y-73350761D01*
X164908990Y-73350761D02*
X164956609Y-73255523D01*
X164956609Y-73255523D02*
X164956609Y-72922190D01*
X164480419Y-73779333D02*
X164480419Y-74350761D01*
X165480419Y-74065047D02*
X164480419Y-74065047D01*
X165432800Y-74636476D02*
X165480419Y-74779333D01*
X165480419Y-74779333D02*
X165480419Y-75017428D01*
X165480419Y-75017428D02*
X165432800Y-75112666D01*
X165432800Y-75112666D02*
X165385180Y-75160285D01*
X165385180Y-75160285D02*
X165289942Y-75207904D01*
X165289942Y-75207904D02*
X165194704Y-75207904D01*
X165194704Y-75207904D02*
X165099466Y-75160285D01*
X165099466Y-75160285D02*
X165051847Y-75112666D01*
X165051847Y-75112666D02*
X165004228Y-75017428D01*
X165004228Y-75017428D02*
X164956609Y-74826952D01*
X164956609Y-74826952D02*
X164908990Y-74731714D01*
X164908990Y-74731714D02*
X164861371Y-74684095D01*
X164861371Y-74684095D02*
X164766133Y-74636476D01*
X164766133Y-74636476D02*
X164670895Y-74636476D01*
X164670895Y-74636476D02*
X164575657Y-74684095D01*
X164575657Y-74684095D02*
X164528038Y-74731714D01*
X164528038Y-74731714D02*
X164480419Y-74826952D01*
X164480419Y-74826952D02*
X164480419Y-75065047D01*
X164480419Y-75065047D02*
X164528038Y-75207904D01*
X164480419Y-75541238D02*
X164480419Y-76207904D01*
X164480419Y-76207904D02*
X165480419Y-75779333D01*
X165480419Y-76636476D02*
X165480419Y-76826952D01*
X165480419Y-76826952D02*
X165432800Y-76922190D01*
X165432800Y-76922190D02*
X165385180Y-76969809D01*
X165385180Y-76969809D02*
X165242323Y-77065047D01*
X165242323Y-77065047D02*
X165051847Y-77112666D01*
X165051847Y-77112666D02*
X164670895Y-77112666D01*
X164670895Y-77112666D02*
X164575657Y-77065047D01*
X164575657Y-77065047D02*
X164528038Y-77017428D01*
X164528038Y-77017428D02*
X164480419Y-76922190D01*
X164480419Y-76922190D02*
X164480419Y-76731714D01*
X164480419Y-76731714D02*
X164528038Y-76636476D01*
X164528038Y-76636476D02*
X164575657Y-76588857D01*
X164575657Y-76588857D02*
X164670895Y-76541238D01*
X164670895Y-76541238D02*
X164908990Y-76541238D01*
X164908990Y-76541238D02*
X165004228Y-76588857D01*
X165004228Y-76588857D02*
X165051847Y-76636476D01*
X165051847Y-76636476D02*
X165099466Y-76731714D01*
X165099466Y-76731714D02*
X165099466Y-76922190D01*
X165099466Y-76922190D02*
X165051847Y-77017428D01*
X165051847Y-77017428D02*
X165004228Y-77065047D01*
X165004228Y-77065047D02*
X164908990Y-77112666D01*
X164480419Y-77969809D02*
X164480419Y-77779333D01*
X164480419Y-77779333D02*
X164528038Y-77684095D01*
X164528038Y-77684095D02*
X164575657Y-77636476D01*
X164575657Y-77636476D02*
X164718514Y-77541238D01*
X164718514Y-77541238D02*
X164908990Y-77493619D01*
X164908990Y-77493619D02*
X165289942Y-77493619D01*
X165289942Y-77493619D02*
X165385180Y-77541238D01*
X165385180Y-77541238D02*
X165432800Y-77588857D01*
X165432800Y-77588857D02*
X165480419Y-77684095D01*
X165480419Y-77684095D02*
X165480419Y-77874571D01*
X165480419Y-77874571D02*
X165432800Y-77969809D01*
X165432800Y-77969809D02*
X165385180Y-78017428D01*
X165385180Y-78017428D02*
X165289942Y-78065047D01*
X165289942Y-78065047D02*
X165051847Y-78065047D01*
X165051847Y-78065047D02*
X164956609Y-78017428D01*
X164956609Y-78017428D02*
X164908990Y-77969809D01*
X164908990Y-77969809D02*
X164861371Y-77874571D01*
X164861371Y-77874571D02*
X164861371Y-77684095D01*
X164861371Y-77684095D02*
X164908990Y-77588857D01*
X164908990Y-77588857D02*
X164956609Y-77541238D01*
X164956609Y-77541238D02*
X165051847Y-77493619D01*
X164480419Y-78684095D02*
X164480419Y-78779333D01*
X164480419Y-78779333D02*
X164528038Y-78874571D01*
X164528038Y-78874571D02*
X164575657Y-78922190D01*
X164575657Y-78922190D02*
X164670895Y-78969809D01*
X164670895Y-78969809D02*
X164861371Y-79017428D01*
X164861371Y-79017428D02*
X165099466Y-79017428D01*
X165099466Y-79017428D02*
X165289942Y-78969809D01*
X165289942Y-78969809D02*
X165385180Y-78922190D01*
X165385180Y-78922190D02*
X165432800Y-78874571D01*
X165432800Y-78874571D02*
X165480419Y-78779333D01*
X165480419Y-78779333D02*
X165480419Y-78684095D01*
X165480419Y-78684095D02*
X165432800Y-78588857D01*
X165432800Y-78588857D02*
X165385180Y-78541238D01*
X165385180Y-78541238D02*
X165289942Y-78493619D01*
X165289942Y-78493619D02*
X165099466Y-78446000D01*
X165099466Y-78446000D02*
X164861371Y-78446000D01*
X164861371Y-78446000D02*
X164670895Y-78493619D01*
X164670895Y-78493619D02*
X164575657Y-78541238D01*
X164575657Y-78541238D02*
X164528038Y-78588857D01*
X164528038Y-78588857D02*
X164480419Y-78684095D01*
D11*
X116757220Y-110486819D02*
X116757220Y-109486819D01*
X116757220Y-109486819D02*
X116376268Y-109486819D01*
X116376268Y-109486819D02*
X116281030Y-109534438D01*
X116281030Y-109534438D02*
X116233411Y-109582057D01*
X116233411Y-109582057D02*
X116185792Y-109677295D01*
X116185792Y-109677295D02*
X116185792Y-109820152D01*
X116185792Y-109820152D02*
X116233411Y-109915390D01*
X116233411Y-109915390D02*
X116281030Y-109963009D01*
X116281030Y-109963009D02*
X116376268Y-110010628D01*
X116376268Y-110010628D02*
X116757220Y-110010628D01*
X115757220Y-110486819D02*
X115757220Y-109820152D01*
X115757220Y-109486819D02*
X115804839Y-109534438D01*
X115804839Y-109534438D02*
X115757220Y-109582057D01*
X115757220Y-109582057D02*
X115709601Y-109534438D01*
X115709601Y-109534438D02*
X115757220Y-109486819D01*
X115757220Y-109486819D02*
X115757220Y-109582057D01*
X114709602Y-110391580D02*
X114757221Y-110439200D01*
X114757221Y-110439200D02*
X114900078Y-110486819D01*
X114900078Y-110486819D02*
X114995316Y-110486819D01*
X114995316Y-110486819D02*
X115138173Y-110439200D01*
X115138173Y-110439200D02*
X115233411Y-110343961D01*
X115233411Y-110343961D02*
X115281030Y-110248723D01*
X115281030Y-110248723D02*
X115328649Y-110058247D01*
X115328649Y-110058247D02*
X115328649Y-109915390D01*
X115328649Y-109915390D02*
X115281030Y-109724914D01*
X115281030Y-109724914D02*
X115233411Y-109629676D01*
X115233411Y-109629676D02*
X115138173Y-109534438D01*
X115138173Y-109534438D02*
X114995316Y-109486819D01*
X114995316Y-109486819D02*
X114900078Y-109486819D01*
X114900078Y-109486819D02*
X114757221Y-109534438D01*
X114757221Y-109534438D02*
X114709602Y-109582057D01*
X114090554Y-109486819D02*
X113900078Y-109486819D01*
X113900078Y-109486819D02*
X113804840Y-109534438D01*
X113804840Y-109534438D02*
X113709602Y-109629676D01*
X113709602Y-109629676D02*
X113661983Y-109820152D01*
X113661983Y-109820152D02*
X113661983Y-110153485D01*
X113661983Y-110153485D02*
X113709602Y-110343961D01*
X113709602Y-110343961D02*
X113804840Y-110439200D01*
X113804840Y-110439200D02*
X113900078Y-110486819D01*
X113900078Y-110486819D02*
X114090554Y-110486819D01*
X114090554Y-110486819D02*
X114185792Y-110439200D01*
X114185792Y-110439200D02*
X114281030Y-110343961D01*
X114281030Y-110343961D02*
X114328649Y-110153485D01*
X114328649Y-110153485D02*
X114328649Y-109820152D01*
X114328649Y-109820152D02*
X114281030Y-109629676D01*
X114281030Y-109629676D02*
X114185792Y-109534438D01*
X114185792Y-109534438D02*
X114090554Y-109486819D01*
X111947697Y-109534438D02*
X112042935Y-109486819D01*
X112042935Y-109486819D02*
X112185792Y-109486819D01*
X112185792Y-109486819D02*
X112328649Y-109534438D01*
X112328649Y-109534438D02*
X112423887Y-109629676D01*
X112423887Y-109629676D02*
X112471506Y-109724914D01*
X112471506Y-109724914D02*
X112519125Y-109915390D01*
X112519125Y-109915390D02*
X112519125Y-110058247D01*
X112519125Y-110058247D02*
X112471506Y-110248723D01*
X112471506Y-110248723D02*
X112423887Y-110343961D01*
X112423887Y-110343961D02*
X112328649Y-110439200D01*
X112328649Y-110439200D02*
X112185792Y-110486819D01*
X112185792Y-110486819D02*
X112090554Y-110486819D01*
X112090554Y-110486819D02*
X111947697Y-110439200D01*
X111947697Y-110439200D02*
X111900078Y-110391580D01*
X111900078Y-110391580D02*
X111900078Y-110058247D01*
X111900078Y-110058247D02*
X112090554Y-110058247D01*
X111138173Y-109963009D02*
X110995316Y-110010628D01*
X110995316Y-110010628D02*
X110947697Y-110058247D01*
X110947697Y-110058247D02*
X110900078Y-110153485D01*
X110900078Y-110153485D02*
X110900078Y-110296342D01*
X110900078Y-110296342D02*
X110947697Y-110391580D01*
X110947697Y-110391580D02*
X110995316Y-110439200D01*
X110995316Y-110439200D02*
X111090554Y-110486819D01*
X111090554Y-110486819D02*
X111471506Y-110486819D01*
X111471506Y-110486819D02*
X111471506Y-109486819D01*
X111471506Y-109486819D02*
X111138173Y-109486819D01*
X111138173Y-109486819D02*
X111042935Y-109534438D01*
X111042935Y-109534438D02*
X110995316Y-109582057D01*
X110995316Y-109582057D02*
X110947697Y-109677295D01*
X110947697Y-109677295D02*
X110947697Y-109772533D01*
X110947697Y-109772533D02*
X110995316Y-109867771D01*
X110995316Y-109867771D02*
X111042935Y-109915390D01*
X111042935Y-109915390D02*
X111138173Y-109963009D01*
X111138173Y-109963009D02*
X111471506Y-109963009D01*
X109947697Y-109534438D02*
X110042935Y-109486819D01*
X110042935Y-109486819D02*
X110185792Y-109486819D01*
X110185792Y-109486819D02*
X110328649Y-109534438D01*
X110328649Y-109534438D02*
X110423887Y-109629676D01*
X110423887Y-109629676D02*
X110471506Y-109724914D01*
X110471506Y-109724914D02*
X110519125Y-109915390D01*
X110519125Y-109915390D02*
X110519125Y-110058247D01*
X110519125Y-110058247D02*
X110471506Y-110248723D01*
X110471506Y-110248723D02*
X110423887Y-110343961D01*
X110423887Y-110343961D02*
X110328649Y-110439200D01*
X110328649Y-110439200D02*
X110185792Y-110486819D01*
X110185792Y-110486819D02*
X110090554Y-110486819D01*
X110090554Y-110486819D02*
X109947697Y-110439200D01*
X109947697Y-110439200D02*
X109900078Y-110391580D01*
X109900078Y-110391580D02*
X109900078Y-110058247D01*
X109900078Y-110058247D02*
X110090554Y-110058247D01*
X109471506Y-110486819D02*
X109471506Y-109486819D01*
X109471506Y-109486819D02*
X109138173Y-110201104D01*
X109138173Y-110201104D02*
X108804840Y-109486819D01*
X108804840Y-109486819D02*
X108804840Y-110486819D01*
X107709601Y-109486819D02*
X107376268Y-110486819D01*
X107376268Y-110486819D02*
X107042935Y-109486819D01*
X106185792Y-110486819D02*
X106757220Y-110486819D01*
X106471506Y-110486819D02*
X106471506Y-109486819D01*
X106471506Y-109486819D02*
X106566744Y-109629676D01*
X106566744Y-109629676D02*
X106661982Y-109724914D01*
X106661982Y-109724914D02*
X106757220Y-109772533D01*
X105757220Y-110391580D02*
X105709601Y-110439200D01*
X105709601Y-110439200D02*
X105757220Y-110486819D01*
X105757220Y-110486819D02*
X105804839Y-110439200D01*
X105804839Y-110439200D02*
X105757220Y-110391580D01*
X105757220Y-110391580D02*
X105757220Y-110486819D01*
X105090554Y-109486819D02*
X104995316Y-109486819D01*
X104995316Y-109486819D02*
X104900078Y-109534438D01*
X104900078Y-109534438D02*
X104852459Y-109582057D01*
X104852459Y-109582057D02*
X104804840Y-109677295D01*
X104804840Y-109677295D02*
X104757221Y-109867771D01*
X104757221Y-109867771D02*
X104757221Y-110105866D01*
X104757221Y-110105866D02*
X104804840Y-110296342D01*
X104804840Y-110296342D02*
X104852459Y-110391580D01*
X104852459Y-110391580D02*
X104900078Y-110439200D01*
X104900078Y-110439200D02*
X104995316Y-110486819D01*
X104995316Y-110486819D02*
X105090554Y-110486819D01*
X105090554Y-110486819D02*
X105185792Y-110439200D01*
X105185792Y-110439200D02*
X105233411Y-110391580D01*
X105233411Y-110391580D02*
X105281030Y-110296342D01*
X105281030Y-110296342D02*
X105328649Y-110105866D01*
X105328649Y-110105866D02*
X105328649Y-109867771D01*
X105328649Y-109867771D02*
X105281030Y-109677295D01*
X105281030Y-109677295D02*
X105233411Y-109582057D01*
X105233411Y-109582057D02*
X105185792Y-109534438D01*
X105185792Y-109534438D02*
X105090554Y-109486819D01*
D12*
X112043787Y-90638869D02*
X111424740Y-90638869D01*
X111424740Y-90638869D02*
X111758073Y-91019821D01*
X111758073Y-91019821D02*
X111615216Y-91019821D01*
X111615216Y-91019821D02*
X111519978Y-91067440D01*
X111519978Y-91067440D02*
X111472359Y-91115059D01*
X111472359Y-91115059D02*
X111424740Y-91210297D01*
X111424740Y-91210297D02*
X111424740Y-91448392D01*
X111424740Y-91448392D02*
X111472359Y-91543630D01*
X111472359Y-91543630D02*
X111519978Y-91591250D01*
X111519978Y-91591250D02*
X111615216Y-91638869D01*
X111615216Y-91638869D02*
X111900930Y-91638869D01*
X111900930Y-91638869D02*
X111996168Y-91591250D01*
X111996168Y-91591250D02*
X112043787Y-91543630D01*
X110805692Y-90638869D02*
X110710454Y-90638869D01*
X110710454Y-90638869D02*
X110615216Y-90686488D01*
X110615216Y-90686488D02*
X110567597Y-90734107D01*
X110567597Y-90734107D02*
X110519978Y-90829345D01*
X110519978Y-90829345D02*
X110472359Y-91019821D01*
X110472359Y-91019821D02*
X110472359Y-91257916D01*
X110472359Y-91257916D02*
X110519978Y-91448392D01*
X110519978Y-91448392D02*
X110567597Y-91543630D01*
X110567597Y-91543630D02*
X110615216Y-91591250D01*
X110615216Y-91591250D02*
X110710454Y-91638869D01*
X110710454Y-91638869D02*
X110805692Y-91638869D01*
X110805692Y-91638869D02*
X110900930Y-91591250D01*
X110900930Y-91591250D02*
X110948549Y-91543630D01*
X110948549Y-91543630D02*
X110996168Y-91448392D01*
X110996168Y-91448392D02*
X111043787Y-91257916D01*
X111043787Y-91257916D02*
X111043787Y-91019821D01*
X111043787Y-91019821D02*
X110996168Y-90829345D01*
X110996168Y-90829345D02*
X110948549Y-90734107D01*
X110948549Y-90734107D02*
X110900930Y-90686488D01*
X110900930Y-90686488D02*
X110805692Y-90638869D01*
X109519978Y-91638869D02*
X110091406Y-91638869D01*
X109805692Y-91638869D02*
X109805692Y-90638869D01*
X109805692Y-90638869D02*
X109900930Y-90781726D01*
X109900930Y-90781726D02*
X109996168Y-90876964D01*
X109996168Y-90876964D02*
X110091406Y-90924583D01*
X111519978Y-93512202D02*
X111519978Y-94178869D01*
X111758073Y-93131250D02*
X111996168Y-93845535D01*
X111996168Y-93845535D02*
X111377121Y-93845535D01*
X110805692Y-93178869D02*
X110710454Y-93178869D01*
X110710454Y-93178869D02*
X110615216Y-93226488D01*
X110615216Y-93226488D02*
X110567597Y-93274107D01*
X110567597Y-93274107D02*
X110519978Y-93369345D01*
X110519978Y-93369345D02*
X110472359Y-93559821D01*
X110472359Y-93559821D02*
X110472359Y-93797916D01*
X110472359Y-93797916D02*
X110519978Y-93988392D01*
X110519978Y-93988392D02*
X110567597Y-94083630D01*
X110567597Y-94083630D02*
X110615216Y-94131250D01*
X110615216Y-94131250D02*
X110710454Y-94178869D01*
X110710454Y-94178869D02*
X110805692Y-94178869D01*
X110805692Y-94178869D02*
X110900930Y-94131250D01*
X110900930Y-94131250D02*
X110948549Y-94083630D01*
X110948549Y-94083630D02*
X110996168Y-93988392D01*
X110996168Y-93988392D02*
X111043787Y-93797916D01*
X111043787Y-93797916D02*
X111043787Y-93559821D01*
X111043787Y-93559821D02*
X110996168Y-93369345D01*
X110996168Y-93369345D02*
X110948549Y-93274107D01*
X110948549Y-93274107D02*
X110900930Y-93226488D01*
X110900930Y-93226488D02*
X110805692Y-93178869D01*
X109519978Y-94178869D02*
X110091406Y-94178869D01*
X109805692Y-94178869D02*
X109805692Y-93178869D01*
X109805692Y-93178869D02*
X109900930Y-93321726D01*
X109900930Y-93321726D02*
X109996168Y-93416964D01*
X109996168Y-93416964D02*
X110091406Y-93464583D01*
X111472359Y-95718869D02*
X111948549Y-95718869D01*
X111948549Y-95718869D02*
X111996168Y-96195059D01*
X111996168Y-96195059D02*
X111948549Y-96147440D01*
X111948549Y-96147440D02*
X111853311Y-96099821D01*
X111853311Y-96099821D02*
X111615216Y-96099821D01*
X111615216Y-96099821D02*
X111519978Y-96147440D01*
X111519978Y-96147440D02*
X111472359Y-96195059D01*
X111472359Y-96195059D02*
X111424740Y-96290297D01*
X111424740Y-96290297D02*
X111424740Y-96528392D01*
X111424740Y-96528392D02*
X111472359Y-96623630D01*
X111472359Y-96623630D02*
X111519978Y-96671250D01*
X111519978Y-96671250D02*
X111615216Y-96718869D01*
X111615216Y-96718869D02*
X111853311Y-96718869D01*
X111853311Y-96718869D02*
X111948549Y-96671250D01*
X111948549Y-96671250D02*
X111996168Y-96623630D01*
X110805692Y-95718869D02*
X110710454Y-95718869D01*
X110710454Y-95718869D02*
X110615216Y-95766488D01*
X110615216Y-95766488D02*
X110567597Y-95814107D01*
X110567597Y-95814107D02*
X110519978Y-95909345D01*
X110519978Y-95909345D02*
X110472359Y-96099821D01*
X110472359Y-96099821D02*
X110472359Y-96337916D01*
X110472359Y-96337916D02*
X110519978Y-96528392D01*
X110519978Y-96528392D02*
X110567597Y-96623630D01*
X110567597Y-96623630D02*
X110615216Y-96671250D01*
X110615216Y-96671250D02*
X110710454Y-96718869D01*
X110710454Y-96718869D02*
X110805692Y-96718869D01*
X110805692Y-96718869D02*
X110900930Y-96671250D01*
X110900930Y-96671250D02*
X110948549Y-96623630D01*
X110948549Y-96623630D02*
X110996168Y-96528392D01*
X110996168Y-96528392D02*
X111043787Y-96337916D01*
X111043787Y-96337916D02*
X111043787Y-96099821D01*
X111043787Y-96099821D02*
X110996168Y-95909345D01*
X110996168Y-95909345D02*
X110948549Y-95814107D01*
X110948549Y-95814107D02*
X110900930Y-95766488D01*
X110900930Y-95766488D02*
X110805692Y-95718869D01*
X109519978Y-96718869D02*
X110091406Y-96718869D01*
X109805692Y-96718869D02*
X109805692Y-95718869D01*
X109805692Y-95718869D02*
X109900930Y-95861726D01*
X109900930Y-95861726D02*
X109996168Y-95956964D01*
X109996168Y-95956964D02*
X110091406Y-96004583D01*
X112003874Y-88206086D02*
X111956255Y-88158467D01*
X111956255Y-88158467D02*
X111861017Y-88110848D01*
X111861017Y-88110848D02*
X111622922Y-88110848D01*
X111622922Y-88110848D02*
X111527684Y-88158467D01*
X111527684Y-88158467D02*
X111480065Y-88206086D01*
X111480065Y-88206086D02*
X111432446Y-88301324D01*
X111432446Y-88301324D02*
X111432446Y-88396562D01*
X111432446Y-88396562D02*
X111480065Y-88539419D01*
X111480065Y-88539419D02*
X112051493Y-89110848D01*
X112051493Y-89110848D02*
X111432446Y-89110848D01*
X110813398Y-88110848D02*
X110718160Y-88110848D01*
X110718160Y-88110848D02*
X110622922Y-88158467D01*
X110622922Y-88158467D02*
X110575303Y-88206086D01*
X110575303Y-88206086D02*
X110527684Y-88301324D01*
X110527684Y-88301324D02*
X110480065Y-88491800D01*
X110480065Y-88491800D02*
X110480065Y-88729895D01*
X110480065Y-88729895D02*
X110527684Y-88920371D01*
X110527684Y-88920371D02*
X110575303Y-89015609D01*
X110575303Y-89015609D02*
X110622922Y-89063229D01*
X110622922Y-89063229D02*
X110718160Y-89110848D01*
X110718160Y-89110848D02*
X110813398Y-89110848D01*
X110813398Y-89110848D02*
X110908636Y-89063229D01*
X110908636Y-89063229D02*
X110956255Y-89015609D01*
X110956255Y-89015609D02*
X111003874Y-88920371D01*
X111003874Y-88920371D02*
X111051493Y-88729895D01*
X111051493Y-88729895D02*
X111051493Y-88491800D01*
X111051493Y-88491800D02*
X111003874Y-88301324D01*
X111003874Y-88301324D02*
X110956255Y-88206086D01*
X110956255Y-88206086D02*
X110908636Y-88158467D01*
X110908636Y-88158467D02*
X110813398Y-88110848D01*
X109527684Y-89110848D02*
X110099112Y-89110848D01*
X109813398Y-89110848D02*
X109813398Y-88110848D01*
X109813398Y-88110848D02*
X109908636Y-88253705D01*
X109908636Y-88253705D02*
X110003874Y-88348943D01*
X110003874Y-88348943D02*
X110099112Y-88396562D01*
%TO.C,JP501*%
D13*
X112310000Y-95966000D02*
X112310000Y-96566000D01*
X113010000Y-97266000D02*
X114410000Y-97266000D01*
X114410000Y-95266000D02*
X113010000Y-95266000D01*
X115110000Y-96566000D02*
X115110000Y-95966000D01*
X112310000Y-95966000D02*
G75*
G02*
X113010000Y-95266000I699999J1D01*
G01*
X113010000Y-97266000D02*
G75*
G02*
X112310000Y-96566000I-1J699999D01*
G01*
X114410000Y-95266000D02*
G75*
G02*
X115110000Y-95966000I0J-700000D01*
G01*
X115110000Y-96566000D02*
G75*
G02*
X114410000Y-97266000I-700000J0D01*
G01*
%TO.C,U102*%
X165912000Y-70886000D02*
X170951999Y-70886000D01*
X165912001Y-81006000D02*
X165912000Y-70886000D01*
X167592001Y-80646000D02*
X167592001Y-81006000D01*
X167592001Y-81006000D02*
X165912001Y-81006000D01*
X169272000Y-80646000D02*
X167592001Y-80646000D01*
X169272000Y-81006000D02*
X169272000Y-80646000D01*
X170951999Y-70886000D02*
X170952000Y-81006000D01*
X170952000Y-81006000D02*
X169272000Y-81006000D01*
D11*
X170507000Y-80446000D02*
G75*
G02*
X170357000Y-80446000I-75000J0D01*
G01*
X170357000Y-80446000D02*
G75*
G02*
X170507000Y-80446000I75000J0D01*
G01*
%TO.C,JP201*%
D13*
X112310000Y-88346000D02*
X112310000Y-88946000D01*
X113010000Y-89646000D02*
X114410000Y-89646000D01*
X114410000Y-87646000D02*
X113010000Y-87646000D01*
X115110000Y-88946000D02*
X115110000Y-88346000D01*
X112310000Y-88346000D02*
G75*
G02*
X113010000Y-87646000I699999J1D01*
G01*
X113010000Y-89646000D02*
G75*
G02*
X112310000Y-88946000I-1J699999D01*
G01*
X114410000Y-87646000D02*
G75*
G02*
X115110000Y-88346000I0J-700000D01*
G01*
X115110000Y-88946000D02*
G75*
G02*
X114410000Y-89646000I-700000J0D01*
G01*
%TO.C,JP301*%
X112310000Y-90886000D02*
X112310000Y-91486000D01*
X113010000Y-92186000D02*
X114410000Y-92186000D01*
X114410000Y-90186000D02*
X113010000Y-90186000D01*
X115110000Y-91486000D02*
X115110000Y-90886000D01*
X112310000Y-90886000D02*
G75*
G02*
X113010000Y-90186000I699999J1D01*
G01*
X113010000Y-92186000D02*
G75*
G02*
X112310000Y-91486000I-1J699999D01*
G01*
X114410000Y-90186000D02*
G75*
G02*
X115110000Y-90886000I0J-700000D01*
G01*
X115110000Y-91486000D02*
G75*
G02*
X114410000Y-92186000I-700000J0D01*
G01*
%TO.C,JP401*%
X112310000Y-93426000D02*
X112310000Y-94026000D01*
X113010000Y-94726000D02*
X114410000Y-94726000D01*
X114410000Y-92726000D02*
X113010000Y-92726000D01*
X115110000Y-94026000D02*
X115110000Y-93426000D01*
X112310000Y-93426000D02*
G75*
G02*
X113010000Y-92726000I699999J1D01*
G01*
X113010000Y-94726000D02*
G75*
G02*
X112310000Y-94026000I-1J699999D01*
G01*
X114410000Y-92726000D02*
G75*
G02*
X115110000Y-93426000I0J-700000D01*
G01*
X115110000Y-94026000D02*
G75*
G02*
X114410000Y-94726000I-700000J0D01*
G01*
%TD*%
M02*
