%TF.GenerationSoftware,KiCad,Pcbnew,10.0.3*%
%TF.CreationDate,2026-10-01T01:11:43-06:00*%
%TF.ProjectId,GBG_Motors,4742475f-4d6f-4746-9f72-732e6b696361,rev?*%
%TF.SameCoordinates,Original*%
%TF.FileFunction,Copper,L2,Bot*%
%TF.FilePolarity,Positive*%
%FSLAX46Y46*%
G04 Gerber Fmt 4.6, Leading zero omitted, Abs format (unit mm)*
G04 Created by KiCad (PCBNEW 10.0.3) date 2026-10-01 01:11:43*
%MOMM*%
%LPD*%
G01*
G04 APERTURE LIST*
G04 Aperture macros list*
%AMRoundRect*
0 Rectangle with rounded corners*
0 $1 Rounding radius*
0 $2 $3 $4 $5 $6 $7 $8 $9 X,Y pos of 4 corners*
0 Add a 4 corners polygon primitive as box body*
4,1,4,$2,$3,$4,$5,$6,$7,$8,$9,$2,$3,0*
0 Add four circle primitives for the rounded corners*
1,1,$1+$1,$2,$3*
1,1,$1+$1,$4,$5*
1,1,$1+$1,$6,$7*
1,1,$1+$1,$8,$9*
0 Add four rect primitives between the rounded corners*
20,1,$1+$1,$2,$3,$4,$5,0*
20,1,$1+$1,$4,$5,$6,$7,0*
20,1,$1+$1,$6,$7,$8,$9,0*
20,1,$1+$1,$8,$9,$2,$3,0*%
%AMFreePoly0*
4,1,23,0.500000,-0.750000,0.000000,-0.750000,0.000000,-0.745722,-0.065263,-0.745722,-0.191342,-0.711940,-0.304381,-0.646677,-0.396677,-0.554381,-0.461940,-0.441342,-0.495722,-0.315263,-0.495722,-0.250000,-0.500000,-0.250000,-0.500000,0.250000,-0.495722,0.250000,-0.495722,0.315263,-0.461940,0.441342,-0.396677,0.554381,-0.304381,0.646677,-0.191342,0.711940,-0.065263,0.745722,0.000000,0.745722,
0.000000,0.750000,0.500000,0.750000,0.500000,-0.750000,0.500000,-0.750000,$1*%
%AMFreePoly1*
4,1,23,0.000000,0.745722,0.065263,0.745722,0.191342,0.711940,0.304381,0.646677,0.396677,0.554381,0.461940,0.441342,0.495722,0.315263,0.495722,0.250000,0.500000,0.250000,0.500000,-0.250000,0.495722,-0.250000,0.495722,-0.315263,0.461940,-0.441342,0.396677,-0.554381,0.304381,-0.646677,0.191342,-0.711940,0.065263,-0.745722,0.000000,-0.745722,0.000000,-0.750000,-0.500000,-0.750000,
-0.500000,0.750000,0.000000,0.750000,0.000000,0.745722,0.000000,0.745722,$1*%
G04 Aperture macros list end*
%TA.AperFunction,EtchedComponent*%
%ADD10C,0.000000*%
%TD*%
%TA.AperFunction,ComponentPad*%
%ADD11R,1.700000X1.700000*%
%TD*%
%TA.AperFunction,ComponentPad*%
%ADD12C,1.700000*%
%TD*%
%TA.AperFunction,ComponentPad*%
%ADD13R,2.300000X1.500000*%
%TD*%
%TA.AperFunction,ComponentPad*%
%ADD14O,2.300000X1.500000*%
%TD*%
%TA.AperFunction,ComponentPad*%
%ADD15C,1.600000*%
%TD*%
%TA.AperFunction,ComponentPad*%
%ADD16R,1.500000X1.500000*%
%TD*%
%TA.AperFunction,ComponentPad*%
%ADD17C,1.500000*%
%TD*%
%TA.AperFunction,ComponentPad*%
%ADD18RoundRect,0.250000X0.550000X0.550000X-0.550000X0.550000X-0.550000X-0.550000X0.550000X-0.550000X0*%
%TD*%
%TA.AperFunction,ComponentPad*%
%ADD19RoundRect,0.250000X-0.550000X-0.550000X0.550000X-0.550000X0.550000X0.550000X-0.550000X0.550000X0*%
%TD*%
%TA.AperFunction,SMDPad,CuDef*%
%ADD20FreePoly0,0.000000*%
%TD*%
%TA.AperFunction,SMDPad,CuDef*%
%ADD21FreePoly1,0.000000*%
%TD*%
%TA.AperFunction,ViaPad*%
%ADD22C,0.600000*%
%TD*%
%TA.AperFunction,Conductor*%
%ADD23C,1.000000*%
%TD*%
%TA.AperFunction,Conductor*%
%ADD24C,0.200000*%
%TD*%
G04 APERTURE END LIST*
D10*
%TA.AperFunction,EtchedComponent*%
%TO.C,JP501*%
G36*
X113960000Y-96566000D02*
G01*
X113460000Y-96566000D01*
X113460000Y-95966000D01*
X113960000Y-95966000D01*
X113960000Y-96566000D01*
G37*
%TD.AperFunction*%
%TA.AperFunction,EtchedComponent*%
%TO.C,JP201*%
G36*
X113960000Y-88946000D02*
G01*
X113460000Y-88946000D01*
X113460000Y-88346000D01*
X113960000Y-88346000D01*
X113960000Y-88946000D01*
G37*
%TD.AperFunction*%
%TA.AperFunction,EtchedComponent*%
%TO.C,JP301*%
G36*
X113960000Y-91486000D02*
G01*
X113460000Y-91486000D01*
X113460000Y-90886000D01*
X113960000Y-90886000D01*
X113960000Y-91486000D01*
G37*
%TD.AperFunction*%
%TA.AperFunction,EtchedComponent*%
%TO.C,JP401*%
G36*
X113960000Y-94026000D02*
G01*
X113460000Y-94026000D01*
X113460000Y-93426000D01*
X113960000Y-93426000D01*
X113960000Y-94026000D01*
G37*
%TD.AperFunction*%
%TD*%
D11*
%TO.P,J106,1,Pin_1_1*%
%TO.N,+5V*%
X117856000Y-80772000D03*
D12*
%TO.P,J106,2,Pin_2_2*%
%TO.N,VDD*%
X117856000Y-78232000D03*
%TO.P,J106,3,Pin_3_3*%
%TO.N,unconnected-(J106-Pin_3-Pad3)*%
X117856000Y-75692000D03*
%TD*%
D13*
%TO.P,U103,1,IN_1*%
%TO.N,VDD*%
X111868500Y-74260500D03*
D14*
%TO.P,U103,2,GND_2*%
%TO.N,GND*%
X111868500Y-76800500D03*
%TO.P,U103,3,OUT_3*%
%TO.N,+5V*%
X111868500Y-79340500D03*
%TD*%
D15*
%TO.P,R201,1*%
%TO.N,H*%
X108488000Y-88646000D03*
%TO.P,R201,2*%
%TO.N,Hs*%
X116108000Y-88646000D03*
%TD*%
D16*
%TO.P,Q601,1,C_1*%
%TO.N,Net-(Q601-C)*%
X147604000Y-104902000D03*
D17*
%TO.P,Q601,2,B_2*%
%TO.N,Net-(Q601-B)*%
X150144000Y-107442000D03*
%TO.P,Q601,3,E_3*%
%TO.N,GND*%
X147604000Y-109982000D03*
%TD*%
D15*
%TO.P,R603,1*%
%TO.N,Net-(C601-Pad2)*%
X157759000Y-92202000D03*
%TO.P,R603,2*%
%TO.N,GND*%
X157759000Y-99822000D03*
%TD*%
%TO.P,R702,1*%
%TO.N,LRi*%
X138968000Y-78994000D03*
%TO.P,R702,2*%
%TO.N,GND*%
X138968000Y-71374000D03*
%TD*%
%TO.P,C602,1*%
%TO.N,Net-(U601-DISCH)*%
X131851000Y-99762000D03*
%TO.P,C602,2*%
%TO.N,GND*%
X131851000Y-92262000D03*
%TD*%
%TO.P,R401,1*%
%TO.N,K*%
X108488000Y-93726000D03*
%TO.P,R401,2*%
%TO.N,Ks*%
X116108000Y-93726000D03*
%TD*%
D18*
%TO.P,U601,1,GND_1*%
%TO.N,GND*%
X143281000Y-107442000D03*
D15*
%TO.P,U601,2,TRIG_2*%
%TO.N,Net-(Q601-C)*%
X143281000Y-104902000D03*
%TO.P,U601,3,OUT_3*%
%TO.N,Net-(JP603-A)*%
X143281000Y-102362000D03*
%TO.P,U601,4,~{RST}_4*%
%TO.N,+5V*%
X143281000Y-99822000D03*
%TO.P,U601,5,CONT_5*%
%TO.N,unconnected-(U601-CONT-Pad5)*%
X135661000Y-99822000D03*
%TO.P,U601,6,THRES_6*%
%TO.N,Net-(U601-DISCH)*%
X135661000Y-102362000D03*
%TO.P,U601,7,DISCH_7*%
X135661000Y-104902000D03*
%TO.P,U601,8,VCC_8*%
%TO.N,+5V*%
X135661000Y-107442000D03*
%TD*%
%TO.P,R704,1*%
%TO.N,Net-(C701-Pad2)*%
X142524000Y-89154000D03*
%TO.P,R704,2*%
%TO.N,Net-(Q701-B)*%
X142524000Y-81534000D03*
%TD*%
D11*
%TO.P,J701,1,Pin_1_1*%
%TO.N,Vout*%
X125506000Y-73152000D03*
D12*
%TO.P,J701,2,Pin_2_2*%
%TO.N,Ls*%
X125506000Y-75692000D03*
%TO.P,J701,3,Pin_3_3*%
%TO.N,/HLBlockerL/input_limited*%
X125506000Y-78232000D03*
%TO.P,J701,4,Pin_4_4*%
%TO.N,GND*%
X125506000Y-80772000D03*
%TD*%
D15*
%TO.P,R604,1*%
%TO.N,Net-(C601-Pad2)*%
X150652000Y-92202000D03*
%TO.P,R604,2*%
%TO.N,Net-(Q601-B)*%
X150652000Y-99822000D03*
%TD*%
%TO.P,R202,1*%
%TO.N,GND*%
X126268000Y-88646000D03*
%TO.P,R202,2*%
%TO.N,Hs*%
X118648000Y-88646000D03*
%TD*%
%TO.P,R703,1*%
%TO.N,Net-(C701-Pad2)*%
X135417000Y-89154000D03*
%TO.P,R703,2*%
%TO.N,GND*%
X135417000Y-81534000D03*
%TD*%
%TO.P,R602,1*%
%TO.N,HRi*%
X154208000Y-102362000D03*
%TO.P,R602,2*%
%TO.N,GND*%
X154208000Y-109982000D03*
%TD*%
D11*
%TO.P,J102,1,Pin_1_1*%
%TO.N,HRo*%
X125506000Y-84836000D03*
D12*
%TO.P,J102,2,Pin_2_2*%
%TO.N,HRi*%
X122966000Y-84836000D03*
%TO.P,J102,3,Pin_3_3*%
%TO.N,JRo*%
X120426000Y-84836000D03*
%TO.P,J102,4,Pin_4_4*%
%TO.N,JRi*%
X117886000Y-84836000D03*
%TO.P,J102,5,Pin_5_5*%
%TO.N,KRo*%
X115346000Y-84836000D03*
%TO.P,J102,6,Pin_6_6*%
%TO.N,KRi*%
X112806000Y-84836000D03*
%TO.P,J102,7,Pin_7_7*%
%TO.N,unconnected-(J102-Pin_7-Pad7)*%
X110266000Y-84836000D03*
%TD*%
D15*
%TO.P,R607,1*%
%TO.N,+5V*%
X131856000Y-109982000D03*
%TO.P,R607,2*%
%TO.N,Net-(U601-DISCH)*%
X131856000Y-102362000D03*
%TD*%
%TO.P,R501,1*%
%TO.N,L*%
X108488000Y-96266000D03*
%TO.P,R501,2*%
%TO.N,Ls*%
X116108000Y-96266000D03*
%TD*%
D11*
%TO.P,J101,1,Pin_1_1*%
%TO.N,Vout*%
X103916000Y-84328000D03*
D12*
%TO.P,J101,2,Pin_2_2*%
%TO.N,H*%
X103916000Y-86868000D03*
%TO.P,J101,3,Pin_3_3*%
%TO.N,J*%
X103916000Y-89408000D03*
%TO.P,J101,4,Pin_4_4*%
%TO.N,K*%
X103916000Y-91948000D03*
%TO.P,J101,5,Pin_5_5*%
%TO.N,L*%
X103916000Y-94488000D03*
%TO.P,J101,6,Pin_6_6*%
%TO.N,GND*%
X103916000Y-97028000D03*
%TD*%
D15*
%TO.P,R302,1*%
%TO.N,GND*%
X126268000Y-91186000D03*
%TO.P,R302,2*%
%TO.N,Js*%
X118648000Y-91186000D03*
%TD*%
%TO.P,R706,1*%
%TO.N,+5V*%
X161320000Y-71374000D03*
%TO.P,R706,2*%
%TO.N,Net-(U701-DISCH)*%
X161320000Y-78994000D03*
%TD*%
D11*
%TO.P,J105,1,Pin_1_1*%
%TO.N,Vout*%
X105948000Y-104648000D03*
D12*
%TO.P,J105,2,Pin_2_2*%
%TO.N,GND*%
X105948000Y-107188000D03*
%TD*%
D11*
%TO.P,J103,1,Pin_1_1*%
%TO.N,+5V*%
X125506000Y-100076000D03*
D12*
%TO.P,J103,2,Pin_2_2*%
%TO.N,GND*%
X122966000Y-100076000D03*
%TO.P,J103,3,Pin_3_3*%
%TO.N,unconnected-(J103-Pin_3-Pad3)*%
X120426000Y-100076000D03*
%TO.P,J103,4,Pin_4_4*%
%TO.N,unconnected-(J103-Pin_4-Pad4)*%
X117886000Y-100076000D03*
%TO.P,J103,5,Pin_5_5*%
%TO.N,LRi*%
X115346000Y-100076000D03*
%TO.P,J103,6,Pin_6_6*%
%TO.N,LRo*%
X112806000Y-100076000D03*
%TO.P,J103,7,Pin_7_7*%
%TO.N,unconnected-(J103-Pin_7-Pad7)*%
X110266000Y-100076000D03*
%TD*%
D16*
%TO.P,Q701,1,C_1*%
%TO.N,Net-(Q701-C)*%
X145572000Y-76454000D03*
D17*
%TO.P,Q701,2,B_2*%
%TO.N,Net-(Q701-B)*%
X143032000Y-73914000D03*
%TO.P,Q701,3,E_3*%
%TO.N,GND*%
X145572000Y-71374000D03*
%TD*%
D15*
%TO.P,R601,1*%
%TO.N,/HLBlockerH/input_limited*%
X161320000Y-92202000D03*
%TO.P,R601,2*%
%TO.N,GND*%
X161320000Y-99822000D03*
%TD*%
D19*
%TO.P,U701,1,GND_1*%
%TO.N,GND*%
X149895000Y-73914000D03*
D15*
%TO.P,U701,2,TRIG_2*%
%TO.N,Net-(Q701-C)*%
X149895000Y-76454000D03*
%TO.P,U701,3,OUT_3*%
%TO.N,Net-(JP703-A)*%
X149895000Y-78994000D03*
%TO.P,U701,4,~{RST}_4*%
%TO.N,+5V*%
X149895000Y-81534000D03*
%TO.P,U701,5,CONT_5*%
%TO.N,unconnected-(U701-CONT-Pad5)*%
X157515000Y-81534000D03*
%TO.P,U701,6,THRES_6*%
%TO.N,Net-(U701-DISCH)*%
X157515000Y-78994000D03*
%TO.P,U701,7,DISCH_7*%
X157515000Y-76454000D03*
%TO.P,U701,8,VCC_8*%
%TO.N,+5V*%
X157515000Y-73914000D03*
%TD*%
%TO.P,C601,1*%
%TO.N,HRi*%
X154208000Y-99702000D03*
%TO.P,C601,2*%
%TO.N,Net-(C601-Pad2)*%
X154208000Y-92202000D03*
%TD*%
%TO.P,R301,1*%
%TO.N,J*%
X108488000Y-91186000D03*
%TO.P,R301,2*%
%TO.N,Js*%
X116108000Y-91186000D03*
%TD*%
D11*
%TO.P,J601,1,Pin_1_1*%
%TO.N,Vout*%
X121950000Y-73152000D03*
D12*
%TO.P,J601,2,Pin_2_2*%
%TO.N,Hs*%
X121950000Y-75692000D03*
%TO.P,J601,3,Pin_3_3*%
%TO.N,/HLBlockerH/input_limited*%
X121950000Y-78232000D03*
%TO.P,J601,4,Pin_4_4*%
%TO.N,GND*%
X121950000Y-80772000D03*
%TD*%
D15*
%TO.P,R502,1*%
%TO.N,GND*%
X126268000Y-96266000D03*
%TO.P,R502,2*%
%TO.N,Ls*%
X118648000Y-96266000D03*
%TD*%
%TO.P,C701,1*%
%TO.N,LRi*%
X138968000Y-81654000D03*
%TO.P,C701,2*%
%TO.N,Net-(C701-Pad2)*%
X138968000Y-89154000D03*
%TD*%
%TO.P,R402,1*%
%TO.N,GND*%
X126268000Y-93726000D03*
%TO.P,R402,2*%
%TO.N,Ks*%
X118648000Y-93726000D03*
%TD*%
%TO.P,R705,1*%
%TO.N,Net-(Q701-C)*%
X146080000Y-81534000D03*
%TO.P,R705,2*%
%TO.N,+5V*%
X146080000Y-89154000D03*
%TD*%
%TO.P,R701,1*%
%TO.N,/HLBlockerL/input_limited*%
X131856000Y-89154000D03*
%TO.P,R701,2*%
%TO.N,GND*%
X131856000Y-81534000D03*
%TD*%
%TO.P,R605,1*%
%TO.N,Net-(Q601-C)*%
X147096000Y-99822000D03*
%TO.P,R605,2*%
%TO.N,+5V*%
X147096000Y-92202000D03*
%TD*%
D11*
%TO.P,J104,1,Pin_1_1*%
%TO.N,VDD*%
X105948000Y-74168000D03*
D12*
%TO.P,J104,2,Pin_2_2*%
%TO.N,GND*%
X105948000Y-76708000D03*
%TD*%
D17*
%TO.P,U101,1,RPWM_1*%
%TO.N,Kc*%
X169702000Y-101854000D03*
%TO.P,U101,2,LPWM_2*%
%TO.N,Jc*%
X167162000Y-101854000D03*
%TO.P,U101,3,R_EN_3*%
%TO.N,+5V*%
X169702000Y-104394000D03*
%TO.P,U101,4,L_EN_4*%
X167162000Y-104394000D03*
%TO.P,U101,5,R_IS_5*%
%TO.N,unconnected-(U101-R_IS-Pad5)*%
X169702000Y-106934000D03*
%TO.P,U101,6,L_IS_6*%
%TO.N,unconnected-(U101-L_IS-Pad6)*%
X167162000Y-106934000D03*
%TO.P,U101,7,Vcc_7*%
%TO.N,+5V*%
X169702000Y-109474000D03*
%TO.P,U101,8,GND_8*%
%TO.N,GND*%
X167162000Y-109474000D03*
%TD*%
D15*
%TO.P,C702,1*%
%TO.N,Net-(U701-DISCH)*%
X161325000Y-81594000D03*
%TO.P,C702,2*%
%TO.N,GND*%
X161325000Y-89094000D03*
%TD*%
D20*
%TO.P,JP501,1,A_1*%
%TO.N,L*%
X113060000Y-96266000D03*
D21*
%TO.P,JP501,2,B_2*%
%TO.N,Ls*%
X114360000Y-96266000D03*
%TD*%
D17*
%TO.P,U102,1,RPWM_1*%
%TO.N,Hc*%
X169702000Y-79756000D03*
%TO.P,U102,2,LPWM_2*%
%TO.N,Lc*%
X167162000Y-79756000D03*
%TO.P,U102,3,R_EN_3*%
%TO.N,+5V*%
X169702000Y-77216000D03*
%TO.P,U102,4,L_EN_4*%
X167162000Y-77216000D03*
%TO.P,U102,5,R_IS_5*%
%TO.N,unconnected-(U102-R_IS-Pad5)*%
X169702000Y-74676000D03*
%TO.P,U102,6,L_IS_6*%
%TO.N,unconnected-(U102-L_IS-Pad6)*%
X167162000Y-74676000D03*
%TO.P,U102,7,Vcc_7*%
%TO.N,+5V*%
X169702000Y-72136000D03*
%TO.P,U102,8,GND_8*%
%TO.N,GND*%
X167162000Y-72136000D03*
%TD*%
D20*
%TO.P,JP201,1,A_1*%
%TO.N,H*%
X113060000Y-88646000D03*
D21*
%TO.P,JP201,2,B_2*%
%TO.N,Hs*%
X114360000Y-88646000D03*
%TD*%
D20*
%TO.P,JP301,1,A_1*%
%TO.N,J*%
X113060000Y-91186000D03*
D21*
%TO.P,JP301,2,B_2*%
%TO.N,Js*%
X114360000Y-91186000D03*
%TD*%
D20*
%TO.P,JP401,1,A_1*%
%TO.N,K*%
X113060000Y-93726000D03*
D21*
%TO.P,JP401,2,B_2*%
%TO.N,Ks*%
X114360000Y-93726000D03*
%TD*%
D22*
%TO.N,GND*%
X120904000Y-98298000D03*
X129794000Y-106680000D03*
X129794000Y-110236000D03*
X162560000Y-104902000D03*
X122174000Y-90424000D03*
%TO.N,LRi*%
X136398000Y-77470000D03*
X120742000Y-88009719D03*
X127578735Y-85457263D03*
%TO.N,LRo*%
X120142000Y-87386000D03*
X128836265Y-80713735D03*
X126978735Y-84857265D03*
%TO.N,Hc*%
X139446000Y-90932000D03*
%TO.N,Lc*%
X153670000Y-83312000D03*
%TO.N,+5V*%
X143510000Y-95850000D03*
X140926735Y-102151265D03*
X164846000Y-103124000D03*
X148344527Y-90502000D03*
X113090000Y-106172000D03*
X131856000Y-106426000D03*
%TO.N,Js*%
X124095423Y-103324697D03*
X125984000Y-105918000D03*
%TO.N,JRo*%
X128524000Y-104394000D03*
%TO.N,Ks*%
X118872000Y-105918000D03*
X121592149Y-103197851D03*
%TO.N,HRi*%
X142494000Y-96012000D03*
%TO.N,HRo*%
X162814000Y-101854000D03*
%TO.N,VDD*%
X110490000Y-105410000D03*
%TO.N,JRi*%
X128524000Y-107882000D03*
%TO.N,KRo*%
X121666000Y-104394000D03*
%TO.N,KRi*%
X121666000Y-108458000D03*
%TO.N,Jc*%
X125984000Y-106934000D03*
%TO.N,Kc*%
X118872000Y-106934000D03*
%TD*%
%TO.N,H*%
D23*
X113060000Y-88646000D02*
X108488000Y-88646000D01*
%TO.N,Hs*%
X114360000Y-88646000D02*
X116108000Y-88646000D01*
%TO.N,GND*%
X154208000Y-109982000D02*
X147604000Y-109982000D01*
D24*
X120904000Y-98298000D02*
X121188000Y-98298000D01*
X121188000Y-98298000D02*
X122966000Y-100076000D01*
D23*
X154208000Y-109982000D02*
X166654000Y-109982000D01*
X166654000Y-109982000D02*
X167162000Y-109474000D01*
%TO.N,LRi*%
D24*
X120542000Y-96493320D02*
X120542000Y-88209719D01*
X127578735Y-85457263D02*
X127578735Y-82834550D01*
X117656000Y-97766000D02*
X119269321Y-97766000D01*
X120542000Y-88209719D02*
X120742000Y-88009719D01*
X127578735Y-82834550D02*
X132943285Y-77470000D01*
X119269321Y-97766000D02*
X120542000Y-96493320D01*
X115346000Y-100076000D02*
X117656000Y-97766000D01*
X132943285Y-77470000D02*
X136398000Y-77470000D01*
%TO.N,LRo*%
X112806000Y-100076000D02*
X115516000Y-97366000D01*
X119103635Y-97366000D02*
X120142000Y-96327635D01*
X128836265Y-80713735D02*
X126978735Y-82571265D01*
X126978735Y-82571265D02*
X126978735Y-84857265D01*
X120142000Y-96327635D02*
X120142000Y-87386000D01*
X115516000Y-97366000D02*
X119103635Y-97366000D01*
%TO.N,Hc*%
X147574000Y-90424000D02*
X154286000Y-83712000D01*
X139954000Y-90424000D02*
X147574000Y-90424000D01*
X168589702Y-80838298D02*
X169672000Y-79756000D01*
X139446000Y-90932000D02*
X139954000Y-90424000D01*
X169672000Y-79756000D02*
X169702000Y-79756000D01*
X154286000Y-83712000D02*
X161709686Y-83712000D01*
X161709686Y-83712000D02*
X164583388Y-80838298D01*
X164583388Y-80838298D02*
X168589702Y-80838298D01*
%TO.N,Lc*%
X165100000Y-79756000D02*
X167162000Y-79756000D01*
X153670000Y-83312000D02*
X161544000Y-83312000D01*
X161544000Y-83312000D02*
X165100000Y-79756000D01*
%TO.N,+5V*%
X121786000Y-101226000D02*
X124356000Y-101226000D01*
X112268000Y-106172000D02*
X106748000Y-100652000D01*
X140951735Y-102151265D02*
X143281000Y-99822000D01*
X149895000Y-81534000D02*
X149895000Y-85339000D01*
X164493265Y-103476735D02*
X164846000Y-103124000D01*
X106748000Y-84461000D02*
X111868500Y-79340500D01*
X157515000Y-73914000D02*
X149895000Y-81534000D01*
X149895000Y-85339000D02*
X146080000Y-89154000D01*
X124356000Y-101226000D02*
X125506000Y-100076000D01*
X113598000Y-106680000D02*
X116332000Y-106680000D01*
X132872000Y-107442000D02*
X135661000Y-107442000D01*
X113090000Y-106172000D02*
X112268000Y-106172000D01*
X146935735Y-103476735D02*
X164493265Y-103476735D01*
X143281000Y-99822000D02*
X146935735Y-103476735D01*
X140926735Y-102151265D02*
X140951735Y-102151265D01*
X106748000Y-100652000D02*
X106748000Y-84461000D01*
X158780000Y-73914000D02*
X161320000Y-71374000D01*
X161320000Y-71374000D02*
X167162000Y-77216000D01*
X157515000Y-73914000D02*
X158780000Y-73914000D01*
X131856000Y-106426000D02*
X132872000Y-107442000D01*
X116332000Y-106680000D02*
X121786000Y-101226000D01*
X113090000Y-106172000D02*
X113598000Y-106680000D01*
X143281000Y-99822000D02*
X143510000Y-99593000D01*
X143510000Y-99593000D02*
X143510000Y-95850000D01*
X147096000Y-92202000D02*
X148344527Y-90953473D01*
X148344527Y-90953473D02*
X148344527Y-90502000D01*
%TO.N,Js*%
X124125180Y-103354454D02*
X124125180Y-104059180D01*
D23*
X116108000Y-91186000D02*
X114360000Y-91186000D01*
D24*
X124125180Y-104059180D02*
X125984000Y-105918000D01*
X124095423Y-103324697D02*
X124125180Y-103354454D01*
%TO.N,JRo*%
X120426000Y-84836000D02*
X124968000Y-89378001D01*
X127856000Y-103726000D02*
X128524000Y-104394000D01*
X125168000Y-96721635D02*
X125812365Y-97366000D01*
X125812365Y-97366000D02*
X126623204Y-97366000D01*
X125168000Y-96720001D02*
X125168000Y-96721635D01*
X124968000Y-96520000D02*
X125168000Y-96720001D01*
X126623204Y-97366000D02*
X127856000Y-98598796D01*
X127856000Y-98598796D02*
X127856000Y-103726000D01*
X124968000Y-89378001D02*
X124968000Y-96520000D01*
%TO.N,K*%
D23*
X113060000Y-93726000D02*
X108488000Y-93726000D01*
%TO.N,Ks*%
X114360000Y-93726000D02*
X116108000Y-93726000D01*
D24*
X121592149Y-103197851D02*
X118872000Y-105918000D01*
%TO.N,HRi*%
X130156000Y-92688321D02*
X133117680Y-95650000D01*
X124116000Y-85986000D02*
X126090314Y-85986000D01*
X142132000Y-95650000D02*
X142494000Y-96012000D01*
X122966000Y-84836000D02*
X124116000Y-85986000D01*
X133117680Y-95650000D02*
X142132000Y-95650000D01*
X126090314Y-85986000D02*
X130156000Y-90051686D01*
X130156000Y-90051686D02*
X130156000Y-92688321D01*
%TO.N,HRo*%
X130556000Y-92522635D02*
X130556000Y-89886000D01*
X162814000Y-101854000D02*
X162814000Y-97282000D01*
X160782000Y-95250000D02*
X133283365Y-95250000D01*
X133283365Y-95250000D02*
X130556000Y-92522635D01*
X162814000Y-97282000D02*
X160782000Y-95250000D01*
X130556000Y-89886000D02*
X125506000Y-84836000D01*
%TO.N,VDD*%
X110490000Y-105410000D02*
X106348000Y-101268000D01*
X106348000Y-101268000D02*
X106348000Y-79781000D01*
X106348000Y-79781000D02*
X111868500Y-74260500D01*
%TO.N,Vout*%
X105948000Y-86360000D02*
X103916000Y-84328000D01*
X105948000Y-104648000D02*
X105948000Y-86360000D01*
%TO.N,Ls*%
D23*
X116108000Y-96266000D02*
X114360000Y-96266000D01*
%TO.N,JRi*%
D24*
X127456000Y-106814000D02*
X128524000Y-107882000D01*
X118823956Y-84836000D02*
X119276000Y-85288044D01*
X119276000Y-85312346D02*
X119949654Y-85986000D01*
X119276000Y-85288044D02*
X119276000Y-85312346D01*
X125646679Y-97766000D02*
X126457518Y-97766000D01*
X124568000Y-96685685D02*
X124768000Y-96885686D01*
X117886000Y-84836000D02*
X118823956Y-84836000D01*
X127456000Y-98764481D02*
X127456000Y-106814000D01*
X124768000Y-96887320D02*
X125646679Y-97766000D01*
X126457518Y-97766000D02*
X127456000Y-98764481D01*
X124768000Y-96885686D02*
X124768000Y-96887320D01*
X124568000Y-89543686D02*
X124568000Y-96685685D01*
X119949654Y-85986000D02*
X121010313Y-85986000D01*
X121010313Y-85986000D02*
X124568000Y-89543686D01*
%TO.N,KRo*%
X124116000Y-96801007D02*
X124116000Y-89657372D01*
X124116000Y-89657372D02*
X120844628Y-86386000D01*
X127056000Y-98930167D02*
X126291833Y-98166000D01*
X126291833Y-98166000D02*
X125480994Y-98166000D01*
X119415949Y-86017981D02*
X116527981Y-86017981D01*
X123384529Y-102675471D02*
X125728215Y-102675471D01*
X119783968Y-86386000D02*
X119415949Y-86017981D01*
X120844628Y-86386000D02*
X119783968Y-86386000D01*
X127056000Y-101347686D02*
X127056000Y-98930167D01*
X125480994Y-98166000D02*
X124116000Y-96801007D01*
X121666000Y-104394000D02*
X123384529Y-102675471D01*
X125728215Y-102675471D02*
X127056000Y-101347686D01*
X116527981Y-86017981D02*
X115346000Y-84836000D01*
%TO.N,KRi*%
X121666000Y-102275471D02*
X125562529Y-102275471D01*
X126656000Y-101182000D02*
X126656000Y-99095853D01*
X123716000Y-89823058D02*
X120678942Y-86786000D01*
X114387981Y-86417981D02*
X112806000Y-84836000D01*
X119507000Y-108458000D02*
X118272000Y-107223000D01*
X125562529Y-102275471D02*
X126656000Y-101182000D01*
X121666000Y-108458000D02*
X119507000Y-108458000D01*
X125315309Y-98566000D02*
X123716000Y-96966693D01*
X120678942Y-86786000D02*
X119618282Y-86786000D01*
X118272000Y-107223000D02*
X118272000Y-105669471D01*
X123716000Y-96966693D02*
X123716000Y-89823058D01*
X119618282Y-86786000D02*
X119250263Y-86417981D01*
X119250263Y-86417981D02*
X114387981Y-86417981D01*
X126656000Y-99095853D02*
X126126147Y-98566000D01*
X118272000Y-105669471D02*
X121666000Y-102275471D01*
X126126147Y-98566000D02*
X125315309Y-98566000D01*
%TO.N,L*%
D23*
X113060000Y-96266000D02*
X108488000Y-96266000D01*
%TO.N,J*%
X113060000Y-91186000D02*
X108488000Y-91186000D01*
%TO.N,Jc*%
D24*
X135145365Y-108482000D02*
X135205365Y-108542000D01*
X125984000Y-106934000D02*
X127532000Y-108482000D01*
X160534000Y-108482000D02*
X167162000Y-101854000D01*
X153536679Y-108532000D02*
X153586680Y-108482000D01*
X147003390Y-108532000D02*
X153536679Y-108532000D01*
X135205365Y-108542000D02*
X146993389Y-108542000D01*
X127532000Y-108482000D02*
X135145365Y-108482000D01*
X146993389Y-108542000D02*
X147003390Y-108532000D01*
X153586680Y-108482000D02*
X160534000Y-108482000D01*
%TO.N,Kc*%
X118872000Y-106934000D02*
X121158000Y-106934000D01*
X147159075Y-108942000D02*
X147169075Y-108932000D01*
X123106000Y-108882000D02*
X134979680Y-108882000D01*
X153752365Y-108882000D02*
X160699686Y-108882000D01*
X166677686Y-102904000D02*
X168652000Y-102904000D01*
X135039680Y-108942000D02*
X147159075Y-108942000D01*
X134979680Y-108882000D02*
X135039680Y-108942000D01*
X153702365Y-108932000D02*
X153752365Y-108882000D01*
X168652000Y-102904000D02*
X169702000Y-101854000D01*
X121158000Y-106934000D02*
X123106000Y-108882000D01*
X160699686Y-108882000D02*
X166677686Y-102904000D01*
X147169075Y-108932000D02*
X153702365Y-108932000D01*
%TD*%
%TA.AperFunction,Conductor*%
%TO.N,GND*%
G36*
X106753703Y-102523384D02*
G01*
X106760181Y-102529416D01*
X109655425Y-105424660D01*
X109688910Y-105485983D01*
X109689361Y-105488149D01*
X109720261Y-105643491D01*
X109720264Y-105643501D01*
X109780602Y-105789172D01*
X109780609Y-105789185D01*
X109868210Y-105920288D01*
X109868213Y-105920292D01*
X109979707Y-106031786D01*
X109979711Y-106031789D01*
X110110814Y-106119390D01*
X110110827Y-106119397D01*
X110234147Y-106170477D01*
X110256503Y-106179737D01*
X110370940Y-106202500D01*
X110411153Y-106210499D01*
X110411156Y-106210500D01*
X110411158Y-106210500D01*
X110568844Y-106210500D01*
X110568845Y-106210499D01*
X110723497Y-106179737D01*
X110869179Y-106119394D01*
X111000289Y-106031789D01*
X111025067Y-106007011D01*
X111051741Y-105980338D01*
X111113064Y-105946853D01*
X111182756Y-105951837D01*
X111227103Y-105980338D01*
X111783139Y-106536374D01*
X111783149Y-106536385D01*
X111787479Y-106540715D01*
X111787480Y-106540716D01*
X111899284Y-106652520D01*
X111982394Y-106700503D01*
X112036215Y-106731577D01*
X112188943Y-106772501D01*
X112188946Y-106772501D01*
X112354653Y-106772501D01*
X112354669Y-106772500D01*
X112510234Y-106772500D01*
X112577273Y-106792185D01*
X112579125Y-106793398D01*
X112710814Y-106881390D01*
X112710827Y-106881397D01*
X112856498Y-106941735D01*
X112856503Y-106941737D01*
X112921147Y-106954595D01*
X113011849Y-106972638D01*
X113028605Y-106981402D01*
X113047085Y-106985423D01*
X113072123Y-107004167D01*
X113073760Y-107005023D01*
X113075339Y-107006574D01*
X113113139Y-107044374D01*
X113113149Y-107044385D01*
X113117479Y-107048715D01*
X113117480Y-107048716D01*
X113229284Y-107160520D01*
X113229286Y-107160521D01*
X113229290Y-107160524D01*
X113339788Y-107224319D01*
X113366216Y-107239577D01*
X113478019Y-107269534D01*
X113518942Y-107280500D01*
X113518943Y-107280500D01*
X116245331Y-107280500D01*
X116245347Y-107280501D01*
X116252943Y-107280501D01*
X116411054Y-107280501D01*
X116411057Y-107280501D01*
X116563785Y-107239577D01*
X116563787Y-107239575D01*
X116563789Y-107239575D01*
X116563790Y-107239574D01*
X116614640Y-107210216D01*
X116614641Y-107210215D01*
X116700716Y-107160520D01*
X116812520Y-107048716D01*
X116812520Y-107048714D01*
X116822724Y-107038511D01*
X116822727Y-107038506D01*
X117459820Y-106401414D01*
X117521142Y-106367930D01*
X117590834Y-106372914D01*
X117646767Y-106414786D01*
X117671184Y-106480250D01*
X117671500Y-106489096D01*
X117671500Y-107136330D01*
X117671499Y-107136348D01*
X117671499Y-107302054D01*
X117671498Y-107302054D01*
X117701454Y-107413848D01*
X117712423Y-107454785D01*
X117712425Y-107454788D01*
X117719669Y-107467335D01*
X117791477Y-107591712D01*
X117791481Y-107591717D01*
X117910349Y-107710585D01*
X117910354Y-107710589D01*
X119138284Y-108938520D01*
X119138286Y-108938521D01*
X119138290Y-108938524D01*
X119244489Y-108999837D01*
X119275216Y-109017577D01*
X119427943Y-109058501D01*
X119427945Y-109058501D01*
X119593654Y-109058501D01*
X119593670Y-109058500D01*
X121086234Y-109058500D01*
X121153273Y-109078185D01*
X121155125Y-109079398D01*
X121286814Y-109167390D01*
X121286827Y-109167397D01*
X121432498Y-109227735D01*
X121432503Y-109227737D01*
X121587153Y-109258499D01*
X121587156Y-109258500D01*
X121587158Y-109258500D01*
X121744844Y-109258500D01*
X121744845Y-109258499D01*
X121899497Y-109227737D01*
X122045179Y-109167394D01*
X122176289Y-109079789D01*
X122201951Y-109054127D01*
X122227741Y-109028338D01*
X122289064Y-108994853D01*
X122358756Y-108999837D01*
X122403103Y-109028338D01*
X122621139Y-109246374D01*
X122621149Y-109246385D01*
X122625479Y-109250715D01*
X122625480Y-109250716D01*
X122737284Y-109362520D01*
X122815998Y-109407965D01*
X122874215Y-109441577D01*
X123026943Y-109482501D01*
X123026946Y-109482501D01*
X123192653Y-109482501D01*
X123192669Y-109482500D01*
X130480199Y-109482500D01*
X130547238Y-109502185D01*
X130592993Y-109554989D01*
X130602937Y-109624147D01*
X130598130Y-109644817D01*
X130587524Y-109677457D01*
X130587523Y-109677464D01*
X130555500Y-109879648D01*
X130555500Y-110084351D01*
X130587522Y-110286534D01*
X130650781Y-110481223D01*
X130743712Y-110663609D01*
X130849064Y-110808615D01*
X130872543Y-110874422D01*
X130856717Y-110942476D01*
X130806611Y-110991170D01*
X130748745Y-111005500D01*
X104540500Y-111005500D01*
X104473461Y-110985815D01*
X104427706Y-110933011D01*
X104416500Y-110881500D01*
X104416500Y-107626125D01*
X104436185Y-107559086D01*
X104488989Y-107513331D01*
X104558147Y-107503387D01*
X104621703Y-107532412D01*
X104658431Y-107587807D01*
X104696904Y-107706217D01*
X104793375Y-107895550D01*
X104832728Y-107949716D01*
X105465037Y-107317408D01*
X105482075Y-107380993D01*
X105547901Y-107495007D01*
X105640993Y-107588099D01*
X105755007Y-107653925D01*
X105818590Y-107670962D01*
X105186282Y-108303269D01*
X105186282Y-108303270D01*
X105240449Y-108342624D01*
X105429782Y-108439095D01*
X105631870Y-108504757D01*
X105841754Y-108538000D01*
X106054246Y-108538000D01*
X106264127Y-108504757D01*
X106264130Y-108504757D01*
X106466217Y-108439095D01*
X106655554Y-108342622D01*
X106709716Y-108303270D01*
X106709717Y-108303270D01*
X106077408Y-107670962D01*
X106140993Y-107653925D01*
X106255007Y-107588099D01*
X106348099Y-107495007D01*
X106413925Y-107380993D01*
X106430962Y-107317409D01*
X107063270Y-107949717D01*
X107063270Y-107949716D01*
X107102622Y-107895554D01*
X107199095Y-107706217D01*
X107264757Y-107504130D01*
X107264757Y-107504127D01*
X107298000Y-107294246D01*
X107298000Y-107081753D01*
X107264757Y-106871872D01*
X107264757Y-106871869D01*
X107199095Y-106669782D01*
X107102624Y-106480449D01*
X107063270Y-106426282D01*
X107063269Y-106426282D01*
X106430962Y-107058590D01*
X106413925Y-106995007D01*
X106348099Y-106880993D01*
X106255007Y-106787901D01*
X106140993Y-106722075D01*
X106077407Y-106705037D01*
X106747627Y-106034818D01*
X106808950Y-106001333D01*
X106835308Y-105998499D01*
X106845871Y-105998499D01*
X106845872Y-105998499D01*
X106905483Y-105992091D01*
X107040331Y-105941796D01*
X107155546Y-105855546D01*
X107241796Y-105740331D01*
X107292091Y-105605483D01*
X107298500Y-105545873D01*
X107298499Y-103750128D01*
X107292091Y-103690517D01*
X107289887Y-103684609D01*
X107241797Y-103555671D01*
X107241793Y-103555664D01*
X107155547Y-103440455D01*
X107155544Y-103440452D01*
X107040335Y-103354206D01*
X107040328Y-103354202D01*
X106905482Y-103303908D01*
X106905483Y-103303908D01*
X106845883Y-103297501D01*
X106845881Y-103297500D01*
X106845873Y-103297500D01*
X106845865Y-103297500D01*
X106672500Y-103297500D01*
X106605461Y-103277815D01*
X106559706Y-103225011D01*
X106548500Y-103173500D01*
X106548500Y-102617097D01*
X106568185Y-102550058D01*
X106620989Y-102504303D01*
X106690147Y-102494359D01*
X106753703Y-102523384D01*
G37*
%TD.AperFunction*%
%TA.AperFunction,Conductor*%
G36*
X134757116Y-109486650D02*
G01*
X134770865Y-109485996D01*
X134803630Y-109499115D01*
X134807891Y-109501575D01*
X134807892Y-109501575D01*
X134807895Y-109501577D01*
X134960623Y-109542501D01*
X134960626Y-109542501D01*
X135126333Y-109542501D01*
X135126349Y-109542500D01*
X146262843Y-109542500D01*
X146329882Y-109562185D01*
X146375637Y-109614989D01*
X146385581Y-109684147D01*
X146385316Y-109685898D01*
X146354000Y-109883617D01*
X146354000Y-110080382D01*
X146384778Y-110274705D01*
X146445581Y-110461835D01*
X146534905Y-110637145D01*
X146560319Y-110672125D01*
X146560320Y-110672125D01*
X147204000Y-110028445D01*
X147204000Y-110034661D01*
X147231259Y-110136394D01*
X147283920Y-110227606D01*
X147358394Y-110302080D01*
X147449606Y-110354741D01*
X147551339Y-110382000D01*
X147557553Y-110382000D01*
X146970372Y-110969181D01*
X146909049Y-111002666D01*
X146882691Y-111005500D01*
X132963255Y-111005500D01*
X132896216Y-110985815D01*
X132850461Y-110933011D01*
X132840517Y-110863853D01*
X132862936Y-110808615D01*
X132924411Y-110724000D01*
X132968287Y-110663610D01*
X133061220Y-110481219D01*
X133124477Y-110286534D01*
X133156500Y-110084352D01*
X133156500Y-109879648D01*
X133124477Y-109677466D01*
X133124475Y-109677462D01*
X133124475Y-109677457D01*
X133113870Y-109644817D01*
X133111875Y-109574976D01*
X133147956Y-109515143D01*
X133210657Y-109484316D01*
X133231801Y-109482500D01*
X134741627Y-109482500D01*
X134757116Y-109486650D01*
G37*
%TD.AperFunction*%
%TA.AperFunction,Conductor*%
G36*
X152884843Y-109552185D02*
G01*
X152930598Y-109604989D01*
X152940542Y-109674147D01*
X152940277Y-109675898D01*
X152908000Y-109879682D01*
X152908000Y-110084317D01*
X152940009Y-110286417D01*
X153003244Y-110481031D01*
X153096140Y-110663349D01*
X153201682Y-110808614D01*
X153225162Y-110874421D01*
X153209337Y-110942475D01*
X153159231Y-110991169D01*
X153101364Y-111005500D01*
X148325309Y-111005500D01*
X148258270Y-110985815D01*
X148237628Y-110969181D01*
X147650447Y-110382000D01*
X147656661Y-110382000D01*
X147758394Y-110354741D01*
X147849606Y-110302080D01*
X147924080Y-110227606D01*
X147976741Y-110136394D01*
X148004000Y-110034661D01*
X148004000Y-110028447D01*
X148647678Y-110672126D01*
X148647678Y-110672125D01*
X148673095Y-110637143D01*
X148762418Y-110461835D01*
X148823221Y-110274705D01*
X148854000Y-110080382D01*
X148854000Y-109883617D01*
X148823221Y-109689292D01*
X148822298Y-109685446D01*
X148825789Y-109615663D01*
X148866454Y-109558846D01*
X148931380Y-109533034D01*
X148942872Y-109532500D01*
X152817804Y-109532500D01*
X152884843Y-109552185D01*
G37*
%TD.AperFunction*%
%TA.AperFunction,Conductor*%
G36*
X165881618Y-104651816D02*
G01*
X165937551Y-104693688D01*
X165956215Y-104729679D01*
X166003117Y-104874029D01*
X166068890Y-105003115D01*
X166092476Y-105049405D01*
X166208172Y-105208646D01*
X166347354Y-105347828D01*
X166506595Y-105463524D01*
X166550674Y-105485983D01*
X166683213Y-105553515D01*
X166734009Y-105601489D01*
X166750804Y-105669310D01*
X166728267Y-105735445D01*
X166683213Y-105774485D01*
X166506594Y-105864476D01*
X166436082Y-105915707D01*
X166347354Y-105980172D01*
X166347352Y-105980174D01*
X166347351Y-105980174D01*
X166208174Y-106119351D01*
X166208174Y-106119352D01*
X166208172Y-106119354D01*
X166184091Y-106152499D01*
X166092476Y-106278594D01*
X166003117Y-106453970D01*
X165942290Y-106641173D01*
X165911500Y-106835577D01*
X165911500Y-107032422D01*
X165942290Y-107226826D01*
X166003117Y-107414029D01*
X166075346Y-107555786D01*
X166092476Y-107589405D01*
X166208172Y-107748646D01*
X166347354Y-107887828D01*
X166466784Y-107974600D01*
X166506596Y-108003525D01*
X166683763Y-108093795D01*
X166734560Y-108141769D01*
X166751355Y-108209590D01*
X166728818Y-108275725D01*
X166683764Y-108314765D01*
X166506859Y-108404902D01*
X166471873Y-108430320D01*
X166471872Y-108430320D01*
X167095681Y-109054127D01*
X167106890Y-109074656D01*
X167007606Y-109101259D01*
X166916394Y-109153920D01*
X166841920Y-109228394D01*
X166789259Y-109319606D01*
X166762000Y-109421339D01*
X166762000Y-109427552D01*
X166118320Y-108783872D01*
X166118320Y-108783873D01*
X166092902Y-108818859D01*
X166092899Y-108818863D01*
X166003582Y-108994161D01*
X165942778Y-109181294D01*
X165912000Y-109375617D01*
X165912000Y-109572382D01*
X165942778Y-109766705D01*
X166003581Y-109953835D01*
X166092905Y-110129145D01*
X166118319Y-110164125D01*
X166118320Y-110164125D01*
X166762000Y-109520445D01*
X166762000Y-109526661D01*
X166789259Y-109628394D01*
X166841920Y-109719606D01*
X166916394Y-109794080D01*
X167007606Y-109846741D01*
X167109339Y-109874000D01*
X167115553Y-109874000D01*
X166471873Y-110517677D01*
X166471873Y-110517678D01*
X166506858Y-110543096D01*
X166682164Y-110632418D01*
X166869294Y-110693221D01*
X167063618Y-110724000D01*
X167260382Y-110724000D01*
X167454705Y-110693221D01*
X167641835Y-110632418D01*
X167817143Y-110543095D01*
X167852125Y-110517678D01*
X167852126Y-110517678D01*
X167208448Y-109874000D01*
X167214661Y-109874000D01*
X167316394Y-109846741D01*
X167407606Y-109794080D01*
X167482080Y-109719606D01*
X167534741Y-109628394D01*
X167562000Y-109526661D01*
X167562000Y-109520446D01*
X168205678Y-110164126D01*
X168205678Y-110164125D01*
X168231097Y-110129141D01*
X168321234Y-109952236D01*
X168369208Y-109901439D01*
X168437029Y-109884644D01*
X168503164Y-109907181D01*
X168542204Y-109952235D01*
X168543115Y-109954024D01*
X168543116Y-109954025D01*
X168632476Y-110129405D01*
X168748172Y-110288646D01*
X168887354Y-110427828D01*
X169046595Y-110543524D01*
X169129455Y-110585743D01*
X169221970Y-110632882D01*
X169221972Y-110632882D01*
X169221975Y-110632884D01*
X169315736Y-110663349D01*
X169409173Y-110693709D01*
X169603578Y-110724500D01*
X169603583Y-110724500D01*
X169800422Y-110724500D01*
X169994826Y-110693709D01*
X169996328Y-110693221D01*
X170182025Y-110632884D01*
X170357405Y-110543524D01*
X170516646Y-110427828D01*
X170655828Y-110288646D01*
X170755183Y-110151896D01*
X170810512Y-110109232D01*
X170880126Y-110103253D01*
X170941921Y-110135859D01*
X170976278Y-110196698D01*
X170979500Y-110224783D01*
X170979500Y-110881500D01*
X170959815Y-110948539D01*
X170907011Y-110994294D01*
X170855500Y-111005500D01*
X155314636Y-111005500D01*
X155247597Y-110985815D01*
X155201842Y-110933011D01*
X155191898Y-110863853D01*
X155214318Y-110808614D01*
X155319859Y-110663349D01*
X155412755Y-110481031D01*
X155428654Y-110432100D01*
X155475990Y-110286417D01*
X155508000Y-110084317D01*
X155508000Y-109879682D01*
X155475989Y-109677581D01*
X155475988Y-109677574D01*
X155465345Y-109644817D01*
X155463350Y-109574976D01*
X155499431Y-109515143D01*
X155562132Y-109484316D01*
X155583276Y-109482500D01*
X160613017Y-109482500D01*
X160613033Y-109482501D01*
X160620629Y-109482501D01*
X160778740Y-109482501D01*
X160778743Y-109482501D01*
X160931471Y-109441577D01*
X160989688Y-109407965D01*
X161068402Y-109362520D01*
X161180206Y-109250716D01*
X161180206Y-109250714D01*
X161190410Y-109240511D01*
X161190413Y-109240506D01*
X165750605Y-104680315D01*
X165811926Y-104646832D01*
X165881618Y-104651816D01*
G37*
%TD.AperFunction*%
%TA.AperFunction,Conductor*%
G36*
X127773203Y-88518570D02*
G01*
X127779681Y-88524602D01*
X129519181Y-90264102D01*
X129552666Y-90325425D01*
X129555500Y-90351783D01*
X129555500Y-92601651D01*
X129555499Y-92601669D01*
X129555499Y-92767375D01*
X129555498Y-92767375D01*
X129564579Y-92801263D01*
X129596423Y-92920106D01*
X129596424Y-92920107D01*
X129613024Y-92948861D01*
X129613025Y-92948862D01*
X129675475Y-93057030D01*
X129675481Y-93057038D01*
X129794349Y-93175906D01*
X129794355Y-93175911D01*
X132632819Y-96014374D01*
X132632829Y-96014385D01*
X132637159Y-96018715D01*
X132637160Y-96018716D01*
X132748964Y-96130520D01*
X132806344Y-96163648D01*
X132885895Y-96209577D01*
X133038623Y-96250500D01*
X141643481Y-96250500D01*
X141710520Y-96270185D01*
X141756275Y-96322989D01*
X141758042Y-96327048D01*
X141784602Y-96391172D01*
X141784609Y-96391185D01*
X141872210Y-96522288D01*
X141872213Y-96522292D01*
X141983707Y-96633786D01*
X141983711Y-96633789D01*
X142114814Y-96721390D01*
X142114827Y-96721397D01*
X142221303Y-96765500D01*
X142260503Y-96781737D01*
X142384607Y-96806423D01*
X142415153Y-96812499D01*
X142415156Y-96812500D01*
X142415158Y-96812500D01*
X142572844Y-96812500D01*
X142572845Y-96812499D01*
X142727497Y-96781737D01*
X142738045Y-96777367D01*
X142807511Y-96769896D01*
X142869992Y-96801168D01*
X142905647Y-96861256D01*
X142909500Y-96891927D01*
X142909500Y-98485190D01*
X142889815Y-98552229D01*
X142837011Y-98597984D01*
X142823827Y-98603118D01*
X142801583Y-98610346D01*
X142781775Y-98616782D01*
X142599386Y-98709715D01*
X142433786Y-98830028D01*
X142289028Y-98974786D01*
X142168715Y-99140386D01*
X142075781Y-99322776D01*
X142012522Y-99517465D01*
X141980500Y-99719648D01*
X141980500Y-99924351D01*
X142012522Y-100126534D01*
X142017173Y-100140848D01*
X142019165Y-100210690D01*
X141986921Y-100266842D01*
X140939319Y-101314446D01*
X140877996Y-101347931D01*
X140851638Y-101350765D01*
X140847890Y-101350765D01*
X140693245Y-101381526D01*
X140693233Y-101381529D01*
X140547562Y-101441867D01*
X140547549Y-101441874D01*
X140416446Y-101529475D01*
X140416442Y-101529478D01*
X140304948Y-101640972D01*
X140304945Y-101640976D01*
X140217344Y-101772079D01*
X140217337Y-101772092D01*
X140156999Y-101917763D01*
X140156996Y-101917775D01*
X140126235Y-102072418D01*
X140126235Y-102230111D01*
X140156996Y-102384754D01*
X140156999Y-102384766D01*
X140217337Y-102530437D01*
X140217344Y-102530450D01*
X140304945Y-102661553D01*
X140304948Y-102661557D01*
X140416442Y-102773051D01*
X140416446Y-102773054D01*
X140547549Y-102860655D01*
X140547562Y-102860662D01*
X140693233Y-102921000D01*
X140693238Y-102921002D01*
X140847888Y-102951764D01*
X140847891Y-102951765D01*
X140847893Y-102951765D01*
X141005579Y-102951765D01*
X141005580Y-102951764D01*
X141160232Y-102921002D01*
X141272901Y-102874332D01*
X141305907Y-102860662D01*
X141305907Y-102860661D01*
X141305914Y-102860659D01*
X141437024Y-102773054D01*
X141548524Y-102661554D01*
X141636129Y-102530444D01*
X141696472Y-102384762D01*
X141721165Y-102260623D01*
X141729929Y-102243866D01*
X141733950Y-102225387D01*
X141752694Y-102200348D01*
X141753550Y-102198712D01*
X141755050Y-102197184D01*
X141768820Y-102183413D01*
X141830142Y-102149930D01*
X141899834Y-102154914D01*
X141955767Y-102196786D01*
X141980184Y-102262250D01*
X141980500Y-102271096D01*
X141980500Y-102464352D01*
X141983494Y-102483253D01*
X142012522Y-102666534D01*
X142075781Y-102861223D01*
X142139691Y-102986653D01*
X142163805Y-103033978D01*
X142168715Y-103043613D01*
X142289028Y-103209213D01*
X142433786Y-103353971D01*
X142569069Y-103452258D01*
X142599390Y-103474287D01*
X142676509Y-103513581D01*
X142692080Y-103521515D01*
X142742876Y-103569490D01*
X142759671Y-103637311D01*
X142737134Y-103703446D01*
X142692080Y-103742485D01*
X142599386Y-103789715D01*
X142433786Y-103910028D01*
X142289028Y-104054786D01*
X142168715Y-104220386D01*
X142075781Y-104402776D01*
X142012522Y-104597465D01*
X141985615Y-104767351D01*
X141980500Y-104799648D01*
X141980500Y-105004352D01*
X141983494Y-105023253D01*
X142012522Y-105206534D01*
X142075781Y-105401223D01*
X142132228Y-105512004D01*
X142153057Y-105552884D01*
X142168715Y-105583613D01*
X142289028Y-105749213D01*
X142433782Y-105893967D01*
X142433787Y-105893971D01*
X142527948Y-105962383D01*
X142570614Y-106017713D01*
X142576593Y-106087326D01*
X142543988Y-106149121D01*
X142494068Y-106180407D01*
X142411878Y-106207642D01*
X142411875Y-106207643D01*
X142262654Y-106299684D01*
X142138684Y-106423654D01*
X142046643Y-106572875D01*
X142046641Y-106572880D01*
X141991494Y-106739302D01*
X141991493Y-106739309D01*
X141981000Y-106842013D01*
X141981000Y-107192000D01*
X142965314Y-107192000D01*
X142960920Y-107196394D01*
X142908259Y-107287606D01*
X142881000Y-107389339D01*
X142881000Y-107494661D01*
X142908259Y-107596394D01*
X142960920Y-107687606D01*
X142965314Y-107692000D01*
X141981001Y-107692000D01*
X141981001Y-107817500D01*
X141961316Y-107884539D01*
X141908512Y-107930294D01*
X141857001Y-107941500D01*
X137036801Y-107941500D01*
X136969762Y-107921815D01*
X136924007Y-107869011D01*
X136914063Y-107799853D01*
X136918870Y-107779183D01*
X136929475Y-107746542D01*
X136929475Y-107746538D01*
X136929477Y-107746534D01*
X136961500Y-107544352D01*
X136961500Y-107339648D01*
X136945649Y-107239573D01*
X136929477Y-107137465D01*
X136895346Y-107032422D01*
X136866220Y-106942781D01*
X136866218Y-106942778D01*
X136866218Y-106942776D01*
X136818318Y-106848768D01*
X136773287Y-106760390D01*
X136729777Y-106700503D01*
X136652971Y-106594786D01*
X136508213Y-106450028D01*
X136342614Y-106329715D01*
X136295980Y-106305954D01*
X136249917Y-106282483D01*
X136199123Y-106234511D01*
X136182328Y-106166690D01*
X136204865Y-106100555D01*
X136249917Y-106061516D01*
X136342610Y-106014287D01*
X136389566Y-105980172D01*
X136508213Y-105893971D01*
X136508215Y-105893968D01*
X136508219Y-105893966D01*
X136652966Y-105749219D01*
X136652968Y-105749215D01*
X136652971Y-105749213D01*
X136711023Y-105669310D01*
X136773287Y-105583610D01*
X136866220Y-105401219D01*
X136929477Y-105206534D01*
X136961500Y-105004352D01*
X136961500Y-104799648D01*
X136944717Y-104693688D01*
X136929477Y-104597465D01*
X136900127Y-104507137D01*
X136866220Y-104402781D01*
X136866218Y-104402778D01*
X136866218Y-104402776D01*
X136832503Y-104336607D01*
X136773287Y-104220390D01*
X136729777Y-104160503D01*
X136652971Y-104054786D01*
X136508213Y-103910028D01*
X136342614Y-103789715D01*
X136276464Y-103756010D01*
X136249917Y-103742483D01*
X136199123Y-103694511D01*
X136182328Y-103626690D01*
X136204865Y-103560555D01*
X136249917Y-103521516D01*
X136342610Y-103474287D01*
X136439982Y-103403543D01*
X136508213Y-103353971D01*
X136508215Y-103353968D01*
X136508219Y-103353966D01*
X136652966Y-103209219D01*
X136652968Y-103209215D01*
X136652971Y-103209213D01*
X136709432Y-103131500D01*
X136773287Y-103043610D01*
X136866220Y-102861219D01*
X136929477Y-102666534D01*
X136961500Y-102464352D01*
X136961500Y-102259648D01*
X136951598Y-102197133D01*
X136929477Y-102057465D01*
X136895346Y-101952422D01*
X136866220Y-101862781D01*
X136866218Y-101862778D01*
X136866218Y-101862776D01*
X136821571Y-101775153D01*
X136773287Y-101680390D01*
X136765556Y-101669749D01*
X136652971Y-101514786D01*
X136508213Y-101370028D01*
X136342614Y-101249715D01*
X136336006Y-101246348D01*
X136249917Y-101202483D01*
X136199123Y-101154511D01*
X136182328Y-101086690D01*
X136204865Y-101020555D01*
X136249917Y-100981516D01*
X136342610Y-100934287D01*
X136425198Y-100874284D01*
X136508213Y-100813971D01*
X136508215Y-100813968D01*
X136508219Y-100813966D01*
X136652966Y-100669219D01*
X136652968Y-100669215D01*
X136652971Y-100669213D01*
X136740150Y-100549219D01*
X136773287Y-100503610D01*
X136866220Y-100321219D01*
X136929477Y-100126534D01*
X136961500Y-99924352D01*
X136961500Y-99719648D01*
X136940915Y-99589682D01*
X136929477Y-99517465D01*
X136881057Y-99368446D01*
X136866220Y-99322781D01*
X136866218Y-99322778D01*
X136866218Y-99322776D01*
X136832055Y-99255729D01*
X136773287Y-99140390D01*
X136765556Y-99129749D01*
X136652971Y-98974786D01*
X136508213Y-98830028D01*
X136342613Y-98709715D01*
X136342612Y-98709714D01*
X136342610Y-98709713D01*
X136251302Y-98663189D01*
X136160223Y-98616781D01*
X135965534Y-98553522D01*
X135781327Y-98524347D01*
X135763352Y-98521500D01*
X135558648Y-98521500D01*
X135540673Y-98524347D01*
X135356465Y-98553522D01*
X135161776Y-98616781D01*
X134979386Y-98709715D01*
X134813786Y-98830028D01*
X134669028Y-98974786D01*
X134548715Y-99140386D01*
X134455781Y-99322776D01*
X134392522Y-99517465D01*
X134360500Y-99719648D01*
X134360500Y-99924351D01*
X134392522Y-100126534D01*
X134455781Y-100321223D01*
X134516090Y-100439584D01*
X134548585Y-100503359D01*
X134548715Y-100503613D01*
X134669028Y-100669213D01*
X134813786Y-100813971D01*
X134896806Y-100874287D01*
X134979390Y-100934287D01*
X135044025Y-100967220D01*
X135072080Y-100981515D01*
X135122876Y-101029490D01*
X135139671Y-101097311D01*
X135117134Y-101163446D01*
X135072080Y-101202485D01*
X134979386Y-101249715D01*
X134813786Y-101370028D01*
X134669028Y-101514786D01*
X134548715Y-101680386D01*
X134455781Y-101862776D01*
X134392522Y-102057465D01*
X134369087Y-102205431D01*
X134360500Y-102259648D01*
X134360500Y-102464352D01*
X134363494Y-102483253D01*
X134392522Y-102666534D01*
X134455781Y-102861223D01*
X134519691Y-102986653D01*
X134543805Y-103033978D01*
X134548715Y-103043613D01*
X134669028Y-103209213D01*
X134813786Y-103353971D01*
X134949069Y-103452258D01*
X134979390Y-103474287D01*
X135056509Y-103513581D01*
X135072080Y-103521515D01*
X135122876Y-103569490D01*
X135139671Y-103637311D01*
X135117134Y-103703446D01*
X135072080Y-103742485D01*
X134979386Y-103789715D01*
X134813786Y-103910028D01*
X134669028Y-104054786D01*
X134548715Y-104220386D01*
X134455781Y-104402776D01*
X134392522Y-104597465D01*
X134365615Y-104767351D01*
X134360500Y-104799648D01*
X134360500Y-105004352D01*
X134363494Y-105023253D01*
X134392522Y-105206534D01*
X134455781Y-105401223D01*
X134512228Y-105512004D01*
X134533057Y-105552884D01*
X134548715Y-105583613D01*
X134669028Y-105749213D01*
X134813786Y-105893971D01*
X134961560Y-106001333D01*
X134979390Y-106014287D01*
X135056144Y-106053395D01*
X135072080Y-106061515D01*
X135122876Y-106109490D01*
X135139671Y-106177311D01*
X135117134Y-106243446D01*
X135072080Y-106282485D01*
X134979386Y-106329715D01*
X134813786Y-106450028D01*
X134669028Y-106594786D01*
X134548715Y-106760385D01*
X134541883Y-106773795D01*
X134493909Y-106824591D01*
X134431398Y-106841500D01*
X133172097Y-106841500D01*
X133105058Y-106821815D01*
X133084416Y-106805181D01*
X132690574Y-106411339D01*
X132657089Y-106350016D01*
X132656638Y-106347849D01*
X132629317Y-106210500D01*
X132625737Y-106192503D01*
X132625322Y-106191500D01*
X132565397Y-106046827D01*
X132565390Y-106046814D01*
X132477789Y-105915711D01*
X132477786Y-105915707D01*
X132366292Y-105804213D01*
X132366288Y-105804210D01*
X132235185Y-105716609D01*
X132235172Y-105716602D01*
X132089501Y-105656264D01*
X132089489Y-105656261D01*
X131934845Y-105625500D01*
X131934842Y-105625500D01*
X131777158Y-105625500D01*
X131777155Y-105625500D01*
X131622510Y-105656261D01*
X131622498Y-105656264D01*
X131476827Y-105716602D01*
X131476814Y-105716609D01*
X131345711Y-105804210D01*
X131345707Y-105804213D01*
X131234213Y-105915707D01*
X131234210Y-105915711D01*
X131146609Y-106046814D01*
X131146602Y-106046827D01*
X131086264Y-106192498D01*
X131086261Y-106192510D01*
X131055500Y-106347153D01*
X131055500Y-106504846D01*
X131086261Y-106659489D01*
X131086264Y-106659501D01*
X131146602Y-106805172D01*
X131146607Y-106805181D01*
X131234210Y-106936288D01*
X131234213Y-106936292D01*
X131345707Y-107047786D01*
X131345711Y-107047789D01*
X131476814Y-107135390D01*
X131476827Y-107135397D01*
X131610666Y-107190834D01*
X131622503Y-107195737D01*
X131687147Y-107208595D01*
X131777849Y-107226638D01*
X131839760Y-107259023D01*
X131841339Y-107260574D01*
X132250584Y-107669819D01*
X132284069Y-107731142D01*
X132279085Y-107800834D01*
X132237213Y-107856767D01*
X132171749Y-107881184D01*
X132162903Y-107881500D01*
X129441848Y-107881500D01*
X129374809Y-107861815D01*
X129329054Y-107809011D01*
X129320231Y-107781692D01*
X129293738Y-107648508D01*
X129293737Y-107648507D01*
X129293737Y-107648503D01*
X129284468Y-107626125D01*
X129233397Y-107502827D01*
X129233390Y-107502814D01*
X129145789Y-107371711D01*
X129145786Y-107371707D01*
X129034292Y-107260213D01*
X129034288Y-107260210D01*
X128903185Y-107172609D01*
X128903172Y-107172602D01*
X128757501Y-107112264D01*
X128757491Y-107112261D01*
X128602149Y-107081361D01*
X128540238Y-107048976D01*
X128538660Y-107047425D01*
X128092819Y-106601584D01*
X128059334Y-106540261D01*
X128056500Y-106513903D01*
X128056500Y-105252389D01*
X128076185Y-105185350D01*
X128128989Y-105139595D01*
X128198147Y-105129651D01*
X128227952Y-105137828D01*
X128279284Y-105159090D01*
X128290503Y-105163737D01*
X128445153Y-105194499D01*
X128445156Y-105194500D01*
X128445158Y-105194500D01*
X128602844Y-105194500D01*
X128602845Y-105194499D01*
X128757497Y-105163737D01*
X128903179Y-105103394D01*
X129034289Y-105015789D01*
X129145789Y-104904289D01*
X129233394Y-104773179D01*
X129235809Y-104767350D01*
X129293735Y-104627501D01*
X129293737Y-104627497D01*
X129324500Y-104472842D01*
X129324500Y-104315158D01*
X129324500Y-104315155D01*
X129324499Y-104315153D01*
X129319280Y-104288916D01*
X129293737Y-104160503D01*
X129283965Y-104136910D01*
X129233397Y-104014827D01*
X129233390Y-104014814D01*
X129145789Y-103883711D01*
X129145786Y-103883707D01*
X129034292Y-103772213D01*
X129034288Y-103772210D01*
X128903185Y-103684609D01*
X128903172Y-103684602D01*
X128757501Y-103624264D01*
X128757491Y-103624261D01*
X128602151Y-103593362D01*
X128585395Y-103584597D01*
X128566915Y-103580577D01*
X128541877Y-103561833D01*
X128540241Y-103560977D01*
X128538661Y-103559425D01*
X128492818Y-103513581D01*
X128459334Y-103452258D01*
X128456500Y-103425901D01*
X128456500Y-99659648D01*
X130550500Y-99659648D01*
X130550500Y-99864351D01*
X130582522Y-100066534D01*
X130645781Y-100261223D01*
X130738715Y-100443613D01*
X130859028Y-100609213D01*
X131003786Y-100753971D01*
X131169385Y-100874284D01*
X131169387Y-100874285D01*
X131169390Y-100874287D01*
X131323459Y-100952789D01*
X131374254Y-101000762D01*
X131391049Y-101068583D01*
X131368512Y-101134718D01*
X131323459Y-101173757D01*
X131174388Y-101249713D01*
X131008786Y-101370028D01*
X130864028Y-101514786D01*
X130743715Y-101680386D01*
X130650781Y-101862776D01*
X130587522Y-102057465D01*
X130564087Y-102205431D01*
X130555500Y-102259648D01*
X130555500Y-102464352D01*
X130558494Y-102483253D01*
X130587522Y-102666534D01*
X130650781Y-102861223D01*
X130714691Y-102986653D01*
X130738805Y-103033978D01*
X130743715Y-103043613D01*
X130864028Y-103209213D01*
X131008786Y-103353971D01*
X131144069Y-103452258D01*
X131174390Y-103474287D01*
X131251509Y-103513581D01*
X131356776Y-103567218D01*
X131356778Y-103567218D01*
X131356781Y-103567220D01*
X131394126Y-103579354D01*
X131551465Y-103630477D01*
X131652557Y-103646488D01*
X131753648Y-103662500D01*
X131753649Y-103662500D01*
X131958351Y-103662500D01*
X131958352Y-103662500D01*
X132160534Y-103630477D01*
X132355219Y-103567220D01*
X132537610Y-103474287D01*
X132642378Y-103398169D01*
X132703213Y-103353971D01*
X132703215Y-103353968D01*
X132703219Y-103353966D01*
X132847966Y-103209219D01*
X132847968Y-103209215D01*
X132847971Y-103209213D01*
X132904432Y-103131500D01*
X132968287Y-103043610D01*
X133061220Y-102861219D01*
X133124477Y-102666534D01*
X133156500Y-102464352D01*
X133156500Y-102259648D01*
X133146598Y-102197133D01*
X133124477Y-102057465D01*
X133090346Y-101952422D01*
X133061220Y-101862781D01*
X133061218Y-101862778D01*
X133061218Y-101862776D01*
X133016571Y-101775153D01*
X132968287Y-101680390D01*
X132960556Y-101669749D01*
X132847971Y-101514786D01*
X132703213Y-101370028D01*
X132537614Y-101249715D01*
X132437283Y-101198594D01*
X132383540Y-101171210D01*
X132332745Y-101123236D01*
X132315950Y-101055415D01*
X132338487Y-100989281D01*
X132383539Y-100950242D01*
X132532610Y-100874287D01*
X132615629Y-100813971D01*
X132698213Y-100753971D01*
X132698215Y-100753968D01*
X132698219Y-100753966D01*
X132842966Y-100609219D01*
X132842968Y-100609215D01*
X132842971Y-100609213D01*
X132895732Y-100536590D01*
X132963287Y-100443610D01*
X133056220Y-100261219D01*
X133119477Y-100066534D01*
X133151500Y-99864352D01*
X133151500Y-99659648D01*
X133119477Y-99457466D01*
X133116810Y-99449259D01*
X133075715Y-99322781D01*
X133056220Y-99262781D01*
X133056218Y-99262778D01*
X133056218Y-99262776D01*
X133018469Y-99188690D01*
X132963287Y-99080390D01*
X132938226Y-99045896D01*
X132842971Y-98914786D01*
X132698213Y-98770028D01*
X132532613Y-98649715D01*
X132532612Y-98649714D01*
X132532610Y-98649713D01*
X132467979Y-98616782D01*
X132350223Y-98556781D01*
X132155534Y-98493522D01*
X131980995Y-98465878D01*
X131953352Y-98461500D01*
X131748648Y-98461500D01*
X131724329Y-98465351D01*
X131546465Y-98493522D01*
X131351776Y-98556781D01*
X131169386Y-98649715D01*
X131003786Y-98770028D01*
X130859028Y-98914786D01*
X130738715Y-99080386D01*
X130645781Y-99262776D01*
X130582522Y-99457465D01*
X130550500Y-99659648D01*
X128456500Y-99659648D01*
X128456500Y-98687855D01*
X128456501Y-98687842D01*
X128456501Y-98519741D01*
X128456501Y-98519739D01*
X128415577Y-98367011D01*
X128367628Y-98283961D01*
X128336520Y-98230080D01*
X128224716Y-98118276D01*
X128224715Y-98118275D01*
X128220385Y-98113945D01*
X128220374Y-98113935D01*
X127317533Y-97211094D01*
X127284048Y-97149771D01*
X127289032Y-97080079D01*
X127304896Y-97050527D01*
X127379859Y-96947349D01*
X127472755Y-96765031D01*
X127535990Y-96570417D01*
X127568000Y-96368317D01*
X127568000Y-96163682D01*
X127535990Y-95961582D01*
X127472755Y-95766968D01*
X127379859Y-95584650D01*
X127347474Y-95540077D01*
X127347474Y-95540076D01*
X126668000Y-96219551D01*
X126668000Y-96213339D01*
X126640741Y-96111606D01*
X126588080Y-96020394D01*
X126513606Y-95945920D01*
X126422394Y-95893259D01*
X126320661Y-95866000D01*
X126314446Y-95866000D01*
X126993922Y-95186524D01*
X126993921Y-95186523D01*
X126949359Y-95154147D01*
X126949350Y-95154141D01*
X126855819Y-95106485D01*
X126805023Y-95058511D01*
X126788228Y-94990690D01*
X126810765Y-94924555D01*
X126855820Y-94885515D01*
X126949346Y-94837861D01*
X126949347Y-94837861D01*
X126993921Y-94805474D01*
X126314447Y-94126000D01*
X126320661Y-94126000D01*
X126422394Y-94098741D01*
X126513606Y-94046080D01*
X126588080Y-93971606D01*
X126640741Y-93880394D01*
X126668000Y-93778661D01*
X126668000Y-93772447D01*
X127347474Y-94451921D01*
X127379859Y-94407349D01*
X127472755Y-94225031D01*
X127535990Y-94030417D01*
X127568000Y-93828317D01*
X127568000Y-93623682D01*
X127535990Y-93421582D01*
X127472755Y-93226968D01*
X127379859Y-93044650D01*
X127347474Y-93000077D01*
X127347474Y-93000076D01*
X126668000Y-93679551D01*
X126668000Y-93673339D01*
X126640741Y-93571606D01*
X126588080Y-93480394D01*
X126513606Y-93405920D01*
X126422394Y-93353259D01*
X126320661Y-93326000D01*
X126314446Y-93326000D01*
X126993922Y-92646524D01*
X126993921Y-92646523D01*
X126949359Y-92614147D01*
X126949350Y-92614141D01*
X126855819Y-92566485D01*
X126805023Y-92518511D01*
X126788228Y-92450690D01*
X126810765Y-92384555D01*
X126855820Y-92345515D01*
X126949346Y-92297861D01*
X126949347Y-92297861D01*
X126993921Y-92265474D01*
X126314447Y-91586000D01*
X126320661Y-91586000D01*
X126422394Y-91558741D01*
X126513606Y-91506080D01*
X126588080Y-91431606D01*
X126640741Y-91340394D01*
X126668000Y-91238661D01*
X126668000Y-91232447D01*
X127347474Y-91911921D01*
X127379859Y-91867349D01*
X127472755Y-91685031D01*
X127535990Y-91490417D01*
X127568000Y-91288317D01*
X127568000Y-91083682D01*
X127535990Y-90881582D01*
X127472755Y-90686968D01*
X127379859Y-90504650D01*
X127347474Y-90460077D01*
X127347474Y-90460076D01*
X126668000Y-91139551D01*
X126668000Y-91133339D01*
X126640741Y-91031606D01*
X126588080Y-90940394D01*
X126513606Y-90865920D01*
X126422394Y-90813259D01*
X126320661Y-90786000D01*
X126314446Y-90786000D01*
X126993922Y-90106524D01*
X126993921Y-90106523D01*
X126949359Y-90074147D01*
X126949350Y-90074141D01*
X126855819Y-90026485D01*
X126805023Y-89978511D01*
X126788228Y-89910690D01*
X126810765Y-89844555D01*
X126855820Y-89805515D01*
X126949346Y-89757861D01*
X126949347Y-89757861D01*
X126993921Y-89725474D01*
X126314447Y-89046000D01*
X126320661Y-89046000D01*
X126422394Y-89018741D01*
X126513606Y-88966080D01*
X126588080Y-88891606D01*
X126640741Y-88800394D01*
X126668000Y-88698661D01*
X126668000Y-88692447D01*
X127347474Y-89371921D01*
X127379859Y-89327349D01*
X127472755Y-89145031D01*
X127535990Y-88950417D01*
X127568000Y-88748317D01*
X127568000Y-88612283D01*
X127587685Y-88545244D01*
X127640489Y-88499489D01*
X127709647Y-88489545D01*
X127773203Y-88518570D01*
G37*
%TD.AperFunction*%
%TA.AperFunction,Conductor*%
G36*
X144786703Y-102177385D02*
G01*
X144793181Y-102183417D01*
X146383527Y-103773763D01*
X146417012Y-103835086D01*
X146412028Y-103904777D01*
X146359908Y-104044517D01*
X146353501Y-104104116D01*
X146353500Y-104104135D01*
X146353500Y-105699870D01*
X146353501Y-105699876D01*
X146359908Y-105759483D01*
X146410202Y-105894328D01*
X146410206Y-105894335D01*
X146496452Y-106009544D01*
X146496455Y-106009547D01*
X146611664Y-106095793D01*
X146611671Y-106095797D01*
X146746517Y-106146091D01*
X146746516Y-106146091D01*
X146753444Y-106146835D01*
X146806127Y-106152500D01*
X148401872Y-106152499D01*
X148461483Y-106146091D01*
X148596331Y-106095796D01*
X148711546Y-106009546D01*
X148797796Y-105894331D01*
X148848091Y-105759483D01*
X148854500Y-105699873D01*
X148854499Y-104201234D01*
X148874184Y-104134196D01*
X148926987Y-104088441D01*
X148978499Y-104077235D01*
X163790168Y-104077235D01*
X163857207Y-104096920D01*
X163902962Y-104149724D01*
X163912906Y-104218882D01*
X163883881Y-104282438D01*
X163877849Y-104288916D01*
X160321584Y-107845181D01*
X160260261Y-107878666D01*
X160233903Y-107881500D01*
X153586685Y-107881500D01*
X153507628Y-107881499D01*
X153507624Y-107881500D01*
X153507623Y-107881500D01*
X153484006Y-107887828D01*
X153354898Y-107922421D01*
X153350735Y-107923810D01*
X153350501Y-107923109D01*
X153308317Y-107931500D01*
X151470477Y-107931500D01*
X151403438Y-107911815D01*
X151357683Y-107859011D01*
X151347739Y-107789853D01*
X151352547Y-107769180D01*
X151363707Y-107734833D01*
X151363707Y-107734831D01*
X151363709Y-107734826D01*
X151383179Y-107611897D01*
X151394500Y-107540422D01*
X151394500Y-107343577D01*
X151363709Y-107149173D01*
X151335487Y-107062317D01*
X151302884Y-106961975D01*
X151302882Y-106961972D01*
X151302882Y-106961970D01*
X151248456Y-106855153D01*
X151213524Y-106786595D01*
X151097828Y-106627354D01*
X150958646Y-106488172D01*
X150799405Y-106372476D01*
X150790483Y-106367930D01*
X150624029Y-106283117D01*
X150436826Y-106222290D01*
X150242422Y-106191500D01*
X150242417Y-106191500D01*
X150045583Y-106191500D01*
X150045578Y-106191500D01*
X149851173Y-106222290D01*
X149663970Y-106283117D01*
X149488594Y-106372476D01*
X149418155Y-106423654D01*
X149329354Y-106488172D01*
X149329352Y-106488174D01*
X149329351Y-106488174D01*
X149190174Y-106627351D01*
X149190174Y-106627352D01*
X149190172Y-106627354D01*
X149166819Y-106659497D01*
X149074476Y-106786594D01*
X148985117Y-106961970D01*
X148924290Y-107149173D01*
X148893500Y-107343577D01*
X148893500Y-107540422D01*
X148924291Y-107734827D01*
X148924292Y-107734833D01*
X148935453Y-107769180D01*
X148937450Y-107839021D01*
X148901370Y-107898855D01*
X148838670Y-107929684D01*
X148817523Y-107931500D01*
X147023185Y-107931500D01*
X146924363Y-107931495D01*
X146924344Y-107931500D01*
X146924333Y-107931500D01*
X146902779Y-107937275D01*
X146870688Y-107941500D01*
X144705000Y-107941500D01*
X144637961Y-107921815D01*
X144592206Y-107869011D01*
X144581000Y-107817500D01*
X144581000Y-107692000D01*
X143596686Y-107692000D01*
X143601080Y-107687606D01*
X143653741Y-107596394D01*
X143681000Y-107494661D01*
X143681000Y-107389339D01*
X143653741Y-107287606D01*
X143601080Y-107196394D01*
X143596686Y-107192000D01*
X144580999Y-107192000D01*
X144580999Y-106842028D01*
X144580998Y-106842013D01*
X144570505Y-106739302D01*
X144515358Y-106572880D01*
X144515356Y-106572875D01*
X144423315Y-106423654D01*
X144299345Y-106299684D01*
X144150124Y-106207643D01*
X144150119Y-106207641D01*
X144067931Y-106180407D01*
X144010486Y-106140634D01*
X143983663Y-106076119D01*
X143995978Y-106007343D01*
X144034049Y-105962383D01*
X144128219Y-105893966D01*
X144272966Y-105749219D01*
X144272968Y-105749215D01*
X144272971Y-105749213D01*
X144331023Y-105669310D01*
X144393287Y-105583610D01*
X144486220Y-105401219D01*
X144549477Y-105206534D01*
X144581500Y-105004352D01*
X144581500Y-104799648D01*
X144564717Y-104693688D01*
X144549477Y-104597465D01*
X144520127Y-104507137D01*
X144486220Y-104402781D01*
X144486218Y-104402778D01*
X144486218Y-104402776D01*
X144452503Y-104336607D01*
X144393287Y-104220390D01*
X144349777Y-104160503D01*
X144272971Y-104054786D01*
X144128213Y-103910028D01*
X143962614Y-103789715D01*
X143896464Y-103756010D01*
X143869917Y-103742483D01*
X143819123Y-103694511D01*
X143802328Y-103626690D01*
X143824865Y-103560555D01*
X143869917Y-103521516D01*
X143962610Y-103474287D01*
X144059982Y-103403543D01*
X144128213Y-103353971D01*
X144128215Y-103353968D01*
X144128219Y-103353966D01*
X144272966Y-103209219D01*
X144272968Y-103209215D01*
X144272971Y-103209213D01*
X144329432Y-103131500D01*
X144393287Y-103043610D01*
X144486220Y-102861219D01*
X144549477Y-102666534D01*
X144581500Y-102464352D01*
X144581500Y-102271098D01*
X144601185Y-102204059D01*
X144653989Y-102158304D01*
X144723147Y-102148360D01*
X144786703Y-102177385D01*
G37*
%TD.AperFunction*%
%TA.AperFunction,Conductor*%
G36*
X160548942Y-95870185D02*
G01*
X160569584Y-95886819D01*
X162177181Y-97494416D01*
X162210666Y-97555739D01*
X162213500Y-97582097D01*
X162213500Y-98620912D01*
X162193815Y-98687951D01*
X162141011Y-98733706D01*
X162071853Y-98743650D01*
X162016617Y-98721232D01*
X162001351Y-98710141D01*
X161819031Y-98617244D01*
X161624417Y-98554009D01*
X161422317Y-98522000D01*
X161217683Y-98522000D01*
X161015582Y-98554009D01*
X160820968Y-98617244D01*
X160638644Y-98710143D01*
X160594077Y-98742523D01*
X160594077Y-98742524D01*
X161273553Y-99422000D01*
X161267339Y-99422000D01*
X161165606Y-99449259D01*
X161074394Y-99501920D01*
X160999920Y-99576394D01*
X160947259Y-99667606D01*
X160920000Y-99769339D01*
X160920000Y-99775553D01*
X160240524Y-99096077D01*
X160240523Y-99096077D01*
X160208143Y-99140644D01*
X160115244Y-99322968D01*
X160052009Y-99517582D01*
X160020000Y-99719682D01*
X160020000Y-99924317D01*
X160052009Y-100126417D01*
X160115244Y-100321031D01*
X160208141Y-100503350D01*
X160208147Y-100503359D01*
X160240523Y-100547921D01*
X160240524Y-100547922D01*
X160920000Y-99868446D01*
X160920000Y-99874661D01*
X160947259Y-99976394D01*
X160999920Y-100067606D01*
X161074394Y-100142080D01*
X161165606Y-100194741D01*
X161267339Y-100222000D01*
X161273552Y-100222000D01*
X160594076Y-100901474D01*
X160638650Y-100933859D01*
X160820968Y-101026755D01*
X161015582Y-101089990D01*
X161217683Y-101122000D01*
X161422317Y-101122000D01*
X161624417Y-101089990D01*
X161819031Y-101026755D01*
X162001353Y-100933857D01*
X162016614Y-100922770D01*
X162082420Y-100899289D01*
X162150474Y-100915114D01*
X162199169Y-100965219D01*
X162213500Y-101023087D01*
X162213500Y-101274234D01*
X162193815Y-101341273D01*
X162192602Y-101343125D01*
X162104609Y-101474814D01*
X162104602Y-101474827D01*
X162044264Y-101620498D01*
X162044261Y-101620510D01*
X162013500Y-101775153D01*
X162013500Y-101932846D01*
X162044261Y-102087489D01*
X162044264Y-102087501D01*
X162104602Y-102233172D01*
X162104609Y-102233185D01*
X162192210Y-102364288D01*
X162192213Y-102364292D01*
X162303707Y-102475786D01*
X162303711Y-102475789D01*
X162434814Y-102563390D01*
X162434827Y-102563397D01*
X162545168Y-102609101D01*
X162580503Y-102623737D01*
X162580507Y-102623737D01*
X162580508Y-102623738D01*
X162615094Y-102630618D01*
X162677005Y-102663003D01*
X162711579Y-102723719D01*
X162707839Y-102793488D01*
X162666972Y-102850160D01*
X162601954Y-102875741D01*
X162590902Y-102876235D01*
X155579013Y-102876235D01*
X155511974Y-102856550D01*
X155466219Y-102803746D01*
X155456275Y-102734588D01*
X155461082Y-102713917D01*
X155476476Y-102666538D01*
X155476476Y-102666537D01*
X155476477Y-102666534D01*
X155508500Y-102464352D01*
X155508500Y-102259648D01*
X155498598Y-102197133D01*
X155476477Y-102057465D01*
X155442346Y-101952422D01*
X155413220Y-101862781D01*
X155413218Y-101862778D01*
X155413218Y-101862776D01*
X155368571Y-101775153D01*
X155320287Y-101680390D01*
X155312556Y-101669749D01*
X155199971Y-101514786D01*
X155055213Y-101370028D01*
X154889613Y-101249715D01*
X154889612Y-101249714D01*
X154889610Y-101249713D01*
X154707219Y-101156780D01*
X154686138Y-101149930D01*
X154628463Y-101110493D01*
X154601265Y-101046135D01*
X154613180Y-100977289D01*
X154660424Y-100925813D01*
X154686136Y-100914070D01*
X154707219Y-100907220D01*
X154889610Y-100814287D01*
X154972629Y-100753971D01*
X154972732Y-100753896D01*
X154972734Y-100753895D01*
X155055212Y-100693971D01*
X155055210Y-100693971D01*
X155055219Y-100693966D01*
X155199966Y-100549219D01*
X155199968Y-100549215D01*
X155199971Y-100549213D01*
X155253090Y-100476099D01*
X155320287Y-100383610D01*
X155413220Y-100201219D01*
X155476477Y-100006534D01*
X155508500Y-99804352D01*
X155508500Y-99719682D01*
X156459000Y-99719682D01*
X156459000Y-99924317D01*
X156491009Y-100126417D01*
X156554244Y-100321031D01*
X156647141Y-100503350D01*
X156647147Y-100503359D01*
X156679523Y-100547921D01*
X156679524Y-100547922D01*
X157359000Y-99868446D01*
X157359000Y-99874661D01*
X157386259Y-99976394D01*
X157438920Y-100067606D01*
X157513394Y-100142080D01*
X157604606Y-100194741D01*
X157706339Y-100222000D01*
X157712553Y-100222000D01*
X157033076Y-100901474D01*
X157077650Y-100933859D01*
X157259968Y-101026755D01*
X157454582Y-101089990D01*
X157656683Y-101122000D01*
X157861317Y-101122000D01*
X158063417Y-101089990D01*
X158258031Y-101026755D01*
X158440349Y-100933859D01*
X158484921Y-100901474D01*
X157805447Y-100222000D01*
X157811661Y-100222000D01*
X157913394Y-100194741D01*
X158004606Y-100142080D01*
X158079080Y-100067606D01*
X158131741Y-99976394D01*
X158159000Y-99874661D01*
X158159000Y-99868447D01*
X158838474Y-100547921D01*
X158870859Y-100503349D01*
X158963755Y-100321031D01*
X159026990Y-100126417D01*
X159059000Y-99924317D01*
X159059000Y-99719682D01*
X159026990Y-99517582D01*
X158963755Y-99322968D01*
X158870859Y-99140650D01*
X158838474Y-99096077D01*
X158838474Y-99096076D01*
X158159000Y-99775551D01*
X158159000Y-99769339D01*
X158131741Y-99667606D01*
X158079080Y-99576394D01*
X158004606Y-99501920D01*
X157913394Y-99449259D01*
X157811661Y-99422000D01*
X157805446Y-99422000D01*
X158484922Y-98742524D01*
X158484921Y-98742523D01*
X158440359Y-98710147D01*
X158440350Y-98710141D01*
X158258031Y-98617244D01*
X158063417Y-98554009D01*
X157861317Y-98522000D01*
X157656683Y-98522000D01*
X157454582Y-98554009D01*
X157259968Y-98617244D01*
X157077644Y-98710143D01*
X157033077Y-98742523D01*
X157033077Y-98742524D01*
X157712554Y-99422000D01*
X157706339Y-99422000D01*
X157604606Y-99449259D01*
X157513394Y-99501920D01*
X157438920Y-99576394D01*
X157386259Y-99667606D01*
X157359000Y-99769339D01*
X157359000Y-99775553D01*
X156679524Y-99096077D01*
X156679523Y-99096077D01*
X156647143Y-99140644D01*
X156554244Y-99322968D01*
X156491009Y-99517582D01*
X156459000Y-99719682D01*
X155508500Y-99719682D01*
X155508500Y-99599648D01*
X155495502Y-99517582D01*
X155476477Y-99397465D01*
X155432715Y-99262781D01*
X155413220Y-99202781D01*
X155413218Y-99202778D01*
X155413218Y-99202776D01*
X155370285Y-99118517D01*
X155320287Y-99020390D01*
X155293604Y-98983664D01*
X155205697Y-98862668D01*
X155205696Y-98862667D01*
X155199969Y-98854784D01*
X155055213Y-98710028D01*
X154889613Y-98589715D01*
X154889612Y-98589714D01*
X154889610Y-98589713D01*
X154832653Y-98560691D01*
X154707223Y-98496781D01*
X154512534Y-98433522D01*
X154337995Y-98405878D01*
X154310352Y-98401500D01*
X154105648Y-98401500D01*
X154081329Y-98405351D01*
X153903465Y-98433522D01*
X153708776Y-98496781D01*
X153526386Y-98589715D01*
X153360786Y-98710028D01*
X153216028Y-98854786D01*
X153095715Y-99020386D01*
X153002781Y-99202776D01*
X152939522Y-99397465D01*
X152907500Y-99599648D01*
X152907500Y-99804351D01*
X152939522Y-100006534D01*
X153002781Y-100201223D01*
X153063827Y-100321031D01*
X153079557Y-100351903D01*
X153095715Y-100383613D01*
X153216028Y-100549213D01*
X153360786Y-100693971D01*
X153484450Y-100783816D01*
X153526390Y-100814287D01*
X153708781Y-100907220D01*
X153729863Y-100914070D01*
X153787536Y-100953508D01*
X153814734Y-101017867D01*
X153802819Y-101086713D01*
X153755574Y-101138188D01*
X153729866Y-101149928D01*
X153708781Y-101156780D01*
X153708775Y-101156782D01*
X153526386Y-101249715D01*
X153360786Y-101370028D01*
X153216028Y-101514786D01*
X153095715Y-101680386D01*
X153002781Y-101862776D01*
X152939522Y-102057465D01*
X152916087Y-102205431D01*
X152907500Y-102259648D01*
X152907500Y-102464352D01*
X152910494Y-102483253D01*
X152939523Y-102666535D01*
X152939523Y-102666538D01*
X152954918Y-102713917D01*
X152956913Y-102783758D01*
X152920833Y-102843591D01*
X152858132Y-102874419D01*
X152836987Y-102876235D01*
X147235833Y-102876235D01*
X147168794Y-102856550D01*
X147148152Y-102839916D01*
X144575077Y-100266842D01*
X144541592Y-100205519D01*
X144544828Y-100140841D01*
X144549477Y-100126534D01*
X144581500Y-99924352D01*
X144581500Y-99719648D01*
X145795500Y-99719648D01*
X145795500Y-99924351D01*
X145827522Y-100126534D01*
X145890781Y-100321223D01*
X145951090Y-100439584D01*
X145983585Y-100503359D01*
X145983715Y-100503613D01*
X146104028Y-100669213D01*
X146248786Y-100813971D01*
X146331806Y-100874287D01*
X146414390Y-100934287D01*
X146507080Y-100981515D01*
X146596776Y-101027218D01*
X146596778Y-101027218D01*
X146596781Y-101027220D01*
X146683556Y-101055415D01*
X146791465Y-101090477D01*
X146890129Y-101106104D01*
X146993648Y-101122500D01*
X146993649Y-101122500D01*
X147198351Y-101122500D01*
X147198352Y-101122500D01*
X147400534Y-101090477D01*
X147595219Y-101027220D01*
X147777610Y-100934287D01*
X147870590Y-100866732D01*
X147943213Y-100813971D01*
X147943215Y-100813968D01*
X147943219Y-100813966D01*
X148087966Y-100669219D01*
X148087968Y-100669215D01*
X148087971Y-100669213D01*
X148175150Y-100549219D01*
X148208287Y-100503610D01*
X148301220Y-100321219D01*
X148364477Y-100126534D01*
X148396500Y-99924352D01*
X148396500Y-99719648D01*
X149351500Y-99719648D01*
X149351500Y-99924351D01*
X149383522Y-100126534D01*
X149446781Y-100321223D01*
X149507090Y-100439584D01*
X149539585Y-100503359D01*
X149539715Y-100503613D01*
X149660028Y-100669213D01*
X149804786Y-100813971D01*
X149887806Y-100874287D01*
X149970390Y-100934287D01*
X150063080Y-100981515D01*
X150152776Y-101027218D01*
X150152778Y-101027218D01*
X150152781Y-101027220D01*
X150239556Y-101055415D01*
X150347465Y-101090477D01*
X150446129Y-101106104D01*
X150549648Y-101122500D01*
X150549649Y-101122500D01*
X150754351Y-101122500D01*
X150754352Y-101122500D01*
X150956534Y-101090477D01*
X151151219Y-101027220D01*
X151333610Y-100934287D01*
X151426590Y-100866732D01*
X151499213Y-100813971D01*
X151499215Y-100813968D01*
X151499219Y-100813966D01*
X151643966Y-100669219D01*
X151643968Y-100669215D01*
X151643971Y-100669213D01*
X151731150Y-100549219D01*
X151764287Y-100503610D01*
X151857220Y-100321219D01*
X151920477Y-100126534D01*
X151952500Y-99924352D01*
X151952500Y-99719648D01*
X151931915Y-99589682D01*
X151920477Y-99517465D01*
X151872057Y-99368446D01*
X151857220Y-99322781D01*
X151857218Y-99322778D01*
X151857218Y-99322776D01*
X151823055Y-99255729D01*
X151764287Y-99140390D01*
X151756556Y-99129749D01*
X151643971Y-98974786D01*
X151499213Y-98830028D01*
X151333613Y-98709715D01*
X151333612Y-98709714D01*
X151333610Y-98709713D01*
X151242302Y-98663189D01*
X151151223Y-98616781D01*
X150956534Y-98553522D01*
X150772327Y-98524347D01*
X150754352Y-98521500D01*
X150549648Y-98521500D01*
X150531673Y-98524347D01*
X150347465Y-98553522D01*
X150152776Y-98616781D01*
X149970386Y-98709715D01*
X149804786Y-98830028D01*
X149660028Y-98974786D01*
X149539715Y-99140386D01*
X149446781Y-99322776D01*
X149383522Y-99517465D01*
X149351500Y-99719648D01*
X148396500Y-99719648D01*
X148375915Y-99589682D01*
X148364477Y-99517465D01*
X148316057Y-99368446D01*
X148301220Y-99322781D01*
X148301218Y-99322778D01*
X148301218Y-99322776D01*
X148267055Y-99255729D01*
X148208287Y-99140390D01*
X148200556Y-99129749D01*
X148087971Y-98974786D01*
X147943213Y-98830028D01*
X147777613Y-98709715D01*
X147777612Y-98709714D01*
X147777610Y-98709713D01*
X147686302Y-98663189D01*
X147595223Y-98616781D01*
X147400534Y-98553522D01*
X147216327Y-98524347D01*
X147198352Y-98521500D01*
X146993648Y-98521500D01*
X146975673Y-98524347D01*
X146791465Y-98553522D01*
X146596776Y-98616781D01*
X146414386Y-98709715D01*
X146248786Y-98830028D01*
X146104028Y-98974786D01*
X145983715Y-99140386D01*
X145890781Y-99322776D01*
X145827522Y-99517465D01*
X145795500Y-99719648D01*
X144581500Y-99719648D01*
X144560915Y-99589682D01*
X144549477Y-99517465D01*
X144501057Y-99368446D01*
X144486220Y-99322781D01*
X144486218Y-99322778D01*
X144486218Y-99322776D01*
X144452055Y-99255729D01*
X144393287Y-99140390D01*
X144382082Y-99124968D01*
X144272972Y-98974788D01*
X144272968Y-98974784D01*
X144272966Y-98974781D01*
X144146818Y-98848633D01*
X144113334Y-98787310D01*
X144110500Y-98760952D01*
X144110500Y-96429765D01*
X144130185Y-96362726D01*
X144131398Y-96360874D01*
X144135260Y-96355095D01*
X144219394Y-96229179D01*
X144279737Y-96083497D01*
X144292623Y-96018716D01*
X144306231Y-95950308D01*
X144338616Y-95888397D01*
X144399332Y-95853823D01*
X144427848Y-95850500D01*
X160481903Y-95850500D01*
X160548942Y-95870185D01*
G37*
%TD.AperFunction*%
%TA.AperFunction,Conductor*%
G36*
X137928403Y-70370185D02*
G01*
X137974158Y-70422989D01*
X137984102Y-70492147D01*
X137961682Y-70547386D01*
X137856140Y-70692650D01*
X137763244Y-70874968D01*
X137700009Y-71069582D01*
X137668000Y-71271682D01*
X137668000Y-71476317D01*
X137700009Y-71678417D01*
X137763244Y-71873031D01*
X137856141Y-72055350D01*
X137856147Y-72055359D01*
X137888523Y-72099921D01*
X137888524Y-72099922D01*
X138568000Y-71420446D01*
X138568000Y-71426661D01*
X138595259Y-71528394D01*
X138647920Y-71619606D01*
X138722394Y-71694080D01*
X138813606Y-71746741D01*
X138915339Y-71774000D01*
X138921553Y-71774000D01*
X138242076Y-72453474D01*
X138286650Y-72485859D01*
X138468968Y-72578755D01*
X138663582Y-72641990D01*
X138865683Y-72674000D01*
X139070317Y-72674000D01*
X139272417Y-72641990D01*
X139467031Y-72578755D01*
X139649349Y-72485859D01*
X139693921Y-72453474D01*
X139014447Y-71774000D01*
X139020661Y-71774000D01*
X139122394Y-71746741D01*
X139213606Y-71694080D01*
X139288080Y-71619606D01*
X139340741Y-71528394D01*
X139368000Y-71426661D01*
X139368000Y-71420447D01*
X140047474Y-72099921D01*
X140079859Y-72055349D01*
X140172755Y-71873031D01*
X140235990Y-71678417D01*
X140268000Y-71476317D01*
X140268000Y-71271682D01*
X140235990Y-71069582D01*
X140172755Y-70874968D01*
X140079859Y-70692650D01*
X139974318Y-70547386D01*
X139950838Y-70481579D01*
X139966663Y-70413525D01*
X140016769Y-70364831D01*
X140074636Y-70350500D01*
X144850691Y-70350500D01*
X144917730Y-70370185D01*
X144938372Y-70386819D01*
X145525554Y-70974000D01*
X145519339Y-70974000D01*
X145417606Y-71001259D01*
X145326394Y-71053920D01*
X145251920Y-71128394D01*
X145199259Y-71219606D01*
X145172000Y-71321339D01*
X145172000Y-71327552D01*
X144528320Y-70683872D01*
X144528320Y-70683873D01*
X144502902Y-70718859D01*
X144502899Y-70718863D01*
X144413582Y-70894161D01*
X144352778Y-71081294D01*
X144322000Y-71275617D01*
X144322000Y-71472382D01*
X144352778Y-71666705D01*
X144413581Y-71853835D01*
X144502905Y-72029145D01*
X144528319Y-72064125D01*
X144528320Y-72064125D01*
X145172000Y-71420445D01*
X145172000Y-71426661D01*
X145199259Y-71528394D01*
X145251920Y-71619606D01*
X145326394Y-71694080D01*
X145417606Y-71746741D01*
X145519339Y-71774000D01*
X145525553Y-71774000D01*
X144881873Y-72417677D01*
X144881873Y-72417678D01*
X144916858Y-72443096D01*
X145092164Y-72532418D01*
X145279294Y-72593221D01*
X145473618Y-72624000D01*
X145670382Y-72624000D01*
X145864705Y-72593221D01*
X146051835Y-72532418D01*
X146227143Y-72443095D01*
X146262125Y-72417678D01*
X146262126Y-72417678D01*
X145618448Y-71774000D01*
X145624661Y-71774000D01*
X145726394Y-71746741D01*
X145817606Y-71694080D01*
X145892080Y-71619606D01*
X145944741Y-71528394D01*
X145972000Y-71426661D01*
X145972000Y-71420448D01*
X146615678Y-72064126D01*
X146615678Y-72064125D01*
X146641095Y-72029143D01*
X146730418Y-71853835D01*
X146791221Y-71666705D01*
X146822000Y-71472382D01*
X146822000Y-71275617D01*
X146791221Y-71081294D01*
X146730418Y-70894164D01*
X146641096Y-70718858D01*
X146615678Y-70683873D01*
X146615677Y-70683873D01*
X145972000Y-71327551D01*
X145972000Y-71321339D01*
X145944741Y-71219606D01*
X145892080Y-71128394D01*
X145817606Y-71053920D01*
X145726394Y-71001259D01*
X145624661Y-70974000D01*
X145618446Y-70974000D01*
X146205628Y-70386819D01*
X146266951Y-70353334D01*
X146293309Y-70350500D01*
X160212745Y-70350500D01*
X160279784Y-70370185D01*
X160325539Y-70422989D01*
X160335483Y-70492147D01*
X160313064Y-70547385D01*
X160207712Y-70692390D01*
X160114781Y-70874776D01*
X160051522Y-71069465D01*
X160019500Y-71271648D01*
X160019500Y-71476351D01*
X160051522Y-71678534D01*
X160056173Y-71692848D01*
X160058165Y-71762690D01*
X160025921Y-71818842D01*
X158723673Y-73121090D01*
X158662350Y-73154575D01*
X158592658Y-73149591D01*
X158536725Y-73107719D01*
X158535674Y-73106294D01*
X158506969Y-73066784D01*
X158362213Y-72922028D01*
X158196613Y-72801715D01*
X158196612Y-72801714D01*
X158196610Y-72801713D01*
X158136788Y-72771232D01*
X158014223Y-72708781D01*
X157819534Y-72645522D01*
X157622693Y-72614346D01*
X157617352Y-72613500D01*
X157412648Y-72613500D01*
X157407307Y-72614346D01*
X157210465Y-72645522D01*
X157015776Y-72708781D01*
X156833386Y-72801715D01*
X156667786Y-72922028D01*
X156523028Y-73066786D01*
X156402715Y-73232386D01*
X156309781Y-73414776D01*
X156246522Y-73609465D01*
X156214500Y-73811648D01*
X156214500Y-74016351D01*
X156246522Y-74218534D01*
X156251173Y-74232848D01*
X156253165Y-74302690D01*
X156220921Y-74358842D01*
X151407181Y-79172583D01*
X151345858Y-79206068D01*
X151276166Y-79201084D01*
X151220233Y-79159212D01*
X151195816Y-79093748D01*
X151195500Y-79084902D01*
X151195500Y-78891648D01*
X151163477Y-78689465D01*
X151117591Y-78548243D01*
X151100220Y-78494781D01*
X151100218Y-78494778D01*
X151100218Y-78494776D01*
X151059343Y-78414555D01*
X151007287Y-78312390D01*
X150987767Y-78285523D01*
X150886971Y-78146786D01*
X150742213Y-78002028D01*
X150576614Y-77881715D01*
X150556379Y-77871405D01*
X150483917Y-77834483D01*
X150433123Y-77786511D01*
X150416328Y-77718690D01*
X150438865Y-77652555D01*
X150483917Y-77613516D01*
X150576610Y-77566287D01*
X150600621Y-77548842D01*
X150742213Y-77445971D01*
X150742215Y-77445968D01*
X150742219Y-77445966D01*
X150886966Y-77301219D01*
X150886968Y-77301215D01*
X150886971Y-77301213D01*
X150960070Y-77200599D01*
X151007287Y-77135610D01*
X151100220Y-76953219D01*
X151163477Y-76758534D01*
X151195500Y-76556352D01*
X151195500Y-76351648D01*
X151187399Y-76300500D01*
X151163477Y-76149465D01*
X151117591Y-76008243D01*
X151100220Y-75954781D01*
X151100218Y-75954778D01*
X151100218Y-75954776D01*
X151059343Y-75874555D01*
X151007287Y-75772390D01*
X150987768Y-75745524D01*
X150886971Y-75606786D01*
X150742217Y-75462032D01*
X150742212Y-75462028D01*
X150648051Y-75393616D01*
X150605385Y-75338286D01*
X150599406Y-75268673D01*
X150632012Y-75206878D01*
X150681933Y-75175592D01*
X150764117Y-75148359D01*
X150764124Y-75148356D01*
X150913345Y-75056315D01*
X151037315Y-74932345D01*
X151129356Y-74783124D01*
X151129358Y-74783119D01*
X151184505Y-74616697D01*
X151184506Y-74616690D01*
X151194999Y-74513986D01*
X151195000Y-74513973D01*
X151195000Y-74164000D01*
X150210686Y-74164000D01*
X150215080Y-74159606D01*
X150267741Y-74068394D01*
X150295000Y-73966661D01*
X150295000Y-73861339D01*
X150267741Y-73759606D01*
X150215080Y-73668394D01*
X150210686Y-73664000D01*
X151194999Y-73664000D01*
X151194999Y-73314028D01*
X151194998Y-73314013D01*
X151184505Y-73211302D01*
X151129358Y-73044880D01*
X151129356Y-73044875D01*
X151037315Y-72895654D01*
X150913345Y-72771684D01*
X150764124Y-72679643D01*
X150764119Y-72679641D01*
X150597697Y-72624494D01*
X150597690Y-72624493D01*
X150494986Y-72614000D01*
X150145000Y-72614000D01*
X150145000Y-73598314D01*
X150140606Y-73593920D01*
X150049394Y-73541259D01*
X149947661Y-73514000D01*
X149842339Y-73514000D01*
X149740606Y-73541259D01*
X149649394Y-73593920D01*
X149645000Y-73598314D01*
X149645000Y-72614000D01*
X149295028Y-72614000D01*
X149295012Y-72614001D01*
X149192302Y-72624494D01*
X149025880Y-72679641D01*
X149025875Y-72679643D01*
X148876654Y-72771684D01*
X148752684Y-72895654D01*
X148660643Y-73044875D01*
X148660641Y-73044880D01*
X148605494Y-73211302D01*
X148605493Y-73211309D01*
X148595000Y-73314013D01*
X148595000Y-73664000D01*
X149579314Y-73664000D01*
X149574920Y-73668394D01*
X149522259Y-73759606D01*
X149495000Y-73861339D01*
X149495000Y-73966661D01*
X149522259Y-74068394D01*
X149574920Y-74159606D01*
X149579314Y-74164000D01*
X148595001Y-74164000D01*
X148595001Y-74513986D01*
X148605494Y-74616697D01*
X148660641Y-74783119D01*
X148660643Y-74783124D01*
X148752684Y-74932345D01*
X148876654Y-75056315D01*
X149025875Y-75148356D01*
X149025882Y-75148359D01*
X149108067Y-75175592D01*
X149165512Y-75215364D01*
X149192336Y-75279880D01*
X149180021Y-75348656D01*
X149141949Y-75393616D01*
X149047787Y-75462028D01*
X149047782Y-75462032D01*
X148903028Y-75606786D01*
X148782715Y-75772386D01*
X148689781Y-75954776D01*
X148626522Y-76149465D01*
X148602601Y-76300500D01*
X148594500Y-76351648D01*
X148594500Y-76556352D01*
X148597930Y-76578010D01*
X148626522Y-76758534D01*
X148689781Y-76953223D01*
X148750549Y-77072484D01*
X148773524Y-77117576D01*
X148782715Y-77135613D01*
X148903028Y-77301213D01*
X149047786Y-77445971D01*
X149189384Y-77548846D01*
X149213390Y-77566287D01*
X149304840Y-77612883D01*
X149306080Y-77613515D01*
X149356876Y-77661490D01*
X149373671Y-77729311D01*
X149351134Y-77795446D01*
X149306080Y-77834485D01*
X149213386Y-77881715D01*
X149047786Y-78002028D01*
X148903028Y-78146786D01*
X148782715Y-78312386D01*
X148689781Y-78494776D01*
X148626522Y-78689465D01*
X148599438Y-78860470D01*
X148594500Y-78891648D01*
X148594500Y-79096352D01*
X148597930Y-79118010D01*
X148626522Y-79298534D01*
X148689781Y-79493223D01*
X148782715Y-79675613D01*
X148903028Y-79841213D01*
X149047786Y-79985971D01*
X149193650Y-80091945D01*
X149213390Y-80106287D01*
X149304840Y-80152883D01*
X149306080Y-80153515D01*
X149356876Y-80201490D01*
X149373671Y-80269311D01*
X149351134Y-80335446D01*
X149306080Y-80374485D01*
X149213386Y-80421715D01*
X149047786Y-80542028D01*
X148903028Y-80686786D01*
X148782715Y-80852386D01*
X148689781Y-81034776D01*
X148626522Y-81229465D01*
X148594500Y-81431648D01*
X148594500Y-81636351D01*
X148626522Y-81838534D01*
X148689781Y-82033223D01*
X148735271Y-82122500D01*
X148782585Y-82215359D01*
X148782715Y-82215613D01*
X148903028Y-82381213D01*
X148903034Y-82381219D01*
X149047781Y-82525966D01*
X149213390Y-82646287D01*
X149226793Y-82653116D01*
X149277589Y-82701088D01*
X149294500Y-82763601D01*
X149294500Y-85038902D01*
X149274815Y-85105941D01*
X149258181Y-85126583D01*
X146524842Y-87859921D01*
X146463519Y-87893406D01*
X146398848Y-87890173D01*
X146384534Y-87885522D01*
X146209995Y-87857878D01*
X146182352Y-87853500D01*
X145977648Y-87853500D01*
X145953329Y-87857351D01*
X145775465Y-87885522D01*
X145580776Y-87948781D01*
X145398386Y-88041715D01*
X145232786Y-88162028D01*
X145088028Y-88306786D01*
X144967715Y-88472386D01*
X144874781Y-88654776D01*
X144811522Y-88849465D01*
X144779500Y-89051648D01*
X144779500Y-89256351D01*
X144811522Y-89458534D01*
X144843635Y-89557366D01*
X144874780Y-89653219D01*
X144874781Y-89653222D01*
X144876286Y-89657852D01*
X144874964Y-89658281D01*
X144881764Y-89721514D01*
X144850491Y-89783994D01*
X144790403Y-89819648D01*
X144759734Y-89823500D01*
X143844266Y-89823500D01*
X143777227Y-89803815D01*
X143731472Y-89751011D01*
X143721528Y-89681853D01*
X143728080Y-89657970D01*
X143727714Y-89657852D01*
X143729218Y-89653222D01*
X143729220Y-89653219D01*
X143792477Y-89458534D01*
X143824500Y-89256352D01*
X143824500Y-89051648D01*
X143799711Y-88895138D01*
X143792477Y-88849465D01*
X143750820Y-88721259D01*
X143729220Y-88654781D01*
X143729218Y-88654778D01*
X143729218Y-88654776D01*
X143679349Y-88556904D01*
X143636287Y-88472390D01*
X143592884Y-88412650D01*
X143515971Y-88306786D01*
X143371213Y-88162028D01*
X143205613Y-88041715D01*
X143205612Y-88041714D01*
X143205610Y-88041713D01*
X143148653Y-88012691D01*
X143023223Y-87948781D01*
X142828534Y-87885522D01*
X142653995Y-87857878D01*
X142626352Y-87853500D01*
X142421648Y-87853500D01*
X142397329Y-87857351D01*
X142219465Y-87885522D01*
X142024776Y-87948781D01*
X141842386Y-88041715D01*
X141676786Y-88162028D01*
X141532028Y-88306786D01*
X141411715Y-88472386D01*
X141318781Y-88654776D01*
X141255522Y-88849465D01*
X141223500Y-89051648D01*
X141223500Y-89256351D01*
X141255522Y-89458534D01*
X141287635Y-89557366D01*
X141318780Y-89653219D01*
X141318781Y-89653222D01*
X141320286Y-89657852D01*
X141318964Y-89658281D01*
X141325764Y-89721514D01*
X141294491Y-89783994D01*
X141234403Y-89819648D01*
X141203734Y-89823500D01*
X140288266Y-89823500D01*
X140221227Y-89803815D01*
X140175472Y-89751011D01*
X140165528Y-89681853D01*
X140172080Y-89657970D01*
X140171714Y-89657852D01*
X140173218Y-89653222D01*
X140173220Y-89653219D01*
X140236477Y-89458534D01*
X140268500Y-89256352D01*
X140268500Y-89051648D01*
X140243711Y-88895138D01*
X140236477Y-88849465D01*
X140194820Y-88721259D01*
X140173220Y-88654781D01*
X140173218Y-88654778D01*
X140173218Y-88654776D01*
X140123349Y-88556904D01*
X140080287Y-88472390D01*
X140036884Y-88412650D01*
X139959971Y-88306786D01*
X139815213Y-88162028D01*
X139649613Y-88041715D01*
X139649612Y-88041714D01*
X139649610Y-88041713D01*
X139592653Y-88012691D01*
X139467223Y-87948781D01*
X139272534Y-87885522D01*
X139097995Y-87857878D01*
X139070352Y-87853500D01*
X138865648Y-87853500D01*
X138841329Y-87857351D01*
X138663465Y-87885522D01*
X138468776Y-87948781D01*
X138286386Y-88041715D01*
X138120786Y-88162028D01*
X137976028Y-88306786D01*
X137855715Y-88472386D01*
X137762781Y-88654776D01*
X137699522Y-88849465D01*
X137667500Y-89051648D01*
X137667500Y-89256351D01*
X137699522Y-89458534D01*
X137762781Y-89653223D01*
X137814144Y-89754027D01*
X137838302Y-89801440D01*
X137855715Y-89835613D01*
X137976028Y-90001213D01*
X138120786Y-90145971D01*
X138250642Y-90240315D01*
X138286390Y-90266287D01*
X138364726Y-90306201D01*
X138468776Y-90359218D01*
X138468778Y-90359218D01*
X138468781Y-90359220D01*
X138571151Y-90392482D01*
X138647939Y-90417432D01*
X138705614Y-90456870D01*
X138732812Y-90521228D01*
X138724182Y-90582815D01*
X138676261Y-90698507D01*
X138676261Y-90698510D01*
X138645500Y-90853153D01*
X138645500Y-91010846D01*
X138676261Y-91165489D01*
X138676264Y-91165501D01*
X138736602Y-91311172D01*
X138736609Y-91311185D01*
X138824210Y-91442288D01*
X138824213Y-91442292D01*
X138935707Y-91553786D01*
X138935711Y-91553789D01*
X139066814Y-91641390D01*
X139066827Y-91641397D01*
X139212498Y-91701735D01*
X139212503Y-91701737D01*
X139353911Y-91729865D01*
X139367153Y-91732499D01*
X139367156Y-91732500D01*
X139367158Y-91732500D01*
X139524844Y-91732500D01*
X139524845Y-91732499D01*
X139679497Y-91701737D01*
X139825179Y-91641394D01*
X139956289Y-91553789D01*
X140067789Y-91442289D01*
X140155394Y-91311179D01*
X140215737Y-91165497D01*
X140223929Y-91124308D01*
X140256314Y-91062398D01*
X140317030Y-91027824D01*
X140345547Y-91024500D01*
X146134953Y-91024500D01*
X146201992Y-91044185D01*
X146247747Y-91096989D01*
X146257691Y-91166147D01*
X146228666Y-91229703D01*
X146222634Y-91236181D01*
X146104032Y-91354782D01*
X146104028Y-91354786D01*
X145983715Y-91520386D01*
X145890781Y-91702776D01*
X145827522Y-91897465D01*
X145801414Y-92062309D01*
X145795500Y-92099648D01*
X145795500Y-92304352D01*
X145799878Y-92331995D01*
X145827522Y-92506534D01*
X145890781Y-92701223D01*
X145931081Y-92780315D01*
X145981252Y-92878781D01*
X145983715Y-92883613D01*
X146104028Y-93049213D01*
X146248786Y-93193971D01*
X146403749Y-93306556D01*
X146414390Y-93314287D01*
X146490877Y-93353259D01*
X146596776Y-93407218D01*
X146596778Y-93407218D01*
X146596781Y-93407220D01*
X146640626Y-93421466D01*
X146791465Y-93470477D01*
X146854078Y-93480394D01*
X146993648Y-93502500D01*
X146993649Y-93502500D01*
X147198351Y-93502500D01*
X147198352Y-93502500D01*
X147400534Y-93470477D01*
X147595219Y-93407220D01*
X147777610Y-93314287D01*
X147870590Y-93246732D01*
X147943213Y-93193971D01*
X147943215Y-93193968D01*
X147943219Y-93193966D01*
X148087966Y-93049219D01*
X148087968Y-93049215D01*
X148087971Y-93049213D01*
X148164884Y-92943349D01*
X148208287Y-92883610D01*
X148301220Y-92701219D01*
X148364477Y-92506534D01*
X148396500Y-92304352D01*
X148396500Y-92099648D01*
X149351500Y-92099648D01*
X149351500Y-92304352D01*
X149355878Y-92331995D01*
X149383522Y-92506534D01*
X149446781Y-92701223D01*
X149487081Y-92780315D01*
X149537252Y-92878781D01*
X149539715Y-92883613D01*
X149660028Y-93049213D01*
X149804786Y-93193971D01*
X149959749Y-93306556D01*
X149970390Y-93314287D01*
X150046877Y-93353259D01*
X150152776Y-93407218D01*
X150152778Y-93407218D01*
X150152781Y-93407220D01*
X150196626Y-93421466D01*
X150347465Y-93470477D01*
X150410078Y-93480394D01*
X150549648Y-93502500D01*
X150549649Y-93502500D01*
X150754351Y-93502500D01*
X150754352Y-93502500D01*
X150956534Y-93470477D01*
X151151219Y-93407220D01*
X151333610Y-93314287D01*
X151426590Y-93246732D01*
X151499213Y-93193971D01*
X151499215Y-93193968D01*
X151499219Y-93193966D01*
X151643966Y-93049219D01*
X151643968Y-93049215D01*
X151643971Y-93049213D01*
X151720884Y-92943349D01*
X151764287Y-92883610D01*
X151857220Y-92701219D01*
X151920477Y-92506534D01*
X151952500Y-92304352D01*
X151952500Y-92099648D01*
X152907500Y-92099648D01*
X152907500Y-92304352D01*
X152911878Y-92331995D01*
X152939522Y-92506534D01*
X153002781Y-92701223D01*
X153043081Y-92780315D01*
X153093252Y-92878781D01*
X153095715Y-92883613D01*
X153216028Y-93049213D01*
X153360786Y-93193971D01*
X153515749Y-93306556D01*
X153526390Y-93314287D01*
X153602877Y-93353259D01*
X153708776Y-93407218D01*
X153708778Y-93407218D01*
X153708781Y-93407220D01*
X153752626Y-93421466D01*
X153903465Y-93470477D01*
X153966078Y-93480394D01*
X154105648Y-93502500D01*
X154105649Y-93502500D01*
X154310351Y-93502500D01*
X154310352Y-93502500D01*
X154512534Y-93470477D01*
X154707219Y-93407220D01*
X154889610Y-93314287D01*
X154982590Y-93246732D01*
X155055213Y-93193971D01*
X155055215Y-93193968D01*
X155055219Y-93193966D01*
X155199966Y-93049219D01*
X155199968Y-93049215D01*
X155199971Y-93049213D01*
X155276884Y-92943349D01*
X155320287Y-92883610D01*
X155413220Y-92701219D01*
X155476477Y-92506534D01*
X155508500Y-92304352D01*
X155508500Y-92099648D01*
X156458500Y-92099648D01*
X156458500Y-92304352D01*
X156462878Y-92331995D01*
X156490522Y-92506534D01*
X156553781Y-92701223D01*
X156594081Y-92780315D01*
X156644252Y-92878781D01*
X156646715Y-92883613D01*
X156767028Y-93049213D01*
X156911786Y-93193971D01*
X157066749Y-93306556D01*
X157077390Y-93314287D01*
X157153877Y-93353259D01*
X157259776Y-93407218D01*
X157259778Y-93407218D01*
X157259781Y-93407220D01*
X157303626Y-93421466D01*
X157454465Y-93470477D01*
X157517078Y-93480394D01*
X157656648Y-93502500D01*
X157656649Y-93502500D01*
X157861351Y-93502500D01*
X157861352Y-93502500D01*
X158063534Y-93470477D01*
X158258219Y-93407220D01*
X158440610Y-93314287D01*
X158533590Y-93246732D01*
X158606213Y-93193971D01*
X158606215Y-93193968D01*
X158606219Y-93193966D01*
X158750966Y-93049219D01*
X158750968Y-93049215D01*
X158750971Y-93049213D01*
X158827884Y-92943349D01*
X158871287Y-92883610D01*
X158964220Y-92701219D01*
X159027477Y-92506534D01*
X159059500Y-92304352D01*
X159059500Y-92099648D01*
X160019500Y-92099648D01*
X160019500Y-92304352D01*
X160023878Y-92331995D01*
X160051522Y-92506534D01*
X160114781Y-92701223D01*
X160155081Y-92780315D01*
X160205252Y-92878781D01*
X160207715Y-92883613D01*
X160328028Y-93049213D01*
X160472786Y-93193971D01*
X160627749Y-93306556D01*
X160638390Y-93314287D01*
X160714877Y-93353259D01*
X160820776Y-93407218D01*
X160820778Y-93407218D01*
X160820781Y-93407220D01*
X160864626Y-93421466D01*
X161015465Y-93470477D01*
X161078078Y-93480394D01*
X161217648Y-93502500D01*
X161217649Y-93502500D01*
X161422351Y-93502500D01*
X161422352Y-93502500D01*
X161624534Y-93470477D01*
X161819219Y-93407220D01*
X162001610Y-93314287D01*
X162094590Y-93246732D01*
X162167213Y-93193971D01*
X162167215Y-93193968D01*
X162167219Y-93193966D01*
X162311966Y-93049219D01*
X162311968Y-93049215D01*
X162311971Y-93049213D01*
X162388884Y-92943349D01*
X162432287Y-92883610D01*
X162525220Y-92701219D01*
X162588477Y-92506534D01*
X162620500Y-92304352D01*
X162620500Y-92099648D01*
X162595518Y-91941920D01*
X162588477Y-91897465D01*
X162544776Y-91762968D01*
X162525220Y-91702781D01*
X162525218Y-91702778D01*
X162525218Y-91702776D01*
X162458732Y-91572292D01*
X162432287Y-91520390D01*
X162403609Y-91480918D01*
X162311971Y-91354786D01*
X162167213Y-91210028D01*
X162001613Y-91089715D01*
X162001612Y-91089714D01*
X162001610Y-91089713D01*
X161937886Y-91057244D01*
X161819223Y-90996781D01*
X161624534Y-90933522D01*
X161449995Y-90905878D01*
X161422352Y-90901500D01*
X161217648Y-90901500D01*
X161193329Y-90905351D01*
X161015465Y-90933522D01*
X160820776Y-90996781D01*
X160638386Y-91089715D01*
X160472786Y-91210028D01*
X160328028Y-91354786D01*
X160207715Y-91520386D01*
X160114781Y-91702776D01*
X160051522Y-91897465D01*
X160025414Y-92062309D01*
X160019500Y-92099648D01*
X159059500Y-92099648D01*
X159034518Y-91941920D01*
X159027477Y-91897465D01*
X158983776Y-91762968D01*
X158964220Y-91702781D01*
X158964218Y-91702778D01*
X158964218Y-91702776D01*
X158897732Y-91572292D01*
X158871287Y-91520390D01*
X158842609Y-91480918D01*
X158750971Y-91354786D01*
X158606213Y-91210028D01*
X158440613Y-91089715D01*
X158440612Y-91089714D01*
X158440610Y-91089713D01*
X158376886Y-91057244D01*
X158258223Y-90996781D01*
X158063534Y-90933522D01*
X157888995Y-90905878D01*
X157861352Y-90901500D01*
X157656648Y-90901500D01*
X157632329Y-90905351D01*
X157454465Y-90933522D01*
X157259776Y-90996781D01*
X157077386Y-91089715D01*
X156911786Y-91210028D01*
X156767028Y-91354786D01*
X156646715Y-91520386D01*
X156553781Y-91702776D01*
X156490522Y-91897465D01*
X156464414Y-92062309D01*
X156458500Y-92099648D01*
X155508500Y-92099648D01*
X155483518Y-91941920D01*
X155476477Y-91897465D01*
X155432776Y-91762968D01*
X155413220Y-91702781D01*
X155413218Y-91702778D01*
X155413218Y-91702776D01*
X155346732Y-91572292D01*
X155320287Y-91520390D01*
X155291609Y-91480918D01*
X155199971Y-91354786D01*
X155055213Y-91210028D01*
X154889613Y-91089715D01*
X154889612Y-91089714D01*
X154889610Y-91089713D01*
X154825886Y-91057244D01*
X154707223Y-90996781D01*
X154512534Y-90933522D01*
X154337995Y-90905878D01*
X154310352Y-90901500D01*
X154105648Y-90901500D01*
X154081329Y-90905351D01*
X153903465Y-90933522D01*
X153708776Y-90996781D01*
X153526386Y-91089715D01*
X153360786Y-91210028D01*
X153216028Y-91354786D01*
X153095715Y-91520386D01*
X153002781Y-91702776D01*
X152939522Y-91897465D01*
X152913414Y-92062309D01*
X152907500Y-92099648D01*
X151952500Y-92099648D01*
X151927518Y-91941920D01*
X151920477Y-91897465D01*
X151876776Y-91762968D01*
X151857220Y-91702781D01*
X151857218Y-91702778D01*
X151857218Y-91702776D01*
X151790732Y-91572292D01*
X151764287Y-91520390D01*
X151735609Y-91480918D01*
X151643971Y-91354786D01*
X151499213Y-91210028D01*
X151333613Y-91089715D01*
X151333612Y-91089714D01*
X151333610Y-91089713D01*
X151269886Y-91057244D01*
X151151223Y-90996781D01*
X150956534Y-90933522D01*
X150781995Y-90905878D01*
X150754352Y-90901500D01*
X150549648Y-90901500D01*
X150525329Y-90905351D01*
X150347465Y-90933522D01*
X150152776Y-90996781D01*
X149970386Y-91089715D01*
X149804786Y-91210028D01*
X149660028Y-91354786D01*
X149539715Y-91520386D01*
X149446781Y-91702776D01*
X149383522Y-91897465D01*
X149357414Y-92062309D01*
X149351500Y-92099648D01*
X148396500Y-92099648D01*
X148371518Y-91941920D01*
X148364478Y-91897472D01*
X148364477Y-91897471D01*
X148364477Y-91897466D01*
X148359825Y-91883151D01*
X148357832Y-91813312D01*
X148390075Y-91757158D01*
X148703033Y-91444201D01*
X148703038Y-91444197D01*
X148713241Y-91433993D01*
X148713243Y-91433993D01*
X148825047Y-91322189D01*
X148889799Y-91210034D01*
X148904104Y-91185258D01*
X148937065Y-91062242D01*
X148938319Y-91058526D01*
X148950144Y-91041636D01*
X148963753Y-91018069D01*
X148962450Y-91016999D01*
X148966310Y-91012294D01*
X148966316Y-91012289D01*
X149053921Y-90881179D01*
X149114264Y-90735497D01*
X149145027Y-90580842D01*
X149145027Y-90423158D01*
X149145027Y-90423155D01*
X149145026Y-90423153D01*
X149132308Y-90359217D01*
X149114264Y-90268503D01*
X149053921Y-90122821D01*
X148976372Y-90006761D01*
X148974453Y-90003469D01*
X148966948Y-89973093D01*
X148957598Y-89943231D01*
X148958635Y-89939447D01*
X148957695Y-89935639D01*
X148967801Y-89906035D01*
X148976082Y-89875851D01*
X148979642Y-89871350D01*
X148980269Y-89869517D01*
X148982484Y-89867759D01*
X148993893Y-89853341D01*
X149855552Y-88991682D01*
X160025000Y-88991682D01*
X160025000Y-89196317D01*
X160057009Y-89398417D01*
X160120244Y-89593031D01*
X160213141Y-89775350D01*
X160213147Y-89775359D01*
X160245523Y-89819921D01*
X160245524Y-89819922D01*
X160925000Y-89140446D01*
X160925000Y-89146661D01*
X160952259Y-89248394D01*
X161004920Y-89339606D01*
X161079394Y-89414080D01*
X161170606Y-89466741D01*
X161272339Y-89494000D01*
X161278553Y-89494000D01*
X160599076Y-90173474D01*
X160643650Y-90205859D01*
X160825968Y-90298755D01*
X161020582Y-90361990D01*
X161222683Y-90394000D01*
X161427317Y-90394000D01*
X161629417Y-90361990D01*
X161824031Y-90298755D01*
X162006349Y-90205859D01*
X162050921Y-90173474D01*
X161371447Y-89494000D01*
X161377661Y-89494000D01*
X161479394Y-89466741D01*
X161570606Y-89414080D01*
X161645080Y-89339606D01*
X161697741Y-89248394D01*
X161725000Y-89146661D01*
X161725000Y-89140448D01*
X162404474Y-89819922D01*
X162404474Y-89819921D01*
X162436859Y-89775349D01*
X162529755Y-89593031D01*
X162592990Y-89398417D01*
X162625000Y-89196317D01*
X162625000Y-88991682D01*
X162592990Y-88789582D01*
X162529755Y-88594968D01*
X162436859Y-88412650D01*
X162404474Y-88368077D01*
X162404474Y-88368076D01*
X161725000Y-89047551D01*
X161725000Y-89041339D01*
X161697741Y-88939606D01*
X161645080Y-88848394D01*
X161570606Y-88773920D01*
X161479394Y-88721259D01*
X161377661Y-88694000D01*
X161371446Y-88694000D01*
X162050922Y-88014524D01*
X162050921Y-88014523D01*
X162006359Y-87982147D01*
X162006350Y-87982141D01*
X161824031Y-87889244D01*
X161629417Y-87826009D01*
X161427317Y-87794000D01*
X161222683Y-87794000D01*
X161020582Y-87826009D01*
X160825968Y-87889244D01*
X160643644Y-87982143D01*
X160599077Y-88014523D01*
X160599077Y-88014524D01*
X161278554Y-88694000D01*
X161272339Y-88694000D01*
X161170606Y-88721259D01*
X161079394Y-88773920D01*
X161004920Y-88848394D01*
X160952259Y-88939606D01*
X160925000Y-89041339D01*
X160925000Y-89047553D01*
X160245524Y-88368077D01*
X160245523Y-88368077D01*
X160213143Y-88412644D01*
X160120244Y-88594968D01*
X160057009Y-88789582D01*
X160025000Y-88991682D01*
X149855552Y-88991682D01*
X154498416Y-84348819D01*
X154559739Y-84315334D01*
X154586097Y-84312500D01*
X161623017Y-84312500D01*
X161623033Y-84312501D01*
X161630629Y-84312501D01*
X161788740Y-84312501D01*
X161788743Y-84312501D01*
X161941471Y-84271577D01*
X162003958Y-84235500D01*
X162078402Y-84192520D01*
X162190206Y-84080716D01*
X162190206Y-84080714D01*
X162200410Y-84070511D01*
X162200414Y-84070506D01*
X163408727Y-82862192D01*
X163470048Y-82828709D01*
X163539740Y-82833693D01*
X163595673Y-82875565D01*
X163620090Y-82941029D01*
X163618879Y-82969273D01*
X163583500Y-83192649D01*
X163583500Y-83431350D01*
X163620841Y-83667111D01*
X163620841Y-83667112D01*
X163620842Y-83667115D01*
X163694605Y-83894134D01*
X163802973Y-84106819D01*
X163943279Y-84299933D01*
X164112067Y-84468721D01*
X164305181Y-84609027D01*
X164517866Y-84717395D01*
X164744885Y-84791158D01*
X164980649Y-84828500D01*
X164980650Y-84828500D01*
X165219350Y-84828500D01*
X165219351Y-84828500D01*
X165455115Y-84791158D01*
X165682134Y-84717395D01*
X165894819Y-84609027D01*
X166087933Y-84468721D01*
X166256721Y-84299933D01*
X166397027Y-84106819D01*
X166505395Y-83894134D01*
X166579158Y-83667115D01*
X166616500Y-83431351D01*
X166616500Y-83192649D01*
X166579158Y-82956885D01*
X166505395Y-82729866D01*
X166397027Y-82517181D01*
X166256721Y-82324067D01*
X166087933Y-82155279D01*
X165894819Y-82014973D01*
X165682134Y-81906605D01*
X165455115Y-81832842D01*
X165455113Y-81832841D01*
X165455111Y-81832841D01*
X165226788Y-81796678D01*
X165219351Y-81795500D01*
X164980649Y-81795500D01*
X164973212Y-81796678D01*
X164757274Y-81830879D01*
X164687980Y-81821924D01*
X164634528Y-81776928D01*
X164613889Y-81710177D01*
X164632614Y-81642863D01*
X164650188Y-81620732D01*
X164795806Y-81475114D01*
X164857127Y-81441632D01*
X164883485Y-81438798D01*
X168503033Y-81438798D01*
X168503049Y-81438799D01*
X168510645Y-81438799D01*
X168668756Y-81438799D01*
X168668759Y-81438799D01*
X168821487Y-81397875D01*
X168879753Y-81364235D01*
X168958418Y-81318818D01*
X169070222Y-81207014D01*
X169070222Y-81207012D01*
X169080426Y-81196809D01*
X169080430Y-81196804D01*
X169274195Y-81003038D01*
X169335516Y-80969555D01*
X169400193Y-80972790D01*
X169409174Y-80975709D01*
X169482077Y-80987255D01*
X169603578Y-81006500D01*
X169603583Y-81006500D01*
X169800422Y-81006500D01*
X169994826Y-80975709D01*
X170027806Y-80964993D01*
X170182025Y-80914884D01*
X170357405Y-80825524D01*
X170516646Y-80709828D01*
X170655828Y-80570646D01*
X170755183Y-80433896D01*
X170810512Y-80391232D01*
X170880126Y-80385253D01*
X170941921Y-80417859D01*
X170976278Y-80478698D01*
X170979500Y-80506783D01*
X170979500Y-81275324D01*
X170959815Y-81342363D01*
X170943181Y-81363005D01*
X166507502Y-85798683D01*
X166507500Y-85798686D01*
X166441608Y-85912812D01*
X166407500Y-86040108D01*
X166407500Y-95315891D01*
X166441608Y-95443187D01*
X166474554Y-95500250D01*
X166507500Y-95557314D01*
X166507502Y-95557316D01*
X170943181Y-99992995D01*
X170976666Y-100054318D01*
X170979500Y-100080676D01*
X170979500Y-101103216D01*
X170959815Y-101170255D01*
X170907011Y-101216010D01*
X170837853Y-101225954D01*
X170774297Y-101196929D01*
X170755182Y-101176102D01*
X170707514Y-101110493D01*
X170655828Y-101039354D01*
X170516646Y-100900172D01*
X170357405Y-100784476D01*
X170338917Y-100775056D01*
X170182029Y-100695117D01*
X169994826Y-100634290D01*
X169800422Y-100603500D01*
X169800417Y-100603500D01*
X169603583Y-100603500D01*
X169603578Y-100603500D01*
X169409173Y-100634290D01*
X169221970Y-100695117D01*
X169046594Y-100784476D01*
X168955741Y-100850485D01*
X168887354Y-100900172D01*
X168887352Y-100900174D01*
X168887351Y-100900174D01*
X168748174Y-101039351D01*
X168748174Y-101039352D01*
X168748172Y-101039354D01*
X168711383Y-101089990D01*
X168632476Y-101198594D01*
X168542485Y-101375213D01*
X168494511Y-101426009D01*
X168426690Y-101442804D01*
X168360555Y-101420267D01*
X168321515Y-101375213D01*
X168270064Y-101274234D01*
X168231524Y-101198595D01*
X168115828Y-101039354D01*
X167976646Y-100900172D01*
X167817405Y-100784476D01*
X167798917Y-100775056D01*
X167642029Y-100695117D01*
X167454826Y-100634290D01*
X167260422Y-100603500D01*
X167260417Y-100603500D01*
X167063583Y-100603500D01*
X167063578Y-100603500D01*
X166869173Y-100634290D01*
X166681970Y-100695117D01*
X166506594Y-100784476D01*
X166415741Y-100850485D01*
X166347354Y-100900172D01*
X166347352Y-100900174D01*
X166347351Y-100900174D01*
X166208174Y-101039351D01*
X166208174Y-101039352D01*
X166208172Y-101039354D01*
X166171383Y-101089990D01*
X166092476Y-101198594D01*
X166003117Y-101373970D01*
X165942290Y-101561173D01*
X165911500Y-101755577D01*
X165911500Y-101952422D01*
X165943023Y-102151453D01*
X165934068Y-102220747D01*
X165908231Y-102258532D01*
X165598102Y-102568661D01*
X165536779Y-102602146D01*
X165467087Y-102597162D01*
X165422740Y-102568661D01*
X165356292Y-102502213D01*
X165356288Y-102502210D01*
X165225185Y-102414609D01*
X165225172Y-102414602D01*
X165079501Y-102354264D01*
X165079489Y-102354261D01*
X164924845Y-102323500D01*
X164924842Y-102323500D01*
X164767158Y-102323500D01*
X164767155Y-102323500D01*
X164612510Y-102354261D01*
X164612498Y-102354264D01*
X164466827Y-102414602D01*
X164466814Y-102414609D01*
X164335711Y-102502210D01*
X164335707Y-102502213D01*
X164224213Y-102613707D01*
X164224210Y-102613711D01*
X164136609Y-102744814D01*
X164136605Y-102744821D01*
X164122703Y-102778385D01*
X164113879Y-102799687D01*
X164070040Y-102854090D01*
X164003746Y-102876156D01*
X163999319Y-102876235D01*
X163037098Y-102876235D01*
X162970059Y-102856550D01*
X162924304Y-102803746D01*
X162914360Y-102734588D01*
X162943385Y-102671032D01*
X163002163Y-102633258D01*
X163012906Y-102630618D01*
X163035736Y-102626076D01*
X163047497Y-102623737D01*
X163193179Y-102563394D01*
X163324289Y-102475789D01*
X163435789Y-102364289D01*
X163523394Y-102233179D01*
X163524667Y-102230107D01*
X163557246Y-102151453D01*
X163583737Y-102087497D01*
X163614500Y-101932842D01*
X163614500Y-101775158D01*
X163614500Y-101775155D01*
X163614499Y-101775153D01*
X163595649Y-101680390D01*
X163583737Y-101620503D01*
X163562051Y-101568147D01*
X163523397Y-101474827D01*
X163523390Y-101474814D01*
X163435398Y-101343125D01*
X163414520Y-101276447D01*
X163414500Y-101274234D01*
X163414500Y-98546963D01*
X163434185Y-98479924D01*
X163486989Y-98434169D01*
X163556147Y-98424225D01*
X163619703Y-98453250D01*
X163656429Y-98508643D01*
X163694605Y-98626134D01*
X163802973Y-98838819D01*
X163943279Y-99031933D01*
X164112067Y-99200721D01*
X164305181Y-99341027D01*
X164517866Y-99449395D01*
X164744885Y-99523158D01*
X164980649Y-99560500D01*
X164980650Y-99560500D01*
X165219350Y-99560500D01*
X165219351Y-99560500D01*
X165455115Y-99523158D01*
X165682134Y-99449395D01*
X165894819Y-99341027D01*
X166087933Y-99200721D01*
X166256721Y-99031933D01*
X166397027Y-98838819D01*
X166505395Y-98626134D01*
X166579158Y-98399115D01*
X166616500Y-98163351D01*
X166616500Y-97924649D01*
X166579158Y-97688885D01*
X166505395Y-97461866D01*
X166397027Y-97249181D01*
X166256721Y-97056067D01*
X166087933Y-96887279D01*
X165894819Y-96746973D01*
X165682134Y-96638605D01*
X165455115Y-96564842D01*
X165455113Y-96564841D01*
X165455111Y-96564841D01*
X165290498Y-96538768D01*
X165219351Y-96527500D01*
X164980649Y-96527500D01*
X164925995Y-96536156D01*
X164744888Y-96564841D01*
X164744887Y-96564841D01*
X164517863Y-96638606D01*
X164305180Y-96746973D01*
X164223355Y-96806423D01*
X164112067Y-96887279D01*
X164112065Y-96887281D01*
X164112064Y-96887281D01*
X163943281Y-97056064D01*
X163943281Y-97056065D01*
X163943279Y-97056067D01*
X163901756Y-97113219D01*
X163802973Y-97249180D01*
X163694606Y-97461863D01*
X163694605Y-97461865D01*
X163694605Y-97461866D01*
X163660205Y-97567740D01*
X163656431Y-97579354D01*
X163647348Y-97592637D01*
X163642815Y-97608075D01*
X163628034Y-97620882D01*
X163616993Y-97637030D01*
X163602169Y-97643294D01*
X163590011Y-97653830D01*
X163570653Y-97656613D01*
X163552635Y-97664228D01*
X163536779Y-97661483D01*
X163520853Y-97663774D01*
X163503060Y-97655648D01*
X163483788Y-97652313D01*
X163471934Y-97641433D01*
X163457297Y-97634749D01*
X163446721Y-97618293D01*
X163432313Y-97605069D01*
X163427802Y-97588853D01*
X163419523Y-97575971D01*
X163414500Y-97541036D01*
X163414500Y-97371059D01*
X163414501Y-97371046D01*
X163414501Y-97202945D01*
X163414501Y-97202943D01*
X163373577Y-97050215D01*
X163373575Y-97050212D01*
X163373575Y-97050210D01*
X163373574Y-97050209D01*
X163343018Y-96997285D01*
X163343016Y-96997283D01*
X163335377Y-96984052D01*
X163294520Y-96913284D01*
X163182716Y-96801480D01*
X163182715Y-96801479D01*
X163178385Y-96797149D01*
X163178374Y-96797139D01*
X161269590Y-94888355D01*
X161269588Y-94888352D01*
X161150717Y-94769481D01*
X161150716Y-94769480D01*
X161061490Y-94717966D01*
X161061489Y-94717965D01*
X161013783Y-94690422D01*
X160943855Y-94671685D01*
X160861057Y-94649499D01*
X160702943Y-94649499D01*
X160695347Y-94649499D01*
X160695331Y-94649500D01*
X133583463Y-94649500D01*
X133516424Y-94629815D01*
X133495782Y-94613181D01*
X132470267Y-93587666D01*
X132436782Y-93526343D01*
X132441766Y-93456651D01*
X132483638Y-93400718D01*
X132501654Y-93389500D01*
X132532346Y-93373861D01*
X132532347Y-93373861D01*
X132576921Y-93341474D01*
X131897447Y-92662000D01*
X131903661Y-92662000D01*
X132005394Y-92634741D01*
X132096606Y-92582080D01*
X132171080Y-92507606D01*
X132223741Y-92416394D01*
X132251000Y-92314661D01*
X132251000Y-92308447D01*
X132930474Y-92987921D01*
X132962859Y-92943349D01*
X133055755Y-92761031D01*
X133118990Y-92566417D01*
X133151000Y-92364317D01*
X133151000Y-92159682D01*
X133118990Y-91957582D01*
X133055755Y-91762968D01*
X132962859Y-91580650D01*
X132930474Y-91536077D01*
X132930474Y-91536076D01*
X132251000Y-92215551D01*
X132251000Y-92209339D01*
X132223741Y-92107606D01*
X132171080Y-92016394D01*
X132096606Y-91941920D01*
X132005394Y-91889259D01*
X131903661Y-91862000D01*
X131897446Y-91862000D01*
X132576922Y-91182524D01*
X132576921Y-91182523D01*
X132532359Y-91150147D01*
X132532350Y-91150141D01*
X132350031Y-91057244D01*
X132155417Y-90994009D01*
X131953317Y-90962000D01*
X131748683Y-90962000D01*
X131546582Y-90994009D01*
X131351968Y-91057245D01*
X131336793Y-91064977D01*
X131268123Y-91077872D01*
X131203384Y-91051594D01*
X131163127Y-90994487D01*
X131156500Y-90954491D01*
X131156500Y-90459521D01*
X131176185Y-90392482D01*
X131228989Y-90346727D01*
X131298147Y-90336783D01*
X131336798Y-90349038D01*
X131356774Y-90359217D01*
X131356777Y-90359217D01*
X131356781Y-90359220D01*
X131459151Y-90392482D01*
X131551465Y-90422477D01*
X131652557Y-90438488D01*
X131753648Y-90454500D01*
X131753649Y-90454500D01*
X131958351Y-90454500D01*
X131958352Y-90454500D01*
X132160534Y-90422477D01*
X132355219Y-90359220D01*
X132537610Y-90266287D01*
X132650964Y-90183931D01*
X132703213Y-90145971D01*
X132703215Y-90145968D01*
X132703219Y-90145966D01*
X132847966Y-90001219D01*
X132847968Y-90001215D01*
X132847971Y-90001213D01*
X132913094Y-89911577D01*
X132968287Y-89835610D01*
X133061220Y-89653219D01*
X133124477Y-89458534D01*
X133156500Y-89256352D01*
X133156500Y-89051648D01*
X134116500Y-89051648D01*
X134116500Y-89256351D01*
X134148522Y-89458534D01*
X134211781Y-89653223D01*
X134263144Y-89754027D01*
X134287302Y-89801440D01*
X134304715Y-89835613D01*
X134425028Y-90001213D01*
X134569786Y-90145971D01*
X134699642Y-90240315D01*
X134735390Y-90266287D01*
X134813726Y-90306201D01*
X134917776Y-90359218D01*
X134917778Y-90359218D01*
X134917781Y-90359220D01*
X135020151Y-90392482D01*
X135112465Y-90422477D01*
X135213557Y-90438488D01*
X135314648Y-90454500D01*
X135314649Y-90454500D01*
X135519351Y-90454500D01*
X135519352Y-90454500D01*
X135721534Y-90422477D01*
X135916219Y-90359220D01*
X136098610Y-90266287D01*
X136211964Y-90183931D01*
X136264213Y-90145971D01*
X136264215Y-90145968D01*
X136264219Y-90145966D01*
X136408966Y-90001219D01*
X136408968Y-90001215D01*
X136408971Y-90001213D01*
X136474094Y-89911577D01*
X136529287Y-89835610D01*
X136622220Y-89653219D01*
X136685477Y-89458534D01*
X136717500Y-89256352D01*
X136717500Y-89051648D01*
X136692711Y-88895138D01*
X136685477Y-88849465D01*
X136643820Y-88721259D01*
X136622220Y-88654781D01*
X136622218Y-88654778D01*
X136622218Y-88654776D01*
X136572349Y-88556904D01*
X136529287Y-88472390D01*
X136485884Y-88412650D01*
X136408971Y-88306786D01*
X136264213Y-88162028D01*
X136098613Y-88041715D01*
X136098612Y-88041714D01*
X136098610Y-88041713D01*
X136041653Y-88012691D01*
X135916223Y-87948781D01*
X135721534Y-87885522D01*
X135546995Y-87857878D01*
X135519352Y-87853500D01*
X135314648Y-87853500D01*
X135290329Y-87857351D01*
X135112465Y-87885522D01*
X134917776Y-87948781D01*
X134735386Y-88041715D01*
X134569786Y-88162028D01*
X134425028Y-88306786D01*
X134304715Y-88472386D01*
X134211781Y-88654776D01*
X134148522Y-88849465D01*
X134116500Y-89051648D01*
X133156500Y-89051648D01*
X133131711Y-88895138D01*
X133124477Y-88849465D01*
X133082820Y-88721259D01*
X133061220Y-88654781D01*
X133061218Y-88654778D01*
X133061218Y-88654776D01*
X133011349Y-88556904D01*
X132968287Y-88472390D01*
X132924884Y-88412650D01*
X132847971Y-88306786D01*
X132703213Y-88162028D01*
X132537613Y-88041715D01*
X132537612Y-88041714D01*
X132537610Y-88041713D01*
X132480653Y-88012691D01*
X132355223Y-87948781D01*
X132160534Y-87885522D01*
X131985995Y-87857878D01*
X131958352Y-87853500D01*
X131753648Y-87853500D01*
X131729329Y-87857351D01*
X131551465Y-87885522D01*
X131356776Y-87948781D01*
X131174386Y-88041715D01*
X131008786Y-88162028D01*
X130864028Y-88306786D01*
X130743715Y-88472386D01*
X130650781Y-88654778D01*
X130596389Y-88822179D01*
X130556951Y-88879855D01*
X130492593Y-88907053D01*
X130423746Y-88895138D01*
X130390777Y-88871542D01*
X127896789Y-86377554D01*
X127863304Y-86316231D01*
X127868288Y-86246539D01*
X127910160Y-86190606D01*
X127937013Y-86175314D01*
X127957914Y-86166657D01*
X128089024Y-86079052D01*
X128200524Y-85967552D01*
X128288129Y-85836442D01*
X128348472Y-85690760D01*
X128379235Y-85536105D01*
X128379235Y-85378421D01*
X128379235Y-85378418D01*
X128379234Y-85378416D01*
X128378872Y-85376596D01*
X128348472Y-85223766D01*
X128348470Y-85223761D01*
X128288132Y-85078090D01*
X128288125Y-85078077D01*
X128200133Y-84946388D01*
X128179255Y-84879710D01*
X128179235Y-84877497D01*
X128179235Y-83134647D01*
X128198920Y-83067608D01*
X128215554Y-83046966D01*
X128783986Y-82478534D01*
X129641796Y-81620724D01*
X130537799Y-80724720D01*
X130599120Y-80691237D01*
X130668812Y-80696221D01*
X130724745Y-80738093D01*
X130749162Y-80803557D01*
X130735963Y-80868697D01*
X130651245Y-81034965D01*
X130588009Y-81229582D01*
X130556000Y-81431682D01*
X130556000Y-81636317D01*
X130588009Y-81838417D01*
X130651244Y-82033031D01*
X130744141Y-82215350D01*
X130744147Y-82215359D01*
X130776523Y-82259921D01*
X130776524Y-82259922D01*
X131456000Y-81580446D01*
X131456000Y-81586661D01*
X131483259Y-81688394D01*
X131535920Y-81779606D01*
X131610394Y-81854080D01*
X131701606Y-81906741D01*
X131803339Y-81934000D01*
X131809553Y-81934000D01*
X131130076Y-82613474D01*
X131174650Y-82645859D01*
X131356968Y-82738755D01*
X131551582Y-82801990D01*
X131753683Y-82834000D01*
X131958317Y-82834000D01*
X132160417Y-82801990D01*
X132355031Y-82738755D01*
X132537349Y-82645859D01*
X132581921Y-82613474D01*
X131902447Y-81934000D01*
X131908661Y-81934000D01*
X132010394Y-81906741D01*
X132101606Y-81854080D01*
X132176080Y-81779606D01*
X132228741Y-81688394D01*
X132256000Y-81586661D01*
X132256000Y-81580448D01*
X132935474Y-82259922D01*
X132935474Y-82259921D01*
X132967859Y-82215349D01*
X133060755Y-82033031D01*
X133123990Y-81838417D01*
X133156000Y-81636317D01*
X133156000Y-81431682D01*
X134117000Y-81431682D01*
X134117000Y-81636317D01*
X134149009Y-81838417D01*
X134212244Y-82033031D01*
X134305141Y-82215350D01*
X134305147Y-82215359D01*
X134337523Y-82259921D01*
X134337524Y-82259922D01*
X135017000Y-81580446D01*
X135017000Y-81586661D01*
X135044259Y-81688394D01*
X135096920Y-81779606D01*
X135171394Y-81854080D01*
X135262606Y-81906741D01*
X135364339Y-81934000D01*
X135370553Y-81934000D01*
X134691076Y-82613474D01*
X134735650Y-82645859D01*
X134917968Y-82738755D01*
X135112582Y-82801990D01*
X135314683Y-82834000D01*
X135519317Y-82834000D01*
X135721417Y-82801990D01*
X135916031Y-82738755D01*
X136098349Y-82645859D01*
X136142921Y-82613474D01*
X135463447Y-81934000D01*
X135469661Y-81934000D01*
X135571394Y-81906741D01*
X135662606Y-81854080D01*
X135737080Y-81779606D01*
X135789741Y-81688394D01*
X135817000Y-81586661D01*
X135817000Y-81580448D01*
X136496474Y-82259922D01*
X136496474Y-82259921D01*
X136528859Y-82215349D01*
X136621755Y-82033031D01*
X136684990Y-81838417D01*
X136717000Y-81636317D01*
X136717000Y-81431682D01*
X136684990Y-81229582D01*
X136621755Y-81034968D01*
X136528859Y-80852650D01*
X136496474Y-80808077D01*
X136496474Y-80808076D01*
X135817000Y-81487551D01*
X135817000Y-81481339D01*
X135789741Y-81379606D01*
X135737080Y-81288394D01*
X135662606Y-81213920D01*
X135571394Y-81161259D01*
X135469661Y-81134000D01*
X135463446Y-81134000D01*
X136142922Y-80454524D01*
X136142921Y-80454523D01*
X136098359Y-80422147D01*
X136098350Y-80422141D01*
X135916031Y-80329244D01*
X135721417Y-80266009D01*
X135519317Y-80234000D01*
X135314683Y-80234000D01*
X135112582Y-80266009D01*
X134917968Y-80329244D01*
X134735644Y-80422143D01*
X134691077Y-80454523D01*
X134691077Y-80454524D01*
X135370554Y-81134000D01*
X135364339Y-81134000D01*
X135262606Y-81161259D01*
X135171394Y-81213920D01*
X135096920Y-81288394D01*
X135044259Y-81379606D01*
X135017000Y-81481339D01*
X135017000Y-81487553D01*
X134337524Y-80808077D01*
X134337523Y-80808077D01*
X134305143Y-80852644D01*
X134212244Y-81034968D01*
X134149009Y-81229582D01*
X134117000Y-81431682D01*
X133156000Y-81431682D01*
X133123990Y-81229582D01*
X133060755Y-81034968D01*
X132967859Y-80852650D01*
X132935474Y-80808077D01*
X132935474Y-80808076D01*
X132256000Y-81487551D01*
X132256000Y-81481339D01*
X132228741Y-81379606D01*
X132176080Y-81288394D01*
X132101606Y-81213920D01*
X132010394Y-81161259D01*
X131908661Y-81134000D01*
X131902446Y-81134000D01*
X132581922Y-80454524D01*
X132581921Y-80454523D01*
X132537359Y-80422147D01*
X132537350Y-80422141D01*
X132355031Y-80329244D01*
X132160417Y-80266009D01*
X131958317Y-80234000D01*
X131753683Y-80234000D01*
X131551582Y-80266009D01*
X131356965Y-80329245D01*
X131190697Y-80413963D01*
X131122028Y-80426859D01*
X131057288Y-80400582D01*
X131017031Y-80343476D01*
X131014039Y-80273670D01*
X131046720Y-80215799D01*
X132370872Y-78891648D01*
X137667500Y-78891648D01*
X137667500Y-79096352D01*
X137670930Y-79118010D01*
X137699522Y-79298534D01*
X137762781Y-79493223D01*
X137855715Y-79675613D01*
X137976028Y-79841213D01*
X138120786Y-79985971D01*
X138266650Y-80091945D01*
X138286390Y-80106287D01*
X138468781Y-80199220D01*
X138489863Y-80206070D01*
X138547536Y-80245508D01*
X138574734Y-80309867D01*
X138562819Y-80378713D01*
X138515574Y-80430188D01*
X138489866Y-80441928D01*
X138468781Y-80448780D01*
X138468775Y-80448782D01*
X138286386Y-80541715D01*
X138120786Y-80662028D01*
X137976028Y-80806786D01*
X137855715Y-80972386D01*
X137762781Y-81154776D01*
X137699522Y-81349465D01*
X137667500Y-81551648D01*
X137667500Y-81756351D01*
X137699522Y-81958534D01*
X137762781Y-82153223D01*
X137855715Y-82335613D01*
X137976028Y-82501213D01*
X138120786Y-82645971D01*
X138236256Y-82729863D01*
X138286390Y-82766287D01*
X138357417Y-82802477D01*
X138468776Y-82859218D01*
X138468778Y-82859218D01*
X138468781Y-82859220D01*
X138519086Y-82875565D01*
X138663465Y-82922477D01*
X138728730Y-82932814D01*
X138865648Y-82954500D01*
X138865649Y-82954500D01*
X139070351Y-82954500D01*
X139070352Y-82954500D01*
X139272534Y-82922477D01*
X139467219Y-82859220D01*
X139649610Y-82766287D01*
X139754318Y-82690213D01*
X139815213Y-82645971D01*
X139815215Y-82645968D01*
X139815219Y-82645966D01*
X139959966Y-82501219D01*
X139959968Y-82501215D01*
X139959971Y-82501213D01*
X140047150Y-82381219D01*
X140080287Y-82335610D01*
X140173220Y-82153219D01*
X140236477Y-81958534D01*
X140268500Y-81756352D01*
X140268500Y-81551648D01*
X140249494Y-81431648D01*
X141223500Y-81431648D01*
X141223500Y-81636351D01*
X141255522Y-81838534D01*
X141318781Y-82033223D01*
X141364271Y-82122500D01*
X141411585Y-82215359D01*
X141411715Y-82215613D01*
X141532028Y-82381213D01*
X141676786Y-82525971D01*
X141831749Y-82638556D01*
X141842390Y-82646287D01*
X141929363Y-82690602D01*
X142024776Y-82739218D01*
X142024778Y-82739218D01*
X142024781Y-82739220D01*
X142108085Y-82766287D01*
X142219465Y-82802477D01*
X142320557Y-82818488D01*
X142421648Y-82834500D01*
X142421649Y-82834500D01*
X142626351Y-82834500D01*
X142626352Y-82834500D01*
X142828534Y-82802477D01*
X143023219Y-82739220D01*
X143205610Y-82646287D01*
X143348787Y-82542264D01*
X143371213Y-82525971D01*
X143371215Y-82525968D01*
X143371219Y-82525966D01*
X143515966Y-82381219D01*
X143515968Y-82381215D01*
X143515971Y-82381213D01*
X143568732Y-82308590D01*
X143636287Y-82215610D01*
X143729220Y-82033219D01*
X143792477Y-81838534D01*
X143824500Y-81636352D01*
X143824500Y-81431648D01*
X144779500Y-81431648D01*
X144779500Y-81636351D01*
X144811522Y-81838534D01*
X144874781Y-82033223D01*
X144920271Y-82122500D01*
X144967585Y-82215359D01*
X144967715Y-82215613D01*
X145088028Y-82381213D01*
X145232786Y-82525971D01*
X145387749Y-82638556D01*
X145398390Y-82646287D01*
X145485363Y-82690602D01*
X145580776Y-82739218D01*
X145580778Y-82739218D01*
X145580781Y-82739220D01*
X145664085Y-82766287D01*
X145775465Y-82802477D01*
X145876557Y-82818488D01*
X145977648Y-82834500D01*
X145977649Y-82834500D01*
X146182351Y-82834500D01*
X146182352Y-82834500D01*
X146384534Y-82802477D01*
X146579219Y-82739220D01*
X146761610Y-82646287D01*
X146904787Y-82542264D01*
X146927213Y-82525971D01*
X146927215Y-82525968D01*
X146927219Y-82525966D01*
X147071966Y-82381219D01*
X147071968Y-82381215D01*
X147071971Y-82381213D01*
X147124732Y-82308590D01*
X147192287Y-82215610D01*
X147285220Y-82033219D01*
X147348477Y-81838534D01*
X147380500Y-81636352D01*
X147380500Y-81431648D01*
X147375151Y-81397875D01*
X147348477Y-81229465D01*
X147304715Y-81094781D01*
X147285220Y-81034781D01*
X147285218Y-81034778D01*
X147285218Y-81034776D01*
X147224128Y-80914882D01*
X147192287Y-80852390D01*
X147160092Y-80808077D01*
X147071971Y-80686786D01*
X146927213Y-80542028D01*
X146761613Y-80421715D01*
X146761612Y-80421714D01*
X146761610Y-80421713D01*
X146701788Y-80391232D01*
X146579223Y-80328781D01*
X146384534Y-80265522D01*
X146198294Y-80236025D01*
X146182352Y-80233500D01*
X145977648Y-80233500D01*
X145961706Y-80236025D01*
X145775465Y-80265522D01*
X145580776Y-80328781D01*
X145398386Y-80421715D01*
X145232786Y-80542028D01*
X145088028Y-80686786D01*
X144967715Y-80852386D01*
X144874781Y-81034776D01*
X144811522Y-81229465D01*
X144779500Y-81431648D01*
X143824500Y-81431648D01*
X143819151Y-81397875D01*
X143792477Y-81229465D01*
X143748715Y-81094781D01*
X143729220Y-81034781D01*
X143729218Y-81034778D01*
X143729218Y-81034776D01*
X143668128Y-80914882D01*
X143636287Y-80852390D01*
X143604092Y-80808077D01*
X143515971Y-80686786D01*
X143371213Y-80542028D01*
X143205613Y-80421715D01*
X143205612Y-80421714D01*
X143205610Y-80421713D01*
X143145788Y-80391232D01*
X143023223Y-80328781D01*
X142828534Y-80265522D01*
X142642294Y-80236025D01*
X142626352Y-80233500D01*
X142421648Y-80233500D01*
X142405706Y-80236025D01*
X142219465Y-80265522D01*
X142024776Y-80328781D01*
X141842386Y-80421715D01*
X141676786Y-80542028D01*
X141532028Y-80686786D01*
X141411715Y-80852386D01*
X141318781Y-81034776D01*
X141255522Y-81229465D01*
X141223500Y-81431648D01*
X140249494Y-81431648D01*
X140236477Y-81349466D01*
X140173220Y-81154781D01*
X140173218Y-81154778D01*
X140173218Y-81154776D01*
X140112172Y-81034968D01*
X140080287Y-80972390D01*
X140038507Y-80914884D01*
X139959971Y-80806786D01*
X139815213Y-80662028D01*
X139649613Y-80541715D01*
X139649612Y-80541714D01*
X139649610Y-80541713D01*
X139467219Y-80448780D01*
X139446138Y-80441930D01*
X139388463Y-80402493D01*
X139361265Y-80338135D01*
X139373180Y-80269289D01*
X139420424Y-80217813D01*
X139446136Y-80206070D01*
X139467219Y-80199220D01*
X139649610Y-80106287D01*
X139789928Y-80004341D01*
X139815213Y-79985971D01*
X139815215Y-79985968D01*
X139815219Y-79985966D01*
X139959966Y-79841219D01*
X139959968Y-79841215D01*
X139959971Y-79841213D01*
X140021881Y-79756000D01*
X140080287Y-79675610D01*
X140173220Y-79493219D01*
X140236477Y-79298534D01*
X140268500Y-79096352D01*
X140268500Y-78891648D01*
X140263562Y-78860470D01*
X140236477Y-78689465D01*
X140190591Y-78548243D01*
X140173220Y-78494781D01*
X140173218Y-78494778D01*
X140173218Y-78494776D01*
X140132343Y-78414555D01*
X140080287Y-78312390D01*
X140060767Y-78285523D01*
X139959971Y-78146786D01*
X139815213Y-78002028D01*
X139649613Y-77881715D01*
X139649612Y-77881714D01*
X139649610Y-77881713D01*
X139585745Y-77849172D01*
X139467223Y-77788781D01*
X139272534Y-77725522D01*
X139086294Y-77696025D01*
X139070352Y-77693500D01*
X138865648Y-77693500D01*
X138849706Y-77696025D01*
X138663465Y-77725522D01*
X138468776Y-77788781D01*
X138286386Y-77881715D01*
X138120786Y-78002028D01*
X137976028Y-78146786D01*
X137855715Y-78312386D01*
X137762781Y-78494776D01*
X137699522Y-78689465D01*
X137672438Y-78860470D01*
X137667500Y-78891648D01*
X132370872Y-78891648D01*
X133155701Y-78106819D01*
X133217024Y-78073334D01*
X133243382Y-78070500D01*
X135818234Y-78070500D01*
X135885273Y-78090185D01*
X135887125Y-78091398D01*
X136018814Y-78179390D01*
X136018827Y-78179397D01*
X136164498Y-78239735D01*
X136164503Y-78239737D01*
X136256292Y-78257995D01*
X136319153Y-78270499D01*
X136319156Y-78270500D01*
X136319158Y-78270500D01*
X136476844Y-78270500D01*
X136476845Y-78270499D01*
X136631497Y-78239737D01*
X136777179Y-78179394D01*
X136908289Y-78091789D01*
X137019789Y-77980289D01*
X137107394Y-77849179D01*
X137112276Y-77837394D01*
X137146840Y-77753946D01*
X137167737Y-77703497D01*
X137198500Y-77548842D01*
X137198500Y-77391158D01*
X137198500Y-77391155D01*
X137198499Y-77391153D01*
X137183235Y-77314417D01*
X137167737Y-77236503D01*
X137167735Y-77236498D01*
X137107397Y-77090827D01*
X137107390Y-77090814D01*
X137019789Y-76959711D01*
X137019786Y-76959707D01*
X136908292Y-76848213D01*
X136908288Y-76848210D01*
X136777185Y-76760609D01*
X136777172Y-76760602D01*
X136631501Y-76700264D01*
X136631489Y-76700261D01*
X136476845Y-76669500D01*
X136476842Y-76669500D01*
X136319158Y-76669500D01*
X136319155Y-76669500D01*
X136164510Y-76700261D01*
X136164498Y-76700264D01*
X136018827Y-76760602D01*
X136018814Y-76760609D01*
X135887125Y-76848602D01*
X135820447Y-76869480D01*
X135818234Y-76869500D01*
X132864225Y-76869500D01*
X132823304Y-76880464D01*
X132823304Y-76880465D01*
X132786036Y-76890451D01*
X132711499Y-76910423D01*
X132711494Y-76910426D01*
X132574575Y-76989475D01*
X132574567Y-76989481D01*
X129493774Y-80070275D01*
X129432451Y-80103760D01*
X129362759Y-80098776D01*
X129337203Y-80085696D01*
X129215455Y-80004347D01*
X129215437Y-80004337D01*
X129069766Y-79943999D01*
X129069754Y-79943996D01*
X128915110Y-79913235D01*
X128915107Y-79913235D01*
X128757423Y-79913235D01*
X128757420Y-79913235D01*
X128602775Y-79943996D01*
X128602763Y-79943999D01*
X128457092Y-80004337D01*
X128457079Y-80004344D01*
X128325976Y-80091945D01*
X128325972Y-80091948D01*
X128214478Y-80203442D01*
X128214475Y-80203446D01*
X128126874Y-80334549D01*
X128126867Y-80334562D01*
X128066529Y-80480233D01*
X128066526Y-80480243D01*
X128035626Y-80635585D01*
X128003241Y-80697496D01*
X128001690Y-80699074D01*
X126498216Y-82202547D01*
X126498210Y-82202555D01*
X126456034Y-82275608D01*
X126456034Y-82275609D01*
X126419158Y-82339479D01*
X126419158Y-82339480D01*
X126378234Y-82492208D01*
X126378234Y-82492210D01*
X126378234Y-82660311D01*
X126378235Y-82660324D01*
X126378235Y-83361500D01*
X126358550Y-83428539D01*
X126305746Y-83474294D01*
X126254235Y-83485500D01*
X124608129Y-83485500D01*
X124608123Y-83485501D01*
X124548516Y-83491908D01*
X124413671Y-83542202D01*
X124413664Y-83542206D01*
X124298455Y-83628452D01*
X124298452Y-83628455D01*
X124212206Y-83743664D01*
X124212203Y-83743669D01*
X124163189Y-83875083D01*
X124121317Y-83931016D01*
X124055853Y-83955433D01*
X123987580Y-83940581D01*
X123959326Y-83919430D01*
X123845786Y-83805890D01*
X123673820Y-83680951D01*
X123484414Y-83584444D01*
X123484413Y-83584443D01*
X123484412Y-83584443D01*
X123282243Y-83518754D01*
X123282241Y-83518753D01*
X123282240Y-83518753D01*
X123120957Y-83493208D01*
X123072287Y-83485500D01*
X122859713Y-83485500D01*
X122811042Y-83493208D01*
X122649760Y-83518753D01*
X122447585Y-83584444D01*
X122258179Y-83680951D01*
X122086213Y-83805890D01*
X121935890Y-83956213D01*
X121810949Y-84128182D01*
X121806484Y-84136946D01*
X121758509Y-84187742D01*
X121690688Y-84204536D01*
X121624553Y-84181998D01*
X121585516Y-84136946D01*
X121581050Y-84128182D01*
X121456109Y-83956213D01*
X121305786Y-83805890D01*
X121133820Y-83680951D01*
X120944414Y-83584444D01*
X120944413Y-83584443D01*
X120944412Y-83584443D01*
X120742243Y-83518754D01*
X120742241Y-83518753D01*
X120742240Y-83518753D01*
X120580957Y-83493208D01*
X120532287Y-83485500D01*
X120319713Y-83485500D01*
X120271042Y-83493208D01*
X120109760Y-83518753D01*
X119907585Y-83584444D01*
X119718179Y-83680951D01*
X119546213Y-83805890D01*
X119395890Y-83956213D01*
X119270949Y-84128182D01*
X119266484Y-84136946D01*
X119218509Y-84187742D01*
X119150688Y-84204536D01*
X119084553Y-84181998D01*
X119045516Y-84136946D01*
X119041050Y-84128182D01*
X118916109Y-83956213D01*
X118765786Y-83805890D01*
X118593820Y-83680951D01*
X118404414Y-83584444D01*
X118404413Y-83584443D01*
X118404412Y-83584443D01*
X118202243Y-83518754D01*
X118202241Y-83518753D01*
X118202240Y-83518753D01*
X118040957Y-83493208D01*
X117992287Y-83485500D01*
X117779713Y-83485500D01*
X117731042Y-83493208D01*
X117569760Y-83518753D01*
X117367585Y-83584444D01*
X117178179Y-83680951D01*
X117006213Y-83805890D01*
X116855890Y-83956213D01*
X116730949Y-84128182D01*
X116726484Y-84136946D01*
X116678509Y-84187742D01*
X116610688Y-84204536D01*
X116544553Y-84181998D01*
X116505516Y-84136946D01*
X116501050Y-84128182D01*
X116376109Y-83956213D01*
X116225786Y-83805890D01*
X116053820Y-83680951D01*
X115864414Y-83584444D01*
X115864413Y-83584443D01*
X115864412Y-83584443D01*
X115662243Y-83518754D01*
X115662241Y-83518753D01*
X115662240Y-83518753D01*
X115500957Y-83493208D01*
X115452287Y-83485500D01*
X115239713Y-83485500D01*
X115191042Y-83493208D01*
X115029760Y-83518753D01*
X114827585Y-83584444D01*
X114638179Y-83680951D01*
X114466213Y-83805890D01*
X114315890Y-83956213D01*
X114190949Y-84128182D01*
X114186484Y-84136946D01*
X114138509Y-84187742D01*
X114070688Y-84204536D01*
X114004553Y-84181998D01*
X113965516Y-84136946D01*
X113961050Y-84128182D01*
X113836109Y-83956213D01*
X113685786Y-83805890D01*
X113513820Y-83680951D01*
X113324414Y-83584444D01*
X113324413Y-83584443D01*
X113324412Y-83584443D01*
X113122243Y-83518754D01*
X113122241Y-83518753D01*
X113122240Y-83518753D01*
X112960957Y-83493208D01*
X112912287Y-83485500D01*
X112699713Y-83485500D01*
X112651042Y-83493208D01*
X112489760Y-83518753D01*
X112287585Y-83584444D01*
X112098179Y-83680951D01*
X111926213Y-83805890D01*
X111775890Y-83956213D01*
X111650949Y-84128182D01*
X111646484Y-84136946D01*
X111598509Y-84187742D01*
X111530688Y-84204536D01*
X111464553Y-84181998D01*
X111425516Y-84136946D01*
X111421050Y-84128182D01*
X111296109Y-83956213D01*
X111145786Y-83805890D01*
X110973820Y-83680951D01*
X110784414Y-83584444D01*
X110784413Y-83584443D01*
X110784412Y-83584443D01*
X110582243Y-83518754D01*
X110582241Y-83518753D01*
X110582240Y-83518753D01*
X110420957Y-83493208D01*
X110372287Y-83485500D01*
X110159713Y-83485500D01*
X110111042Y-83493208D01*
X109949760Y-83518753D01*
X109747585Y-83584444D01*
X109558179Y-83680951D01*
X109386213Y-83805890D01*
X109235890Y-83956213D01*
X109110951Y-84128179D01*
X109014444Y-84317585D01*
X108948753Y-84519760D01*
X108915500Y-84729713D01*
X108915500Y-84942286D01*
X108945807Y-85133641D01*
X108948754Y-85152243D01*
X109012220Y-85347571D01*
X109014444Y-85354414D01*
X109110951Y-85543820D01*
X109235890Y-85715786D01*
X109386213Y-85866109D01*
X109558179Y-85991048D01*
X109558181Y-85991049D01*
X109558184Y-85991051D01*
X109747588Y-86087557D01*
X109949757Y-86153246D01*
X110159713Y-86186500D01*
X110159714Y-86186500D01*
X110372286Y-86186500D01*
X110372287Y-86186500D01*
X110582243Y-86153246D01*
X110784412Y-86087557D01*
X110973816Y-85991051D01*
X111081504Y-85912812D01*
X111145786Y-85866109D01*
X111145788Y-85866106D01*
X111145792Y-85866104D01*
X111296104Y-85715792D01*
X111296106Y-85715788D01*
X111296109Y-85715786D01*
X111421048Y-85543820D01*
X111421047Y-85543820D01*
X111421051Y-85543816D01*
X111425514Y-85535054D01*
X111473488Y-85484259D01*
X111541308Y-85467463D01*
X111607444Y-85489999D01*
X111646484Y-85535054D01*
X111646736Y-85535547D01*
X111650951Y-85543820D01*
X111775890Y-85715786D01*
X111926213Y-85866109D01*
X112098179Y-85991048D01*
X112098181Y-85991049D01*
X112098184Y-85991051D01*
X112287588Y-86087557D01*
X112489757Y-86153246D01*
X112699713Y-86186500D01*
X112699714Y-86186500D01*
X112912286Y-86186500D01*
X112912287Y-86186500D01*
X113122243Y-86153246D01*
X113164523Y-86139507D01*
X113234362Y-86137511D01*
X113290522Y-86169757D01*
X113903120Y-86782355D01*
X113903130Y-86782366D01*
X113907460Y-86786696D01*
X113907461Y-86786697D01*
X114019265Y-86898501D01*
X114100802Y-86945576D01*
X114156196Y-86977558D01*
X114308924Y-87018482D01*
X114308927Y-87018482D01*
X114474634Y-87018482D01*
X114474650Y-87018481D01*
X118950166Y-87018481D01*
X119017205Y-87038166D01*
X119037847Y-87054800D01*
X119137760Y-87154713D01*
X119137762Y-87154716D01*
X119164009Y-87180963D01*
X119191740Y-87208694D01*
X119205061Y-87233091D01*
X119225224Y-87270015D01*
X119220240Y-87339707D01*
X119220239Y-87339708D01*
X119220239Y-87339709D01*
X119178368Y-87395642D01*
X119133483Y-87412382D01*
X119112905Y-87420058D01*
X119112903Y-87420057D01*
X119112903Y-87420058D01*
X119112900Y-87420057D01*
X119065740Y-87414305D01*
X118952537Y-87377523D01*
X118784521Y-87350912D01*
X118750352Y-87345500D01*
X118545648Y-87345500D01*
X118521329Y-87349351D01*
X118343465Y-87377522D01*
X118148776Y-87440781D01*
X117966386Y-87533715D01*
X117800786Y-87654028D01*
X117656028Y-87798786D01*
X117535715Y-87964386D01*
X117488485Y-88057080D01*
X117440510Y-88107876D01*
X117372689Y-88124671D01*
X117306554Y-88102134D01*
X117267515Y-88057080D01*
X117259685Y-88041713D01*
X117220287Y-87964390D01*
X117212556Y-87953749D01*
X117099971Y-87798786D01*
X116955213Y-87654028D01*
X116789613Y-87533715D01*
X116789612Y-87533714D01*
X116789610Y-87533713D01*
X116732653Y-87504691D01*
X116607223Y-87440781D01*
X116412534Y-87377522D01*
X116237995Y-87349878D01*
X116210352Y-87345500D01*
X116005648Y-87345500D01*
X115981329Y-87349351D01*
X115803465Y-87377522D01*
X115608776Y-87440781D01*
X115426386Y-87533715D01*
X115305123Y-87621818D01*
X115285078Y-87628970D01*
X115267173Y-87640477D01*
X115243146Y-87643931D01*
X115239317Y-87645298D01*
X115232238Y-87645500D01*
X115075717Y-87645500D01*
X115008678Y-87625815D01*
X115000230Y-87619875D01*
X114919767Y-87558132D01*
X114919749Y-87558120D01*
X114805751Y-87492303D01*
X114805750Y-87492302D01*
X114683829Y-87441800D01*
X114574042Y-87412382D01*
X114556662Y-87407725D01*
X114556661Y-87407724D01*
X114556658Y-87407724D01*
X114425833Y-87390500D01*
X114425826Y-87390500D01*
X113860000Y-87390500D01*
X113859997Y-87390500D01*
X113788061Y-87395644D01*
X113788056Y-87395645D01*
X113750735Y-87406603D01*
X113698158Y-87410363D01*
X113560001Y-87390500D01*
X113560000Y-87390500D01*
X112994174Y-87390500D01*
X112994166Y-87390500D01*
X112863341Y-87407724D01*
X112736170Y-87441800D01*
X112614249Y-87492302D01*
X112614248Y-87492303D01*
X112500250Y-87558120D01*
X112500232Y-87558132D01*
X112419770Y-87619875D01*
X112354601Y-87645070D01*
X112344283Y-87645500D01*
X109363762Y-87645500D01*
X109296723Y-87625815D01*
X109290877Y-87621818D01*
X109169613Y-87533715D01*
X109169612Y-87533714D01*
X109169610Y-87533713D01*
X109112653Y-87504691D01*
X108987223Y-87440781D01*
X108792534Y-87377522D01*
X108617995Y-87349878D01*
X108590352Y-87345500D01*
X108385648Y-87345500D01*
X108361329Y-87349351D01*
X108183465Y-87377522D01*
X107988776Y-87440781D01*
X107806386Y-87533715D01*
X107640786Y-87654028D01*
X107640782Y-87654032D01*
X107560181Y-87734634D01*
X107498858Y-87768119D01*
X107429166Y-87763135D01*
X107373233Y-87721263D01*
X107348816Y-87655799D01*
X107348500Y-87646953D01*
X107348500Y-84761097D01*
X107368185Y-84694058D01*
X107384819Y-84673416D01*
X111430917Y-80627319D01*
X111492240Y-80593834D01*
X111518598Y-80591000D01*
X112366917Y-80591000D01*
X112386295Y-80587931D01*
X112405692Y-80586404D01*
X113792000Y-80586404D01*
X113792000Y-75585713D01*
X116505500Y-75585713D01*
X116505500Y-75798287D01*
X116511396Y-75835515D01*
X116537519Y-76000449D01*
X116538754Y-76008243D01*
X116603659Y-76208000D01*
X116604444Y-76210414D01*
X116700951Y-76399820D01*
X116825890Y-76571786D01*
X116976213Y-76722109D01*
X117148182Y-76847050D01*
X117156946Y-76851516D01*
X117207742Y-76899491D01*
X117224536Y-76967312D01*
X117201998Y-77033447D01*
X117156946Y-77072484D01*
X117148182Y-77076949D01*
X116976213Y-77201890D01*
X116825890Y-77352213D01*
X116700951Y-77524179D01*
X116604444Y-77713585D01*
X116538753Y-77915760D01*
X116505500Y-78125713D01*
X116505500Y-78338287D01*
X116515534Y-78401644D01*
X116535207Y-78525852D01*
X116538754Y-78548243D01*
X116584640Y-78689466D01*
X116604444Y-78750414D01*
X116700951Y-78939820D01*
X116825890Y-79111786D01*
X116939430Y-79225326D01*
X116972915Y-79286649D01*
X116967931Y-79356341D01*
X116926059Y-79412274D01*
X116895083Y-79429189D01*
X116763669Y-79478203D01*
X116763664Y-79478206D01*
X116648455Y-79564452D01*
X116648452Y-79564455D01*
X116562206Y-79679664D01*
X116562202Y-79679671D01*
X116511908Y-79814517D01*
X116507012Y-79860060D01*
X116505501Y-79874123D01*
X116505500Y-79874135D01*
X116505500Y-81669870D01*
X116505501Y-81669876D01*
X116511908Y-81729483D01*
X116562202Y-81864328D01*
X116562206Y-81864335D01*
X116648452Y-81979544D01*
X116648455Y-81979547D01*
X116763664Y-82065793D01*
X116763671Y-82065797D01*
X116898517Y-82116091D01*
X116898516Y-82116091D01*
X116905444Y-82116835D01*
X116958127Y-82122500D01*
X118753872Y-82122499D01*
X118813483Y-82116091D01*
X118948331Y-82065796D01*
X119063546Y-81979546D01*
X119149796Y-81864331D01*
X119200091Y-81729483D01*
X119206500Y-81669873D01*
X119206499Y-79874128D01*
X119200091Y-79814517D01*
X119198151Y-79809316D01*
X119149797Y-79679671D01*
X119149793Y-79679664D01*
X119063547Y-79564455D01*
X119063544Y-79564452D01*
X118948335Y-79478206D01*
X118948328Y-79478202D01*
X118816917Y-79429189D01*
X118760983Y-79387318D01*
X118736566Y-79321853D01*
X118751418Y-79253580D01*
X118772563Y-79225332D01*
X118886104Y-79111792D01*
X118895450Y-79098929D01*
X118969402Y-78997141D01*
X119011051Y-78939816D01*
X119107557Y-78750412D01*
X119173246Y-78548243D01*
X119206500Y-78338287D01*
X119206500Y-78125713D01*
X119173246Y-77915757D01*
X119107557Y-77713588D01*
X119011051Y-77524184D01*
X119011049Y-77524181D01*
X119011048Y-77524179D01*
X118886109Y-77352213D01*
X118735786Y-77201890D01*
X118563820Y-77076951D01*
X118563115Y-77076591D01*
X118555054Y-77072485D01*
X118504259Y-77024512D01*
X118487463Y-76956692D01*
X118509999Y-76890556D01*
X118555054Y-76851515D01*
X118563816Y-76847051D01*
X118612795Y-76811466D01*
X118735786Y-76722109D01*
X118735788Y-76722106D01*
X118735792Y-76722104D01*
X118886104Y-76571792D01*
X118886106Y-76571788D01*
X118886109Y-76571786D01*
X118995086Y-76421789D01*
X119011051Y-76399816D01*
X119107557Y-76210412D01*
X119173246Y-76008243D01*
X119206500Y-75798287D01*
X119206500Y-75585713D01*
X119173246Y-75375757D01*
X119107557Y-75173588D01*
X119011051Y-74984184D01*
X119011049Y-74984181D01*
X119011048Y-74984179D01*
X118886109Y-74812213D01*
X118735786Y-74661890D01*
X118563820Y-74536951D01*
X118374414Y-74440444D01*
X118374413Y-74440443D01*
X118374412Y-74440443D01*
X118172243Y-74374754D01*
X118172241Y-74374753D01*
X118172240Y-74374753D01*
X118010957Y-74349208D01*
X117962287Y-74341500D01*
X117749713Y-74341500D01*
X117701042Y-74349208D01*
X117539760Y-74374753D01*
X117337585Y-74440444D01*
X117148179Y-74536951D01*
X116976213Y-74661890D01*
X116825890Y-74812213D01*
X116700951Y-74984179D01*
X116604444Y-75173585D01*
X116538753Y-75375760D01*
X116515697Y-75521333D01*
X116505500Y-75585713D01*
X113792000Y-75585713D01*
X113792000Y-73000138D01*
X110744000Y-73000138D01*
X110722003Y-73000138D01*
X110709127Y-73007168D01*
X110682783Y-73010000D01*
X110670634Y-73010000D01*
X110670622Y-73010001D01*
X110611016Y-73016408D01*
X110476171Y-73066702D01*
X110476164Y-73066706D01*
X110360955Y-73152952D01*
X110360952Y-73152955D01*
X110274706Y-73268164D01*
X110274702Y-73268171D01*
X110224408Y-73403017D01*
X110218001Y-73462616D01*
X110218000Y-73462635D01*
X110218000Y-75010401D01*
X110198315Y-75077440D01*
X110181681Y-75098082D01*
X105979286Y-79300478D01*
X105867481Y-79412282D01*
X105867479Y-79412285D01*
X105858459Y-79427909D01*
X105826331Y-79483557D01*
X105788423Y-79549215D01*
X105747499Y-79701943D01*
X105747499Y-79701945D01*
X105747499Y-79870046D01*
X105747500Y-79870059D01*
X105747500Y-85010903D01*
X105727815Y-85077942D01*
X105675011Y-85123697D01*
X105605853Y-85133641D01*
X105542297Y-85104616D01*
X105535819Y-85098584D01*
X105302818Y-84865583D01*
X105269333Y-84804260D01*
X105266499Y-84777902D01*
X105266499Y-83430129D01*
X105266498Y-83430123D01*
X105260091Y-83370516D01*
X105209797Y-83235671D01*
X105209793Y-83235664D01*
X105123547Y-83120455D01*
X105123544Y-83120452D01*
X105008335Y-83034206D01*
X105008328Y-83034202D01*
X104873482Y-82983908D01*
X104873483Y-82983908D01*
X104813883Y-82977501D01*
X104813881Y-82977500D01*
X104813873Y-82977500D01*
X104813864Y-82977500D01*
X103018129Y-82977500D01*
X103018123Y-82977501D01*
X102958516Y-82983908D01*
X102823671Y-83034202D01*
X102823664Y-83034206D01*
X102708455Y-83120452D01*
X102708452Y-83120455D01*
X102622206Y-83235664D01*
X102617953Y-83243454D01*
X102615064Y-83241876D01*
X102582792Y-83284971D01*
X102517323Y-83309376D01*
X102449052Y-83294511D01*
X102399657Y-83245096D01*
X102384500Y-83185690D01*
X102384500Y-81792676D01*
X102404185Y-81725637D01*
X102420819Y-81704995D01*
X103353815Y-80771999D01*
X104316500Y-79809314D01*
X104382392Y-79695186D01*
X104416500Y-79567892D01*
X104416500Y-79436108D01*
X104416500Y-77146125D01*
X104436185Y-77079086D01*
X104488989Y-77033331D01*
X104558147Y-77023387D01*
X104621703Y-77052412D01*
X104658431Y-77107807D01*
X104696904Y-77226217D01*
X104793375Y-77415550D01*
X104832728Y-77469716D01*
X105465037Y-76837408D01*
X105482075Y-76900993D01*
X105547901Y-77015007D01*
X105640993Y-77108099D01*
X105755007Y-77173925D01*
X105818590Y-77190962D01*
X105186282Y-77823269D01*
X105186282Y-77823270D01*
X105240449Y-77862624D01*
X105429782Y-77959095D01*
X105631870Y-78024757D01*
X105841754Y-78058000D01*
X106054246Y-78058000D01*
X106264127Y-78024757D01*
X106264130Y-78024757D01*
X106466217Y-77959095D01*
X106655554Y-77862622D01*
X106709716Y-77823270D01*
X106709717Y-77823270D01*
X106077408Y-77190962D01*
X106140993Y-77173925D01*
X106255007Y-77108099D01*
X106348099Y-77015007D01*
X106413925Y-76900993D01*
X106430962Y-76837409D01*
X107063270Y-77469717D01*
X107063270Y-77469716D01*
X107102622Y-77415554D01*
X107199095Y-77226217D01*
X107264757Y-77024130D01*
X107264757Y-77024127D01*
X107298000Y-76814246D01*
X107298000Y-76601753D01*
X107264757Y-76391872D01*
X107264757Y-76391869D01*
X107199095Y-76189782D01*
X107102624Y-76000449D01*
X107063270Y-75946282D01*
X107063269Y-75946282D01*
X106430962Y-76578590D01*
X106413925Y-76515007D01*
X106348099Y-76400993D01*
X106255007Y-76307901D01*
X106140993Y-76242075D01*
X106077409Y-76225037D01*
X106747627Y-75554818D01*
X106808950Y-75521333D01*
X106835307Y-75518499D01*
X106845872Y-75518499D01*
X106905483Y-75512091D01*
X107040331Y-75461796D01*
X107155546Y-75375546D01*
X107241796Y-75260331D01*
X107292091Y-75125483D01*
X107298500Y-75065873D01*
X107298499Y-73270128D01*
X107292091Y-73210517D01*
X107270621Y-73152954D01*
X107241797Y-73075671D01*
X107241793Y-73075664D01*
X107155547Y-72960455D01*
X107155544Y-72960452D01*
X107040335Y-72874206D01*
X107040328Y-72874202D01*
X106905482Y-72823908D01*
X106905483Y-72823908D01*
X106845883Y-72817501D01*
X106845881Y-72817500D01*
X106845873Y-72817500D01*
X106845864Y-72817500D01*
X105050129Y-72817500D01*
X105050123Y-72817501D01*
X104990516Y-72823908D01*
X104855671Y-72874202D01*
X104855664Y-72874206D01*
X104740455Y-72960452D01*
X104740452Y-72960455D01*
X104654206Y-73075664D01*
X104649953Y-73083454D01*
X104647064Y-73081876D01*
X104614792Y-73124971D01*
X104549323Y-73149376D01*
X104481052Y-73134511D01*
X104431657Y-73085096D01*
X104416500Y-73025690D01*
X104416500Y-72254135D01*
X120599500Y-72254135D01*
X120599500Y-74049870D01*
X120599501Y-74049876D01*
X120605908Y-74109483D01*
X120656202Y-74244328D01*
X120656206Y-74244335D01*
X120742452Y-74359544D01*
X120742455Y-74359547D01*
X120857664Y-74445793D01*
X120857671Y-74445797D01*
X120989082Y-74494810D01*
X121045016Y-74536681D01*
X121069433Y-74602145D01*
X121054582Y-74670418D01*
X121033431Y-74698673D01*
X120919889Y-74812215D01*
X120794951Y-74984179D01*
X120698444Y-75173585D01*
X120632753Y-75375760D01*
X120609697Y-75521333D01*
X120599500Y-75585713D01*
X120599500Y-75798287D01*
X120605396Y-75835515D01*
X120631519Y-76000449D01*
X120632754Y-76008243D01*
X120697659Y-76208000D01*
X120698444Y-76210414D01*
X120794951Y-76399820D01*
X120919890Y-76571786D01*
X121070213Y-76722109D01*
X121242182Y-76847050D01*
X121250946Y-76851516D01*
X121301742Y-76899491D01*
X121318536Y-76967312D01*
X121295998Y-77033447D01*
X121250946Y-77072484D01*
X121242182Y-77076949D01*
X121070213Y-77201890D01*
X120919890Y-77352213D01*
X120794951Y-77524179D01*
X120698444Y-77713585D01*
X120632753Y-77915760D01*
X120599500Y-78125713D01*
X120599500Y-78338287D01*
X120609534Y-78401644D01*
X120629207Y-78525852D01*
X120632754Y-78548243D01*
X120678640Y-78689466D01*
X120698444Y-78750414D01*
X120794951Y-78939820D01*
X120919890Y-79111786D01*
X121070213Y-79262109D01*
X121242179Y-79387048D01*
X121242181Y-79387049D01*
X121242184Y-79387051D01*
X121251493Y-79391794D01*
X121302290Y-79439766D01*
X121319087Y-79507587D01*
X121296552Y-79573722D01*
X121251505Y-79612760D01*
X121242446Y-79617376D01*
X121242440Y-79617380D01*
X121188282Y-79656727D01*
X121188282Y-79656728D01*
X121820591Y-80289037D01*
X121757007Y-80306075D01*
X121642993Y-80371901D01*
X121549901Y-80464993D01*
X121484075Y-80579007D01*
X121467037Y-80642591D01*
X120834728Y-80010282D01*
X120834727Y-80010282D01*
X120795380Y-80064439D01*
X120698904Y-80253782D01*
X120633242Y-80455869D01*
X120633242Y-80455872D01*
X120600000Y-80665753D01*
X120600000Y-80878246D01*
X120633242Y-81088127D01*
X120633242Y-81088130D01*
X120698904Y-81290217D01*
X120795375Y-81479550D01*
X120834728Y-81533716D01*
X121467037Y-80901408D01*
X121484075Y-80964993D01*
X121549901Y-81079007D01*
X121642993Y-81172099D01*
X121757007Y-81237925D01*
X121820590Y-81254962D01*
X121188282Y-81887269D01*
X121188282Y-81887270D01*
X121242449Y-81926624D01*
X121431782Y-82023095D01*
X121633870Y-82088757D01*
X121843754Y-82122000D01*
X122056246Y-82122000D01*
X122266127Y-82088757D01*
X122266130Y-82088757D01*
X122468217Y-82023095D01*
X122657554Y-81926622D01*
X122711716Y-81887270D01*
X122711717Y-81887270D01*
X122079408Y-81254962D01*
X122142993Y-81237925D01*
X122257007Y-81172099D01*
X122350099Y-81079007D01*
X122415925Y-80964993D01*
X122432962Y-80901409D01*
X123065270Y-81533717D01*
X123065270Y-81533716D01*
X123104622Y-81479554D01*
X123201095Y-81290217D01*
X123266757Y-81088130D01*
X123266757Y-81088127D01*
X123300000Y-80878246D01*
X123300000Y-80665753D01*
X123266757Y-80455872D01*
X123266757Y-80455869D01*
X123201095Y-80253782D01*
X123104624Y-80064449D01*
X123065270Y-80010282D01*
X123065269Y-80010282D01*
X122432962Y-80642590D01*
X122415925Y-80579007D01*
X122350099Y-80464993D01*
X122257007Y-80371901D01*
X122142993Y-80306075D01*
X122079409Y-80289037D01*
X122711716Y-79656728D01*
X122657547Y-79617373D01*
X122657547Y-79617372D01*
X122648500Y-79612763D01*
X122597706Y-79564788D01*
X122580912Y-79496966D01*
X122603451Y-79430832D01*
X122648508Y-79391793D01*
X122657816Y-79387051D01*
X122776972Y-79300480D01*
X122829786Y-79262109D01*
X122829788Y-79262106D01*
X122829792Y-79262104D01*
X122980104Y-79111792D01*
X122980106Y-79111788D01*
X122980109Y-79111786D01*
X123089086Y-78961789D01*
X123105051Y-78939816D01*
X123201557Y-78750412D01*
X123267246Y-78548243D01*
X123300500Y-78338287D01*
X123300500Y-78125713D01*
X123267246Y-77915757D01*
X123201557Y-77713588D01*
X123105051Y-77524184D01*
X123105049Y-77524181D01*
X123105048Y-77524179D01*
X122980109Y-77352213D01*
X122829786Y-77201890D01*
X122657820Y-77076951D01*
X122657115Y-77076591D01*
X122649054Y-77072485D01*
X122598259Y-77024512D01*
X122581463Y-76956692D01*
X122603999Y-76890556D01*
X122649054Y-76851515D01*
X122657816Y-76847051D01*
X122706795Y-76811466D01*
X122829786Y-76722109D01*
X122829788Y-76722106D01*
X122829792Y-76722104D01*
X122980104Y-76571792D01*
X122980106Y-76571788D01*
X122980109Y-76571786D01*
X123089086Y-76421789D01*
X123105051Y-76399816D01*
X123201557Y-76210412D01*
X123267246Y-76008243D01*
X123300500Y-75798287D01*
X123300500Y-75585713D01*
X123267246Y-75375757D01*
X123201557Y-75173588D01*
X123105051Y-74984184D01*
X123105049Y-74984181D01*
X123105048Y-74984179D01*
X122980109Y-74812213D01*
X122866569Y-74698673D01*
X122833084Y-74637350D01*
X122838068Y-74567658D01*
X122879940Y-74511725D01*
X122910915Y-74494810D01*
X123042331Y-74445796D01*
X123157546Y-74359546D01*
X123243796Y-74244331D01*
X123294091Y-74109483D01*
X123300500Y-74049873D01*
X123300499Y-72254135D01*
X124155500Y-72254135D01*
X124155500Y-74049870D01*
X124155501Y-74049876D01*
X124161908Y-74109483D01*
X124212202Y-74244328D01*
X124212206Y-74244335D01*
X124298452Y-74359544D01*
X124298455Y-74359547D01*
X124413664Y-74445793D01*
X124413671Y-74445797D01*
X124545082Y-74494810D01*
X124601016Y-74536681D01*
X124625433Y-74602145D01*
X124610582Y-74670418D01*
X124589431Y-74698673D01*
X124475889Y-74812215D01*
X124350951Y-74984179D01*
X124254444Y-75173585D01*
X124188753Y-75375760D01*
X124165697Y-75521333D01*
X124155500Y-75585713D01*
X124155500Y-75798287D01*
X124161396Y-75835515D01*
X124187519Y-76000449D01*
X124188754Y-76008243D01*
X124253659Y-76208000D01*
X124254444Y-76210414D01*
X124350951Y-76399820D01*
X124475890Y-76571786D01*
X124626213Y-76722109D01*
X124798182Y-76847050D01*
X124806946Y-76851516D01*
X124857742Y-76899491D01*
X124874536Y-76967312D01*
X124851998Y-77033447D01*
X124806946Y-77072484D01*
X124798182Y-77076949D01*
X124626213Y-77201890D01*
X124475890Y-77352213D01*
X124350951Y-77524179D01*
X124254444Y-77713585D01*
X124188753Y-77915760D01*
X124155500Y-78125713D01*
X124155500Y-78338287D01*
X124165534Y-78401644D01*
X124185207Y-78525852D01*
X124188754Y-78548243D01*
X124234640Y-78689466D01*
X124254444Y-78750414D01*
X124350951Y-78939820D01*
X124475890Y-79111786D01*
X124626213Y-79262109D01*
X124798179Y-79387048D01*
X124798181Y-79387049D01*
X124798184Y-79387051D01*
X124807493Y-79391794D01*
X124858290Y-79439766D01*
X124875087Y-79507587D01*
X124852552Y-79573722D01*
X124807505Y-79612760D01*
X124798446Y-79617376D01*
X124798440Y-79617380D01*
X124744282Y-79656727D01*
X124744282Y-79656728D01*
X125376591Y-80289037D01*
X125313007Y-80306075D01*
X125198993Y-80371901D01*
X125105901Y-80464993D01*
X125040075Y-80579007D01*
X125023037Y-80642591D01*
X124390728Y-80010282D01*
X124390727Y-80010282D01*
X124351380Y-80064439D01*
X124254904Y-80253782D01*
X124189242Y-80455869D01*
X124189242Y-80455872D01*
X124156000Y-80665753D01*
X124156000Y-80878246D01*
X124189242Y-81088127D01*
X124189242Y-81088130D01*
X124254904Y-81290217D01*
X124351375Y-81479550D01*
X124390728Y-81533716D01*
X125023037Y-80901408D01*
X125040075Y-80964993D01*
X125105901Y-81079007D01*
X125198993Y-81172099D01*
X125313007Y-81237925D01*
X125376590Y-81254962D01*
X124744282Y-81887269D01*
X124744282Y-81887270D01*
X124798449Y-81926624D01*
X124987782Y-82023095D01*
X125189870Y-82088757D01*
X125399754Y-82122000D01*
X125612246Y-82122000D01*
X125822127Y-82088757D01*
X125822130Y-82088757D01*
X126024217Y-82023095D01*
X126213554Y-81926622D01*
X126267716Y-81887270D01*
X126267717Y-81887270D01*
X125635408Y-81254962D01*
X125698993Y-81237925D01*
X125813007Y-81172099D01*
X125906099Y-81079007D01*
X125971925Y-80964993D01*
X125988962Y-80901409D01*
X126621270Y-81533717D01*
X126621270Y-81533716D01*
X126660622Y-81479554D01*
X126757095Y-81290217D01*
X126822757Y-81088130D01*
X126822757Y-81088127D01*
X126856000Y-80878246D01*
X126856000Y-80665753D01*
X126822757Y-80455872D01*
X126822757Y-80455869D01*
X126757095Y-80253782D01*
X126660624Y-80064449D01*
X126621270Y-80010282D01*
X126621269Y-80010282D01*
X125988962Y-80642590D01*
X125971925Y-80579007D01*
X125906099Y-80464993D01*
X125813007Y-80371901D01*
X125698993Y-80306075D01*
X125635409Y-80289037D01*
X126267716Y-79656728D01*
X126213547Y-79617373D01*
X126213547Y-79617372D01*
X126204500Y-79612763D01*
X126153706Y-79564788D01*
X126136912Y-79496966D01*
X126159451Y-79430832D01*
X126204508Y-79391793D01*
X126213816Y-79387051D01*
X126332972Y-79300480D01*
X126385786Y-79262109D01*
X126385788Y-79262106D01*
X126385792Y-79262104D01*
X126536104Y-79111792D01*
X126536106Y-79111788D01*
X126536109Y-79111786D01*
X126645086Y-78961789D01*
X126661051Y-78939816D01*
X126757557Y-78750412D01*
X126823246Y-78548243D01*
X126856500Y-78338287D01*
X126856500Y-78125713D01*
X126823246Y-77915757D01*
X126757557Y-77713588D01*
X126661051Y-77524184D01*
X126661049Y-77524181D01*
X126661048Y-77524179D01*
X126536109Y-77352213D01*
X126385786Y-77201890D01*
X126213820Y-77076951D01*
X126213115Y-77076591D01*
X126205054Y-77072485D01*
X126154259Y-77024512D01*
X126137463Y-76956692D01*
X126159999Y-76890556D01*
X126205054Y-76851515D01*
X126213816Y-76847051D01*
X126262795Y-76811466D01*
X126385786Y-76722109D01*
X126385788Y-76722106D01*
X126385792Y-76722104D01*
X126536104Y-76571792D01*
X126536106Y-76571788D01*
X126536109Y-76571786D01*
X126645086Y-76421789D01*
X126661051Y-76399816D01*
X126757557Y-76210412D01*
X126823246Y-76008243D01*
X126856500Y-75798287D01*
X126856500Y-75656135D01*
X144321500Y-75656135D01*
X144321500Y-77251870D01*
X144321501Y-77251876D01*
X144327908Y-77311483D01*
X144378202Y-77446328D01*
X144378206Y-77446335D01*
X144464452Y-77561544D01*
X144464455Y-77561547D01*
X144579664Y-77647793D01*
X144579671Y-77647797D01*
X144714517Y-77698091D01*
X144714516Y-77698091D01*
X144721444Y-77698835D01*
X144774127Y-77704500D01*
X146369872Y-77704499D01*
X146429483Y-77698091D01*
X146564331Y-77647796D01*
X146679546Y-77561546D01*
X146765796Y-77446331D01*
X146816091Y-77311483D01*
X146822500Y-77251873D01*
X146822499Y-75656128D01*
X146816091Y-75596517D01*
X146812061Y-75585713D01*
X146765797Y-75461671D01*
X146765793Y-75461664D01*
X146679547Y-75346455D01*
X146679544Y-75346452D01*
X146564335Y-75260206D01*
X146564328Y-75260202D01*
X146429482Y-75209908D01*
X146429483Y-75209908D01*
X146369883Y-75203501D01*
X146369881Y-75203500D01*
X146369873Y-75203500D01*
X146369864Y-75203500D01*
X144774129Y-75203500D01*
X144774123Y-75203501D01*
X144714516Y-75209908D01*
X144579671Y-75260202D01*
X144579664Y-75260206D01*
X144464455Y-75346452D01*
X144464452Y-75346455D01*
X144378206Y-75461664D01*
X144378202Y-75461671D01*
X144327908Y-75596517D01*
X144321501Y-75656116D01*
X144321501Y-75656123D01*
X144321500Y-75656135D01*
X126856500Y-75656135D01*
X126856500Y-75585713D01*
X126823246Y-75375757D01*
X126757557Y-75173588D01*
X126661051Y-74984184D01*
X126661049Y-74984181D01*
X126661048Y-74984179D01*
X126536109Y-74812213D01*
X126422569Y-74698673D01*
X126389084Y-74637350D01*
X126394068Y-74567658D01*
X126435940Y-74511725D01*
X126466915Y-74494810D01*
X126598331Y-74445796D01*
X126713546Y-74359546D01*
X126799796Y-74244331D01*
X126850091Y-74109483D01*
X126856500Y-74049873D01*
X126856500Y-73815577D01*
X141781500Y-73815577D01*
X141781500Y-74012422D01*
X141812290Y-74206826D01*
X141873117Y-74394029D01*
X141934501Y-74514501D01*
X141962476Y-74569405D01*
X142078172Y-74728646D01*
X142217354Y-74867828D01*
X142376595Y-74983524D01*
X142459455Y-75025743D01*
X142551970Y-75072882D01*
X142551972Y-75072882D01*
X142551975Y-75072884D01*
X142629526Y-75098082D01*
X142739173Y-75133709D01*
X142933578Y-75164500D01*
X142933583Y-75164500D01*
X143130422Y-75164500D01*
X143324826Y-75133709D01*
X143369418Y-75119220D01*
X143512025Y-75072884D01*
X143687405Y-74983524D01*
X143846646Y-74867828D01*
X143985828Y-74728646D01*
X144101524Y-74569405D01*
X144190884Y-74394025D01*
X144251709Y-74206826D01*
X144259188Y-74159606D01*
X144282500Y-74012422D01*
X144282500Y-73815577D01*
X144251709Y-73621173D01*
X144200196Y-73462635D01*
X144190884Y-73433975D01*
X144190882Y-73433972D01*
X144190881Y-73433967D01*
X144156841Y-73367160D01*
X144156840Y-73367159D01*
X144129761Y-73314013D01*
X144101524Y-73258595D01*
X143985828Y-73099354D01*
X143846646Y-72960172D01*
X143687405Y-72844476D01*
X143647038Y-72823908D01*
X143512029Y-72755117D01*
X143324826Y-72694290D01*
X143130422Y-72663500D01*
X143130417Y-72663500D01*
X142933583Y-72663500D01*
X142933578Y-72663500D01*
X142739173Y-72694290D01*
X142551970Y-72755117D01*
X142376594Y-72844476D01*
X142306155Y-72895654D01*
X142217354Y-72960172D01*
X142217352Y-72960174D01*
X142217351Y-72960174D01*
X142078174Y-73099351D01*
X142078174Y-73099352D01*
X142078172Y-73099354D01*
X142039231Y-73152952D01*
X141962476Y-73258594D01*
X141873117Y-73433970D01*
X141812290Y-73621173D01*
X141781500Y-73815577D01*
X126856500Y-73815577D01*
X126856499Y-73149591D01*
X126856499Y-72406215D01*
X126856499Y-72254129D01*
X126856498Y-72254123D01*
X126856497Y-72254116D01*
X126850091Y-72194517D01*
X126814809Y-72099922D01*
X126799797Y-72059671D01*
X126799793Y-72059664D01*
X126713547Y-71944455D01*
X126713544Y-71944452D01*
X126598335Y-71858206D01*
X126598328Y-71858202D01*
X126463482Y-71807908D01*
X126463483Y-71807908D01*
X126403883Y-71801501D01*
X126403881Y-71801500D01*
X126403873Y-71801500D01*
X126403864Y-71801500D01*
X124608129Y-71801500D01*
X124608123Y-71801501D01*
X124548516Y-71807908D01*
X124413671Y-71858202D01*
X124413664Y-71858206D01*
X124298455Y-71944452D01*
X124298452Y-71944455D01*
X124212206Y-72059664D01*
X124212202Y-72059671D01*
X124161908Y-72194517D01*
X124157619Y-72234417D01*
X124155501Y-72254123D01*
X124155500Y-72254135D01*
X123300499Y-72254135D01*
X123300499Y-72254128D01*
X123294091Y-72194517D01*
X123258809Y-72099922D01*
X123243797Y-72059671D01*
X123243793Y-72059664D01*
X123157547Y-71944455D01*
X123157544Y-71944452D01*
X123042335Y-71858206D01*
X123042328Y-71858202D01*
X122907482Y-71807908D01*
X122907483Y-71807908D01*
X122847883Y-71801501D01*
X122847881Y-71801500D01*
X122847873Y-71801500D01*
X122847864Y-71801500D01*
X121052129Y-71801500D01*
X121052123Y-71801501D01*
X120992516Y-71807908D01*
X120857671Y-71858202D01*
X120857664Y-71858206D01*
X120742455Y-71944452D01*
X120742452Y-71944455D01*
X120656206Y-72059664D01*
X120656202Y-72059671D01*
X120605908Y-72194517D01*
X120601619Y-72234417D01*
X120599501Y-72254123D01*
X120599500Y-72254135D01*
X104416500Y-72254135D01*
X104416500Y-70474500D01*
X104436185Y-70407461D01*
X104488989Y-70361706D01*
X104540500Y-70350500D01*
X137861364Y-70350500D01*
X137928403Y-70370185D01*
G37*
%TD.AperFunction*%
%TA.AperFunction,Conductor*%
G36*
X121550648Y-88506941D02*
G01*
X123079181Y-90035474D01*
X123112666Y-90096797D01*
X123115500Y-90123155D01*
X123115500Y-96880024D01*
X123115499Y-96880042D01*
X123115499Y-97045748D01*
X123115499Y-97045749D01*
X123115500Y-97045751D01*
X123156297Y-97198008D01*
X123156424Y-97198480D01*
X123156425Y-97198483D01*
X123173496Y-97228050D01*
X123173497Y-97228051D01*
X123235477Y-97335405D01*
X123235481Y-97335410D01*
X123354349Y-97454278D01*
X123354355Y-97454283D01*
X123939061Y-98038989D01*
X124472872Y-98572799D01*
X124506357Y-98634122D01*
X124501373Y-98703814D01*
X124459501Y-98759747D01*
X124428529Y-98776660D01*
X124413674Y-98782200D01*
X124413664Y-98782206D01*
X124298455Y-98868452D01*
X124298452Y-98868455D01*
X124212206Y-98983664D01*
X124212202Y-98983671D01*
X124161908Y-99118517D01*
X124155501Y-99178116D01*
X124155500Y-99178135D01*
X124155500Y-99188690D01*
X124135815Y-99255729D01*
X124119181Y-99276371D01*
X123448962Y-99946589D01*
X123431925Y-99883007D01*
X123366099Y-99768993D01*
X123273007Y-99675901D01*
X123158993Y-99610075D01*
X123095409Y-99593037D01*
X123727716Y-98960728D01*
X123673550Y-98921375D01*
X123484217Y-98824904D01*
X123282129Y-98759242D01*
X123072246Y-98726000D01*
X122859754Y-98726000D01*
X122649872Y-98759242D01*
X122649869Y-98759242D01*
X122447782Y-98824904D01*
X122258439Y-98921380D01*
X122204282Y-98960727D01*
X122204282Y-98960728D01*
X122836591Y-99593037D01*
X122773007Y-99610075D01*
X122658993Y-99675901D01*
X122565901Y-99768993D01*
X122500075Y-99883007D01*
X122483037Y-99946591D01*
X121850728Y-99314282D01*
X121850727Y-99314282D01*
X121811380Y-99368440D01*
X121811376Y-99368446D01*
X121806760Y-99377505D01*
X121758781Y-99428297D01*
X121690959Y-99445087D01*
X121624826Y-99422543D01*
X121585794Y-99377493D01*
X121581051Y-99368184D01*
X121581049Y-99368181D01*
X121581048Y-99368179D01*
X121456109Y-99196213D01*
X121305786Y-99045890D01*
X121133820Y-98920951D01*
X120944414Y-98824444D01*
X120944413Y-98824443D01*
X120944412Y-98824443D01*
X120742243Y-98758754D01*
X120742241Y-98758753D01*
X120742240Y-98758753D01*
X120580957Y-98733208D01*
X120532287Y-98725500D01*
X120319713Y-98725500D01*
X120271042Y-98733208D01*
X120109760Y-98758753D01*
X119907585Y-98824444D01*
X119718179Y-98920951D01*
X119546213Y-99045890D01*
X119395890Y-99196213D01*
X119270949Y-99368182D01*
X119266484Y-99376946D01*
X119218509Y-99427742D01*
X119150688Y-99444536D01*
X119084553Y-99421998D01*
X119045516Y-99376946D01*
X119041050Y-99368182D01*
X118916109Y-99196213D01*
X118765786Y-99045890D01*
X118593820Y-98920951D01*
X118404414Y-98824444D01*
X118404413Y-98824443D01*
X118404412Y-98824443D01*
X118202243Y-98758754D01*
X118202241Y-98758753D01*
X118202240Y-98758753D01*
X118040957Y-98733208D01*
X117992287Y-98725500D01*
X117845097Y-98725500D01*
X117823851Y-98719261D01*
X117801763Y-98717682D01*
X117790979Y-98709609D01*
X117778058Y-98705815D01*
X117763558Y-98689081D01*
X117745830Y-98675810D01*
X117741122Y-98663189D01*
X117732303Y-98653011D01*
X117729151Y-98631093D01*
X117721413Y-98610346D01*
X117724275Y-98597185D01*
X117722359Y-98583853D01*
X117731558Y-98563709D01*
X117736265Y-98542073D01*
X117749533Y-98524347D01*
X117751384Y-98520297D01*
X117757416Y-98513819D01*
X117868416Y-98402819D01*
X117929739Y-98369334D01*
X117956097Y-98366500D01*
X119182652Y-98366500D01*
X119182668Y-98366501D01*
X119190264Y-98366501D01*
X119348377Y-98366501D01*
X119348379Y-98366501D01*
X119501106Y-98325577D01*
X119551225Y-98296639D01*
X119638037Y-98246520D01*
X119749841Y-98134716D01*
X119749841Y-98134714D01*
X119760049Y-98124507D01*
X119760051Y-98124503D01*
X120900506Y-96984047D01*
X120900511Y-96984044D01*
X120910714Y-96973840D01*
X120910716Y-96973840D01*
X121022520Y-96862036D01*
X121101577Y-96725104D01*
X121106049Y-96708416D01*
X121142501Y-96572377D01*
X121142501Y-96414262D01*
X121142501Y-96406667D01*
X121142500Y-96406649D01*
X121142500Y-88771145D01*
X121162185Y-88704106D01*
X121197607Y-88668044D01*
X121252289Y-88631508D01*
X121363789Y-88520008D01*
X121363791Y-88520004D01*
X121367113Y-88515958D01*
X121424858Y-88476623D01*
X121494703Y-88474752D01*
X121550648Y-88506941D01*
G37*
%TD.AperFunction*%
%TA.AperFunction,Conductor*%
G36*
X104621703Y-75216596D02*
G01*
X104647567Y-75253848D01*
X104649953Y-75252546D01*
X104654206Y-75260335D01*
X104740452Y-75375544D01*
X104740455Y-75375547D01*
X104855664Y-75461793D01*
X104855671Y-75461797D01*
X104900618Y-75478561D01*
X104990517Y-75512091D01*
X105050127Y-75518500D01*
X105060685Y-75518499D01*
X105127723Y-75538179D01*
X105148372Y-75554818D01*
X105818591Y-76225037D01*
X105755007Y-76242075D01*
X105640993Y-76307901D01*
X105547901Y-76400993D01*
X105482075Y-76515007D01*
X105465037Y-76578591D01*
X104832728Y-75946282D01*
X104832727Y-75946282D01*
X104793380Y-76000439D01*
X104696904Y-76189783D01*
X104658431Y-76308192D01*
X104618994Y-76365868D01*
X104554635Y-76393066D01*
X104485789Y-76381151D01*
X104434313Y-76333907D01*
X104416500Y-76269874D01*
X104416500Y-75310309D01*
X104436185Y-75243270D01*
X104488989Y-75197515D01*
X104558147Y-75187571D01*
X104621703Y-75216596D01*
G37*
%TD.AperFunction*%
%TD*%
M02*
