M48
; DRILL file KiCad 10.0.3 date 2026-10-01T01:11:41
; FORMAT={-:-/ absolute / metric / decimal}
; #@! TF.CreationDate,2026-10-01T01:11:41-06:00
; #@! TF.GenerationSoftware,Kicad,Pcbnew,10.0.3
; #@! TF.FileFunction,Plated,1,2,PTH
FMAT,2
METRIC
; #@! TA.AperFunction,Plated,PTH,ViaDrill
T1C0.300
; #@! TA.AperFunction,Plated,PTH,ComponentDrill
T2C0.800
; #@! TA.AperFunction,Plated,PTH,ComponentDrill
T3C1.000
%
G90
G05
T1
X110.49Y-105.41
X113.09Y-106.172
X118.872Y-105.918
X118.872Y-106.934
X120.142Y-87.386
X120.742Y-88.01
X120.904Y-98.298
X121.592Y-103.198
X121.666Y-104.394
X121.666Y-108.458
X122.174Y-90.424
X124.095Y-103.325
X125.984Y-105.918
X125.984Y-106.934
X126.979Y-84.857
X127.579Y-85.457
X128.524Y-104.394
X128.524Y-107.882
X128.836Y-80.714
X129.794Y-106.68
X129.794Y-110.236
X131.856Y-106.426
X136.398Y-77.47
X139.446Y-90.932
X140.927Y-102.151
X142.494Y-96.012
X143.51Y-95.85
X148.345Y-90.502
X153.67Y-83.312
X162.56Y-104.902
X162.814Y-101.854
X164.846Y-103.124
T2
X108.488Y-88.646
X108.488Y-91.186
X108.488Y-93.726
X108.488Y-96.266
X116.108Y-88.646
X116.108Y-91.186
X116.108Y-93.726
X116.108Y-96.266
X118.648Y-88.646
X118.648Y-91.186
X118.648Y-93.726
X118.648Y-96.266
X126.268Y-88.646
X126.268Y-91.186
X126.268Y-93.726
X126.268Y-96.266
X131.851Y-92.262
X131.851Y-99.762
X131.856Y-81.534
X131.856Y-89.154
X131.856Y-102.362
X131.856Y-109.982
X135.417Y-81.534
X135.417Y-89.154
X135.661Y-99.822
X135.661Y-102.362
X135.661Y-104.902
X135.661Y-107.442
X138.968Y-71.374
X138.968Y-78.994
X138.968Y-81.654
X138.968Y-89.154
X142.524Y-81.534
X142.524Y-89.154
X143.032Y-73.914
X143.281Y-99.822
X143.281Y-102.362
X143.281Y-104.902
X143.281Y-107.442
X145.572Y-71.374
X145.572Y-76.454
X146.08Y-81.534
X146.08Y-89.154
X147.096Y-92.202
X147.096Y-99.822
X147.604Y-104.902
X147.604Y-109.982
X149.895Y-73.914
X149.895Y-76.454
X149.895Y-78.994
X149.895Y-81.534
X150.144Y-107.442
X150.652Y-92.202
X150.652Y-99.822
X154.208Y-92.202
X154.208Y-99.702
X154.208Y-102.362
X154.208Y-109.982
X157.515Y-73.914
X157.515Y-76.454
X157.515Y-78.994
X157.515Y-81.534
X157.759Y-92.202
X157.759Y-99.822
X161.32Y-71.374
X161.32Y-78.994
X161.32Y-92.202
X161.32Y-99.822
X161.325Y-81.594
X161.325Y-89.094
X167.162Y-72.136
X167.162Y-74.676
X167.162Y-77.216
X167.162Y-79.756
X167.162Y-101.854
X167.162Y-104.394
X167.162Y-106.934
X167.162Y-109.474
X169.702Y-72.136
X169.702Y-74.676
X169.702Y-77.216
X169.702Y-79.756
X169.702Y-101.854
X169.702Y-104.394
X169.702Y-106.934
X169.702Y-109.474
T3
X103.916Y-84.328
X103.916Y-86.868
X103.916Y-89.408
X103.916Y-91.948
X103.916Y-94.488
X103.916Y-97.028
X105.948Y-74.168
X105.948Y-76.708
X105.948Y-104.648
X105.948Y-107.188
X110.266Y-84.836
X110.266Y-100.076
X111.868Y-74.26
X111.868Y-76.8
X111.868Y-79.34
X112.806Y-84.836
X112.806Y-100.076
X115.346Y-84.836
X115.346Y-100.076
X117.856Y-75.692
X117.856Y-78.232
X117.856Y-80.772
X117.886Y-84.836
X117.886Y-100.076
X120.426Y-84.836
X120.426Y-100.076
X121.95Y-73.152
X121.95Y-75.692
X121.95Y-78.232
X121.95Y-80.772
X122.966Y-84.836
X122.966Y-100.076
X125.506Y-73.152
X125.506Y-75.692
X125.506Y-78.232
X125.506Y-80.772
X125.506Y-84.836
X125.506Y-100.076
M30
