%TF.GenerationSoftware,KiCad,Pcbnew,10.0.3*%
%TF.CreationDate,2026-10-01T01:11:43-06:00*%
%TF.ProjectId,GBG_Motors,4742475f-4d6f-4746-9f72-732e6b696361,rev?*%
%TF.SameCoordinates,Original*%
%TF.FileFunction,Soldermask,Bot*%
%TF.FilePolarity,Negative*%
%FSLAX46Y46*%
G04 Gerber Fmt 4.6, Leading zero omitted, Abs format (unit mm)*
G04 Created by KiCad (PCBNEW 10.0.3) date 2026-10-01 01:11:43*
%MOMM*%
%LPD*%
G01*
G04 APERTURE LIST*
G04 Aperture macros list*
%AMRoundRect*
0 Rectangle with rounded corners*
0 $1 Rounding radius*
0 $2 $3 $4 $5 $6 $7 $8 $9 X,Y pos of 4 corners*
0 Add a 4 corners polygon primitive as box body*
4,1,4,$2,$3,$4,$5,$6,$7,$8,$9,$2,$3,0*
0 Add four circle primitives for the rounded corners*
1,1,$1+$1,$2,$3*
1,1,$1+$1,$4,$5*
1,1,$1+$1,$6,$7*
1,1,$1+$1,$8,$9*
0 Add four rect primitives between the rounded corners*
20,1,$1+$1,$2,$3,$4,$5,0*
20,1,$1+$1,$4,$5,$6,$7,0*
20,1,$1+$1,$6,$7,$8,$9,0*
20,1,$1+$1,$8,$9,$2,$3,0*%
%AMFreePoly0*
4,1,23,0.500000,-0.750000,0.000000,-0.750000,0.000000,-0.745722,-0.065263,-0.745722,-0.191342,-0.711940,-0.304381,-0.646677,-0.396677,-0.554381,-0.461940,-0.441342,-0.495722,-0.315263,-0.495722,-0.250000,-0.500000,-0.250000,-0.500000,0.250000,-0.495722,0.250000,-0.495722,0.315263,-0.461940,0.441342,-0.396677,0.554381,-0.304381,0.646677,-0.191342,0.711940,-0.065263,0.745722,0.000000,0.745722,
0.000000,0.750000,0.500000,0.750000,0.500000,-0.750000,0.500000,-0.750000,$1*%
%AMFreePoly1*
4,1,23,0.000000,0.745722,0.065263,0.745722,0.191342,0.711940,0.304381,0.646677,0.396677,0.554381,0.461940,0.441342,0.495722,0.315263,0.495722,0.250000,0.500000,0.250000,0.500000,-0.250000,0.495722,-0.250000,0.495722,-0.315263,0.461940,-0.441342,0.396677,-0.554381,0.304381,-0.646677,0.191342,-0.711940,0.065263,-0.745722,0.000000,-0.745722,0.000000,-0.750000,-0.500000,-0.750000,
-0.500000,0.750000,0.000000,0.750000,0.000000,0.745722,0.000000,0.745722,$1*%
G04 Aperture macros list end*
%ADD10R,1.700000X1.700000*%
%ADD11C,1.700000*%
%ADD12R,2.300000X1.500000*%
%ADD13O,2.300000X1.500000*%
%ADD14C,1.600000*%
%ADD15R,1.500000X1.500000*%
%ADD16C,1.500000*%
%ADD17RoundRect,0.250000X0.550000X0.550000X-0.550000X0.550000X-0.550000X-0.550000X0.550000X-0.550000X0*%
%ADD18RoundRect,0.250000X-0.550000X-0.550000X0.550000X-0.550000X0.550000X0.550000X-0.550000X0.550000X0*%
%ADD19FreePoly0,0.000000*%
%ADD20FreePoly1,0.000000*%
G04 APERTURE END LIST*
%TO.C,JP501*%
G36*
X113560000Y-95516000D02*
G01*
X113860000Y-95516000D01*
X113860000Y-97016000D01*
X113560000Y-97016000D01*
X113560000Y-95516000D01*
G37*
%TO.C,JP201*%
G36*
X113560000Y-87896000D02*
G01*
X113860000Y-87896000D01*
X113860000Y-89396000D01*
X113560000Y-89396000D01*
X113560000Y-87896000D01*
G37*
%TO.C,JP301*%
G36*
X113560000Y-90436000D02*
G01*
X113860000Y-90436000D01*
X113860000Y-91936000D01*
X113560000Y-91936000D01*
X113560000Y-90436000D01*
G37*
%TO.C,JP401*%
G36*
X113560000Y-92976000D02*
G01*
X113860000Y-92976000D01*
X113860000Y-94476000D01*
X113560000Y-94476000D01*
X113560000Y-92976000D01*
G37*
%TD*%
D10*
%TO.C,J106*%
X117856000Y-80772000D03*
D11*
X117856000Y-78232000D03*
X117856000Y-75692000D03*
%TD*%
D12*
%TO.C,U103*%
X111868500Y-74260500D03*
D13*
X111868500Y-76800500D03*
X111868500Y-79340500D03*
%TD*%
D14*
%TO.C,R201*%
X108488000Y-88646000D03*
X116108000Y-88646000D03*
%TD*%
D15*
%TO.C,Q601*%
X147604000Y-104902000D03*
D16*
X150144000Y-107442000D03*
X147604000Y-109982000D03*
%TD*%
D14*
%TO.C,R603*%
X157759000Y-92202000D03*
X157759000Y-99822000D03*
%TD*%
%TO.C,R702*%
X138968000Y-78994000D03*
X138968000Y-71374000D03*
%TD*%
%TO.C,C602*%
X131851000Y-99762000D03*
X131851000Y-92262000D03*
%TD*%
%TO.C,R401*%
X108488000Y-93726000D03*
X116108000Y-93726000D03*
%TD*%
D17*
%TO.C,U601*%
X143281000Y-107442000D03*
D14*
X143281000Y-104902000D03*
X143281000Y-102362000D03*
X143281000Y-99822000D03*
X135661000Y-99822000D03*
X135661000Y-102362000D03*
X135661000Y-104902000D03*
X135661000Y-107442000D03*
%TD*%
%TO.C,R704*%
X142524000Y-89154000D03*
X142524000Y-81534000D03*
%TD*%
D10*
%TO.C,J701*%
X125506000Y-73152000D03*
D11*
X125506000Y-75692000D03*
X125506000Y-78232000D03*
X125506000Y-80772000D03*
%TD*%
D14*
%TO.C,R604*%
X150652000Y-92202000D03*
X150652000Y-99822000D03*
%TD*%
%TO.C,R202*%
X126268000Y-88646000D03*
X118648000Y-88646000D03*
%TD*%
%TO.C,R703*%
X135417000Y-89154000D03*
X135417000Y-81534000D03*
%TD*%
%TO.C,R602*%
X154208000Y-102362000D03*
X154208000Y-109982000D03*
%TD*%
D10*
%TO.C,J102*%
X125506000Y-84836000D03*
D11*
X122966000Y-84836000D03*
X120426000Y-84836000D03*
X117886000Y-84836000D03*
X115346000Y-84836000D03*
X112806000Y-84836000D03*
X110266000Y-84836000D03*
%TD*%
D14*
%TO.C,R607*%
X131856000Y-109982000D03*
X131856000Y-102362000D03*
%TD*%
%TO.C,R501*%
X108488000Y-96266000D03*
X116108000Y-96266000D03*
%TD*%
D10*
%TO.C,J101*%
X103916000Y-84328000D03*
D11*
X103916000Y-86868000D03*
X103916000Y-89408000D03*
X103916000Y-91948000D03*
X103916000Y-94488000D03*
X103916000Y-97028000D03*
%TD*%
D14*
%TO.C,R302*%
X126268000Y-91186000D03*
X118648000Y-91186000D03*
%TD*%
%TO.C,R706*%
X161320000Y-71374000D03*
X161320000Y-78994000D03*
%TD*%
D10*
%TO.C,J105*%
X105948000Y-104648000D03*
D11*
X105948000Y-107188000D03*
%TD*%
D10*
%TO.C,J103*%
X125506000Y-100076000D03*
D11*
X122966000Y-100076000D03*
X120426000Y-100076000D03*
X117886000Y-100076000D03*
X115346000Y-100076000D03*
X112806000Y-100076000D03*
X110266000Y-100076000D03*
%TD*%
D15*
%TO.C,Q701*%
X145572000Y-76454000D03*
D16*
X143032000Y-73914000D03*
X145572000Y-71374000D03*
%TD*%
D14*
%TO.C,R601*%
X161320000Y-92202000D03*
X161320000Y-99822000D03*
%TD*%
D18*
%TO.C,U701*%
X149895000Y-73914000D03*
D14*
X149895000Y-76454000D03*
X149895000Y-78994000D03*
X149895000Y-81534000D03*
X157515000Y-81534000D03*
X157515000Y-78994000D03*
X157515000Y-76454000D03*
X157515000Y-73914000D03*
%TD*%
%TO.C,C601*%
X154208000Y-99702000D03*
X154208000Y-92202000D03*
%TD*%
%TO.C,R301*%
X108488000Y-91186000D03*
X116108000Y-91186000D03*
%TD*%
D10*
%TO.C,J601*%
X121950000Y-73152000D03*
D11*
X121950000Y-75692000D03*
X121950000Y-78232000D03*
X121950000Y-80772000D03*
%TD*%
D14*
%TO.C,R502*%
X126268000Y-96266000D03*
X118648000Y-96266000D03*
%TD*%
%TO.C,C701*%
X138968000Y-81654000D03*
X138968000Y-89154000D03*
%TD*%
%TO.C,R402*%
X126268000Y-93726000D03*
X118648000Y-93726000D03*
%TD*%
%TO.C,R705*%
X146080000Y-81534000D03*
X146080000Y-89154000D03*
%TD*%
%TO.C,R701*%
X131856000Y-89154000D03*
X131856000Y-81534000D03*
%TD*%
%TO.C,R605*%
X147096000Y-99822000D03*
X147096000Y-92202000D03*
%TD*%
D10*
%TO.C,J104*%
X105948000Y-74168000D03*
D11*
X105948000Y-76708000D03*
%TD*%
D16*
%TO.C,U101*%
X169702000Y-101854000D03*
X167162000Y-101854000D03*
X169702000Y-104394000D03*
X167162000Y-104394000D03*
X169702000Y-106934000D03*
X167162000Y-106934000D03*
X169702000Y-109474000D03*
X167162000Y-109474000D03*
%TD*%
D14*
%TO.C,C702*%
X161325000Y-81594000D03*
X161325000Y-89094000D03*
%TD*%
D19*
%TO.C,JP501*%
X113060000Y-96266000D03*
D20*
X114360000Y-96266000D03*
%TD*%
D16*
%TO.C,U102*%
X169702000Y-79756000D03*
X167162000Y-79756000D03*
X169702000Y-77216000D03*
X167162000Y-77216000D03*
X169702000Y-74676000D03*
X167162000Y-74676000D03*
X169702000Y-72136000D03*
X167162000Y-72136000D03*
%TD*%
D19*
%TO.C,JP201*%
X113060000Y-88646000D03*
D20*
X114360000Y-88646000D03*
%TD*%
D19*
%TO.C,JP301*%
X113060000Y-91186000D03*
D20*
X114360000Y-91186000D03*
%TD*%
D19*
%TO.C,JP401*%
X113060000Y-93726000D03*
D20*
X114360000Y-93726000D03*
%TD*%
M02*
